<svg width="171" height="59" viewBox="0 0 171 59" fill="none" xmlns="http://www.w3.org/2000/svg">
<g clip-path="url(#clip0)">
<path fill-rule="evenodd" clip-rule="evenodd" d="M114.666 58.1773C118.823 58.1773 122.983 58.2511 127.136 58.1618C137.257 57.9407 147.381 58.1153 157.502 57.929C161.84 57.8475 166.178 57.9096 170.515 57.7932C170.551 57.9795 170.57 58.1424 170.57 58.2821C170.562 58.899 170.196 59.1163 169.471 58.9417C169.282 58.5498 168.951 58.7632 168.695 58.7594C165.468 58.7438 162.242 58.7477 159.015 58.7477C157.203 58.7477 155.387 58.7477 153.575 58.7477C144.852 58.8641 136.134 58.414 127.411 58.5576C124.094 58.5576 120.781 58.5576 117.464 58.5576C116.601 58.1657 115.71 58.4063 114.828 58.4218C114.714 58.383 114.663 58.3015 114.666 58.1773Z" fill="white"/>
<path fill-rule="evenodd" clip-rule="evenodd" d="M127.408 58.5576C136.134 58.418 144.857 58.8642 153.587 58.7478C153.587 58.8099 153.587 58.8758 153.587 58.9379C148.005 58.9379 142.418 58.9379 136.832 58.9379C136.698 58.515 136.379 58.7633 136.17 58.7594C133.471 58.7361 130.768 58.7517 128.07 58.7284C127.861 58.7361 127.542 58.9806 127.408 58.5576Z" fill="white"/>
<path fill-rule="evenodd" clip-rule="evenodd" d="M158.996 58.7515C162.266 58.7515 165.536 58.7438 168.806 58.7671C169.015 58.7671 169.33 58.5226 169.464 58.9455C165.974 58.9455 162.483 58.9455 158.992 58.9455C158.996 58.8796 158.996 58.8136 158.996 58.7515Z" fill="white"/>
<path fill-rule="evenodd" clip-rule="evenodd" d="M158.996 58.7517C158.996 58.8138 158.996 58.8798 158.996 58.9418C157.191 58.9418 155.387 58.9418 153.586 58.9418C153.586 58.8798 153.586 58.8138 153.586 58.7517C155.387 58.7517 157.191 58.7517 158.996 58.7517Z" fill="white"/>
<path fill-rule="evenodd" clip-rule="evenodd" d="M166.151 28.448C167.605 28.448 169.058 28.448 170.512 28.448C170.512 28.5101 170.512 28.576 170.512 28.6381C169.058 28.6381 167.605 28.6381 166.151 28.6381C166.151 28.576 166.151 28.5101 166.151 28.448Z" fill="white"/>
<path fill-rule="evenodd" clip-rule="evenodd" d="M120.6 29.0222C114.493 29.0222 108.391 29.0222 102.284 29.0183C101.965 29.0183 101.524 29.2511 101.556 28.4945C101.583 27.7612 102.028 28.0793 102.284 28.0793C108.883 28.0638 115.486 27.9008 122.081 28.1065C130.839 28.382 139.593 28.1337 148.347 28.2578C148.769 28.6691 149.273 28.3626 149.734 28.4441C150.073 28.5023 150.423 28.4014 150.782 28.4984C150.667 28.8166 150.439 28.6303 150.285 28.6303C142.205 28.6419 134.125 28.6342 126.045 28.6458C124.311 28.6497 122.585 28.8786 120.848 28.8282C120.722 28.8204 120.635 28.8786 120.6 29.0222Z" fill="white"/>
<path fill-rule="evenodd" clip-rule="evenodd" d="M120.6 29.0222C120.734 28.5992 121.049 28.8514 121.261 28.8437C130.996 28.4518 140.735 28.7195 150.47 28.6342C150.632 28.6342 150.821 28.7312 151.041 28.444C150.257 28.444 149.548 28.4557 148.839 28.4363C148.674 28.4324 148.414 28.6225 148.351 28.2539C154.284 28.5178 160.217 28.4324 166.154 28.444C166.154 28.5061 166.154 28.5721 166.154 28.6342C163.566 28.6342 160.977 28.5798 158.393 28.6419C147.866 28.9019 137.339 28.7506 126.812 28.8747C124.744 28.9058 122.668 28.9446 120.6 29.0222Z" fill="white"/>
<path fill-rule="evenodd" clip-rule="evenodd" d="M114.667 58.3674C115.467 58.3674 116.267 58.3713 117.066 58.3713C117.224 58.3713 117.421 58.2665 117.456 58.5614C112.173 58.542 106.89 58.6817 101.607 58.1772C103.167 58.1772 104.727 58.1772 106.288 58.1772C106.764 58.6196 107.32 58.2859 107.832 58.3557C108.257 58.4139 108.695 58.3674 109.128 58.3674C110.976 58.3674 112.823 58.3674 114.667 58.3674Z" fill="white"/>
<path fill-rule="evenodd" clip-rule="evenodd" d="M114.667 58.3674C112.803 58.3674 110.944 58.3674 109.084 58.3674C109.084 58.3053 109.084 58.2393 109.084 58.1772C110.948 58.1772 112.807 58.1772 114.667 58.1772C114.667 58.2393 114.667 58.3014 114.667 58.3674Z" fill="white"/>
<path fill-rule="evenodd" clip-rule="evenodd" d="M109.08 58.1772C109.08 58.2393 109.08 58.3053 109.08 58.3674C108.281 58.3674 107.481 58.3635 106.681 58.3635C106.523 58.3635 106.327 58.4682 106.287 58.1772C107.221 58.1772 108.151 58.1772 109.08 58.1772Z" fill="white"/>
<path d="M165.039 37.0618V31.3114H169.778V31.9866H165.91V33.7559H169.542V34.431H165.91V36.3905H169.932V37.0656H165.039V37.0618ZM159.259 36.3866H160.654C161.217 36.3866 161.643 36.3206 161.934 36.1887C162.226 36.0568 162.447 35.8434 162.604 35.5524C162.809 35.1605 162.915 34.6949 162.915 34.1478C162.915 33.5619 162.805 33.104 162.584 32.7703C162.364 32.4366 162.084 32.2116 161.737 32.0991C161.505 32.0215 161.139 31.9866 160.63 31.9866H159.259V36.3866ZM158.389 37.0618V31.3114H160.65C161.21 31.3114 161.635 31.3463 161.927 31.4162C162.309 31.5054 162.64 31.6761 162.919 31.9167C163.199 32.1612 163.416 32.4677 163.573 32.8363C163.731 33.2049 163.81 33.6472 163.81 34.1517C163.81 34.8035 163.676 35.3545 163.412 35.8085C163.148 36.2624 162.805 36.5845 162.388 36.7746C161.974 36.9647 161.426 37.0579 160.756 37.0579H158.389V37.0618ZM153.448 34.6988H155.694L155.005 33.1079C154.792 32.619 154.634 32.2232 154.536 31.9167C154.449 32.2853 154.331 32.6501 154.177 33.0148L153.448 34.6988ZM151.573 37.0618L154.102 31.3114H155.032L157.711 37.0618H156.718L155.966 35.3196H153.2L152.491 37.0618H151.573ZM146.534 36.3866H147.929C148.492 36.3866 148.918 36.3206 149.209 36.1887C149.501 36.0568 149.721 35.8434 149.879 35.5524C150.088 35.1605 150.19 34.6949 150.19 34.1478C150.19 33.5619 150.08 33.104 149.859 32.7703C149.639 32.4366 149.359 32.2116 149.012 32.0991C148.78 32.0215 148.413 31.9866 147.909 31.9866H146.538V36.3866H146.534ZM145.664 37.0618V31.3114H147.929C148.488 31.3114 148.914 31.3463 149.205 31.4162C149.588 31.5054 149.918 31.6761 150.198 31.9167C150.478 32.1612 150.695 32.4677 150.852 32.8363C151.01 33.2049 151.089 33.6472 151.089 34.1517C151.089 34.8035 150.955 35.3545 150.691 35.8085C150.427 36.2624 150.084 36.5845 149.67 36.7746C149.253 36.9647 148.709 37.0579 148.039 37.0579H145.664V37.0618ZM143.296 37.0618V31.3114H144.167V37.0618H143.296ZM136.725 35.2071L137.552 35.1527C137.595 35.467 137.694 35.7153 137.847 35.8938C138.001 36.0684 138.222 36.212 138.509 36.3206C138.797 36.4293 139.12 36.4797 139.478 36.4797C139.994 36.4797 140.396 36.3866 140.68 36.2081C140.964 36.0258 141.105 35.7891 141.105 35.5019C141.105 35.3312 141.054 35.1838 140.948 35.0557C140.845 34.9316 140.688 34.8268 140.479 34.7453C140.27 34.6638 139.817 34.5513 139.124 34.4039C138.505 34.2719 138.068 34.14 137.804 34.0081C137.54 33.8762 137.335 33.7054 137.193 33.4998C137.048 33.2942 136.973 33.0613 136.973 32.8053C136.973 32.3396 137.182 31.9594 137.599 31.6645C138.017 31.3696 138.58 31.2222 139.289 31.2222C139.778 31.2222 140.203 31.292 140.57 31.4278C140.936 31.5675 141.22 31.7654 141.421 32.0254C141.622 32.2853 141.728 32.588 141.744 32.9411L140.916 32.9954C140.873 32.6229 140.715 32.3435 140.447 32.165C140.18 31.9827 139.805 31.8934 139.321 31.8934C138.828 31.8934 138.454 31.971 138.194 32.1301C137.934 32.2892 137.808 32.491 137.808 32.7432C137.808 32.976 137.902 33.1583 138.092 33.2825C138.281 33.4106 138.706 33.5386 139.368 33.6705C140.014 33.7947 140.471 33.9072 140.735 34.0003C141.137 34.1478 141.436 34.3379 141.637 34.5785C141.838 34.819 141.941 35.1023 141.941 35.436C141.941 35.7658 141.83 36.0646 141.618 36.3362C141.405 36.6078 141.109 36.8134 140.743 36.9531C140.377 37.0928 139.931 37.1665 139.411 37.1665C138.6 37.1665 137.954 36.9919 137.473 36.6388C136.992 36.2818 136.744 35.8046 136.725 35.2071ZM131.272 33.849H133.135C133.545 33.849 133.852 33.8141 134.061 33.7442C134.27 33.6744 134.436 33.5619 134.562 33.4106C134.684 33.2592 134.747 33.0807 134.747 32.879C134.747 32.588 134.629 32.359 134.392 32.1922C134.156 32.0254 133.805 31.9439 133.34 31.9439H131.272V33.849ZM130.401 37.0618V31.3114H133.309C133.916 31.3114 134.365 31.3657 134.652 31.4705C134.94 31.5791 135.176 31.7576 135.365 32.006C135.55 32.2582 135.645 32.5453 135.645 32.8751C135.645 33.3097 135.487 33.6628 135.172 33.9305C134.857 34.1982 134.4 34.3689 133.801 34.4465C134.046 34.5513 134.231 34.6561 134.361 34.7608C134.617 34.982 134.845 35.2265 135.042 35.4942L136.185 37.0579H135.093L134.215 35.8628C133.876 35.3972 133.62 35.0829 133.447 34.916C133.273 34.7531 133.108 34.6444 132.946 34.5862C132.789 34.528 132.56 34.5009 132.273 34.5009H131.276V37.054H130.401V37.0618ZM124.311 37.0618V31.3114H129.05V31.9866H125.181V33.7559H128.814V34.431H125.181V36.3905H129.208V37.0656H124.311V37.0618ZM120.056 37.0618L117.519 31.3114H118.46L120.166 35.4903C120.296 35.8162 120.41 36.1266 120.509 36.4293C120.611 36.115 120.729 35.8046 120.859 35.4903L122.636 31.3114H123.523L120.954 37.0618H120.056ZM115.797 37.0618V31.3114H116.668V37.0618H115.797ZM108.989 37.0618V31.3114H109.884L113.327 35.8395V31.3114H114.154V37.0618H113.268L109.828 32.5414V37.0618H108.989ZM106.681 31.3114H107.551V34.6328C107.551 35.1915 107.476 35.6455 107.327 36.0025C107.177 36.3594 106.901 36.6427 106.503 36.8483C106.105 37.054 105.601 37.1588 104.987 37.1588C104.124 37.1588 103.478 36.9725 103.044 36.6039C102.615 36.2314 102.398 35.5718 102.398 34.6328V31.3114H103.269V34.6328C103.269 35.1527 103.324 35.5291 103.434 35.7619C103.549 35.9947 103.734 36.1732 103.99 36.2935C104.246 36.4177 104.557 36.4759 104.92 36.4759C105.538 36.4759 105.983 36.3478 106.259 36.0995C106.535 35.8473 106.673 35.3584 106.673 34.6328V31.3114H106.681Z" fill="white"/>
<path d="M164.991 43.9528C164.991 44.6629 165.208 45.21 165.638 45.6018C166.063 45.9937 166.587 46.1877 167.202 46.1877C167.828 46.1877 168.356 45.9899 168.781 45.598C169.207 45.2022 169.42 44.6202 169.42 43.8558C169.42 43.363 169.309 42.9207 169.093 42.5288C168.923 42.23 168.671 41.9933 168.332 41.8149C167.993 41.6364 167.623 41.5471 167.221 41.5471C166.575 41.5471 166.043 41.7411 165.626 42.1369C165.2 42.5249 164.991 43.1341 164.991 43.9528ZM164.109 43.945C164.109 42.9634 164.404 42.2106 164.995 41.6868C165.586 41.1591 166.323 40.8953 167.206 40.8953C167.777 40.8953 168.297 41.0117 168.766 41.2484C169.234 41.485 169.609 41.8265 169.885 42.2727C170.156 42.7189 170.294 43.2544 170.294 43.8713C170.294 44.7211 170.03 45.4156 169.498 45.9511C168.911 46.5408 168.147 46.8357 167.202 46.8357C166.248 46.8357 165.48 46.5331 164.901 45.9278C164.373 45.3846 164.109 44.7211 164.109 43.945ZM158.676 46.0675H160.051C160.603 46.0675 161.024 46.0015 161.312 45.8696C161.595 45.7377 161.82 45.5242 161.97 45.2332C162.175 44.8413 162.277 44.3757 162.277 43.8286C162.277 43.2427 162.171 42.7849 161.954 42.4512C161.737 42.1175 161.461 41.8925 161.119 41.7799C160.89 41.7023 160.528 41.6674 160.031 41.6674H158.68V46.0675H158.676ZM157.817 46.7426V40.9923H160.047C160.599 40.9923 161.016 41.0272 161.304 41.097C161.678 41.1863 162.005 41.357 162.281 41.5976C162.557 41.842 162.769 42.1485 162.927 42.5172C163.081 42.8896 163.159 43.3281 163.159 43.8364C163.159 44.4883 163.029 45.0392 162.766 45.4932C162.506 45.9472 162.171 46.2692 161.757 46.4594C161.347 46.6495 160.811 46.7426 160.15 46.7426H157.817ZM148.945 43.9528C148.945 44.6629 149.162 45.21 149.587 45.6018C150.013 45.9937 150.537 46.1877 151.151 46.1877C151.778 46.1877 152.306 45.9899 152.731 45.598C153.157 45.2022 153.369 44.6202 153.369 43.8558C153.369 43.363 153.259 42.9207 153.042 42.5288C152.873 42.23 152.621 41.9933 152.282 41.8149C151.943 41.6364 151.573 41.5471 151.171 41.5471C150.525 41.5471 149.993 41.7411 149.576 42.1369C149.154 42.5249 148.945 43.1341 148.945 43.9528ZM148.067 43.945C148.067 42.9634 148.362 42.2106 148.953 41.6868C149.544 41.1591 150.281 40.8953 151.163 40.8953C151.734 40.8953 152.254 41.0117 152.723 41.2484C153.192 41.485 153.566 41.8265 153.838 42.2727C154.11 42.7189 154.248 43.2544 154.248 43.8713C154.248 44.7211 153.98 45.4156 153.452 45.9511C152.869 46.5408 152.101 46.8357 151.155 46.8357C150.202 46.8357 149.434 46.5331 148.855 45.9278C148.331 45.3846 148.067 44.7211 148.067 43.945ZM142.63 46.0675H144.005C144.56 46.0675 144.978 46.0015 145.266 45.8696C145.553 45.7377 145.774 45.5242 145.923 45.2332C146.128 44.8413 146.231 44.3757 146.231 43.8286C146.231 43.2427 146.12 42.7849 145.904 42.4512C145.687 42.1175 145.411 41.8925 145.069 41.7799C144.84 41.7023 144.478 41.6674 143.981 41.6674H142.63V46.0675ZM141.775 46.7426V40.9923H144.005C144.552 40.9923 144.974 41.0272 145.262 41.097C145.636 41.1863 145.963 41.357 146.239 41.5976C146.514 41.842 146.727 42.1485 146.881 42.5172C147.034 42.8896 147.113 43.3281 147.113 43.8364C147.113 44.4883 146.983 45.0392 146.719 45.4932C146.459 45.9472 146.124 46.2692 145.711 46.4594C145.301 46.6495 144.765 46.7426 144.103 46.7426H141.775ZM136.909 44.3835H139.124L138.446 42.7888C138.237 42.2999 138.084 41.9041 137.985 41.5976C137.902 41.9662 137.784 42.3309 137.63 42.6956L136.909 44.3835ZM135.062 46.7426L137.552 40.9923H138.47L141.105 46.7426H140.128L139.384 45.0004H136.661L135.964 46.7426H135.062ZM132.576 46.7426V41.6674H130.452V40.9923H135.57V41.6674H133.435V46.7426H132.576ZM124.61 44.8879L125.425 44.8297C125.469 45.144 125.567 45.3923 125.717 45.5708C125.871 45.7493 126.087 45.889 126.367 45.9976C126.651 46.1063 126.97 46.1567 127.32 46.1567C127.829 46.1567 128.223 46.0675 128.502 45.8851C128.782 45.7027 128.924 45.466 128.924 45.1789C128.924 45.0082 128.873 44.8607 128.77 44.7327C128.668 44.6085 128.514 44.5038 128.309 44.4223C128.104 44.3408 127.659 44.2283 126.974 44.0808C126.367 43.9489 125.934 43.817 125.674 43.6851C125.417 43.5493 125.213 43.3824 125.071 43.1768C124.925 42.9711 124.854 42.7383 124.854 42.4822C124.854 42.0166 125.059 41.6364 125.473 41.3415C125.882 41.0466 126.438 40.8991 127.135 40.8991C127.616 40.8991 128.033 40.969 128.396 41.1087C128.754 41.2484 129.034 41.4462 129.235 41.7062C129.432 41.9662 129.538 42.2688 129.554 42.6219L128.739 42.6801C128.695 42.3076 128.542 42.0283 128.278 41.8498C128.014 41.6674 127.643 41.5782 127.167 41.5782C126.682 41.5782 126.312 41.6558 126.06 41.8149C125.804 41.9739 125.677 42.1757 125.677 42.4279C125.677 42.6607 125.772 42.8431 125.957 42.9711C126.142 43.0992 126.56 43.2272 127.214 43.3591C127.852 43.4833 128.301 43.5958 128.557 43.6889C128.951 43.8325 129.251 44.0265 129.448 44.2671C129.649 44.5077 129.747 44.7909 129.747 45.1246C129.747 45.4544 129.641 45.7532 129.428 46.0248C129.219 46.2964 128.928 46.502 128.565 46.6417C128.203 46.7814 127.766 46.8551 127.253 46.8551C126.454 46.8551 125.819 46.6805 125.347 46.3274C124.874 45.9627 124.63 45.4893 124.61 44.8879ZM118.901 46.7426V40.9923H123.566V41.6674H119.76V43.4367H123.337V44.1119H119.76V46.0713H123.719V46.7465H118.901V46.7426ZM109.994 43.9528C109.994 44.6629 110.21 45.21 110.636 45.6018C111.061 45.9937 111.585 46.1877 112.2 46.1877C112.826 46.1877 113.354 45.9899 113.78 45.598C114.205 45.2022 114.418 44.6202 114.418 43.8558C114.418 43.363 114.308 42.9207 114.091 42.5288C113.922 42.23 113.669 41.9933 113.331 41.8149C112.992 41.6364 112.621 41.5471 112.22 41.5471C111.573 41.5471 111.042 41.7411 110.624 42.1369C110.202 42.5249 109.994 43.1341 109.994 43.9528ZM109.115 43.945C109.115 42.9634 109.411 42.2106 110.002 41.6868C110.593 41.1591 111.329 40.8953 112.212 40.8953C112.783 40.8953 113.303 41.0117 113.772 41.2484C114.241 41.485 114.615 41.8265 114.891 42.2727C115.163 42.7189 115.3 43.2544 115.3 43.8713C115.3 44.7211 115.036 45.4156 114.505 45.9511C113.922 46.5408 113.157 46.8357 112.208 46.8357C111.254 46.8357 110.486 46.5331 109.907 45.9278C109.379 45.3846 109.115 44.7211 109.115 43.945ZM103.682 46.0675H105.057C105.613 46.0675 106.03 46.0015 106.318 45.8696C106.606 45.7377 106.826 45.5242 106.976 45.2332C107.181 44.8413 107.283 44.3757 107.283 43.8286C107.283 43.2427 107.173 42.7849 106.956 42.4512C106.74 42.1175 106.464 41.8925 106.121 41.7799C105.892 41.7023 105.53 41.6674 105.034 41.6674H103.682V46.0675ZM102.823 46.7426V40.9923H105.053C105.605 40.9923 106.022 41.0272 106.31 41.097C106.684 41.1863 107.011 41.357 107.287 41.5976C107.563 41.842 107.776 42.1485 107.929 42.5172C108.083 42.8896 108.162 43.3281 108.162 43.8364C108.162 44.4883 108.032 45.0392 107.768 45.4932C107.508 45.9472 107.173 46.2692 106.759 46.4594C106.349 46.6495 105.814 46.7426 105.152 46.7426H102.823Z" fill="white"/>
<path d="M165.024 53.9248L165.879 53.8704C165.922 54.1886 166.024 54.4331 166.186 54.6115C166.343 54.79 166.572 54.9297 166.867 55.0384C167.163 55.147 167.498 55.1974 167.868 55.1974C168.4 55.1974 168.814 55.1082 169.109 54.9258C169.405 54.7435 169.55 54.5107 169.55 54.2197C169.55 54.0489 169.495 53.9015 169.389 53.7734C169.282 53.6493 169.121 53.5445 168.904 53.463C168.687 53.3816 168.223 53.269 167.502 53.1216C166.863 52.9897 166.406 52.8577 166.139 52.7258C165.867 52.59 165.654 52.4232 165.504 52.2175C165.351 52.0119 165.276 51.7791 165.276 51.523C165.276 51.0574 165.492 50.6771 165.926 50.3822C166.359 50.0873 166.942 49.9399 167.671 49.9399C168.175 49.9399 168.617 50.0097 168.995 50.1455C169.373 50.2852 169.665 50.4831 169.873 50.7431C170.082 51.003 170.192 51.3057 170.208 51.6588L169.353 51.7131C169.31 51.3406 169.148 51.0612 168.869 50.8828C168.593 50.7043 168.203 50.6111 167.703 50.6111C167.194 50.6111 166.808 50.6888 166.54 50.8478C166.272 51.0069 166.139 51.2087 166.139 51.4609C166.139 51.6937 166.237 51.8761 166.434 52.0041C166.627 52.1322 167.068 52.2602 167.754 52.3921C168.424 52.5163 168.892 52.6288 169.164 52.7219C169.578 52.8655 169.889 53.0595 170.098 53.3001C170.307 53.5406 170.413 53.8239 170.413 54.1576C170.413 54.4874 170.303 54.7862 170.078 55.0578C169.858 55.3294 169.554 55.535 169.172 55.6747C168.79 55.8144 168.333 55.8881 167.793 55.8881C166.954 55.8881 166.288 55.7135 165.792 55.3604C165.299 54.9996 165.043 54.5262 165.024 53.9248ZM158.094 53.4204H160.414L159.705 51.8256C159.484 51.3367 159.323 50.941 159.22 50.6344C159.13 51.003 159.008 51.3678 158.85 51.7325L158.094 53.4204ZM156.151 55.7795L158.763 50.0291H159.725L162.49 55.7795H161.466L160.686 54.0373H157.826L157.093 55.7795H156.151ZM147.922 55.7795V50.0291H148.843L152.401 54.5533V50.0291H153.256V55.7795H152.338L148.784 51.263V55.7795H147.922ZM138.62 52.9897C138.62 53.6997 138.845 54.2468 139.294 54.6387C139.743 55.0306 140.29 55.2246 140.933 55.2246C141.59 55.2246 142.142 55.0267 142.591 54.631C143.036 54.2352 143.261 53.657 143.261 52.8888C143.261 52.396 143.147 51.9537 142.918 51.5618C142.741 51.263 142.477 51.0263 142.118 50.8478C141.764 50.6694 141.374 50.5801 140.952 50.5801C140.275 50.5801 139.715 50.7741 139.278 51.166C138.841 51.5618 138.62 52.171 138.62 52.9897ZM137.694 52.9819C137.694 52.0002 138.005 51.2475 138.624 50.7237C139.242 50.196 140.019 49.9321 140.944 49.9321C141.543 49.9321 142.087 50.0485 142.579 50.2852C143.072 50.5219 143.466 50.8634 143.753 51.3096C144.041 51.7558 144.187 52.2912 144.187 52.9082C144.187 53.7579 143.907 54.4525 143.351 54.9879C142.737 55.5777 141.933 55.8726 140.94 55.8726C139.94 55.8726 139.136 55.5699 138.525 54.9646C137.974 54.4175 137.694 53.7579 137.694 52.9819ZM128.999 55.7795V55.0772L132.478 51.3872C132.718 51.1311 132.955 50.9022 133.183 50.7043H129.377V50.0291H134.239V50.7043L130.437 54.7008L130.028 55.1043H134.357V55.7795H128.999ZM122.286 53.4204H124.607L123.893 51.8256C123.673 51.3367 123.511 50.941 123.409 50.6344C123.318 51.003 123.196 51.3678 123.039 51.7325L122.286 53.4204ZM120.348 55.7795L122.96 50.0291H123.921L126.687 55.7795H125.662L124.882 54.0373H122.022L121.289 55.7795H120.348ZM111.058 55.7795V50.0291H112.409L114.013 54.0994L114.336 54.9491C114.415 54.7357 114.533 54.4292 114.694 54.0257L116.317 50.0253H117.527V55.7756H116.66V50.941L114.69 55.7756H113.883L111.929 50.8595V55.7756H111.058V55.7795ZM103.852 53.4204H106.173L105.464 51.8256C105.243 51.3367 105.082 50.941 104.979 50.6344C104.889 51.003 104.766 51.3678 104.609 51.7325L103.852 53.4204ZM101.914 55.7795L104.526 50.0291H105.487L108.253 55.7795H107.229L106.449 54.0373H103.588L102.856 55.7795H101.914Z" fill="white"/>
<path d="M101 1.07373H106.5V13.7501C106.5 15.7173 106.571 17.0016 106.709 17.5992C106.949 18.6313 107.532 19.4267 108.458 19.9932C109.384 20.5558 110.601 20.8391 112.118 20.8391C113.398 20.8391 114.442 20.6373 115.258 20.2376C116.065 19.838 116.617 19.287 116.912 18.5808C117.216 17.8708 117.361 16.3498 117.361 14.0217V1.07373H122.861V13.3776C122.861 16.5205 122.621 18.7903 122.144 20.1911C121.664 21.5918 120.584 22.7287 118.906 23.5939C117.227 24.4631 115.013 24.8977 112.264 24.8977C109.403 24.8977 107.177 24.5368 105.57 23.819C103.971 23.1012 102.804 22.0885 102.083 20.7847C101.359 19.4771 101 17.0715 101 13.5677V1.07373Z" fill="white"/>
<path d="M125.544 24.4437V1.00781H145.817V4.96941H131.043V10.1416H144.793V14.0993H131.043V20.4821H146.329V24.4437H125.544Z" fill="white"/>
<path d="M160.879 15.1702L157.089 6.47097L153.378 15.1702H160.879ZM171 24.432H165.02L162.684 19.1318H151.684L149.423 24.432H143.552L154.182 1H160.068L171 24.432Z" fill="white"/>
</g>
<g clip-path="url(#clip1)">
<path fill-rule="evenodd" clip-rule="evenodd" d="M1.78564 0V39.3539H72.2189V0H1.78564ZM13.3922 31.0778V8.1451L32.0897 8.22602C30.1185 9.16228 29.3285 10.5493 28.8444 12.0481L18.4422 11.9826L18.3106 16.9914L28.1705 17.1494L28.1163 20.9484L18.3067 20.8713V26.9474L28.1666 26.8858C28.6856 28.2227 29.3943 29.2785 31.2842 30.9314L13.3922 31.0778ZM46.1671 28.793C42.6041 32.9041 29.4253 34.0754 28.7282 24.0462C34.2313 24.0115 32.8836 23.761 33.6194 25.2367C35.2421 28.4578 38.5765 28.4077 41.5275 27.4522C43.6575 26.7471 43.9519 24.8013 42.8985 23.4759C41.6321 21.8808 38.5765 22.3663 33.8324 20.6556C31.6598 19.885 30.3121 19.3302 29.5724 17.5347C25.2079 6.90061 45.8069 2.78953 46.9881 15.1189L42.4764 14.9995C41.361 12.4488 40.1566 11.5935 37.7749 11.5588C35.2653 11.4933 33.0734 12.784 33.7705 15.0804C33.8983 15.4503 33.9602 15.6198 34.2972 15.8856C36.28 17.4615 41.9303 17.8815 44.4592 19.1414C47.9408 20.8752 48.6998 25.857 46.1671 28.793ZM60.438 12.0481H53.6995V31.0739H48.7889V12.0481H47.6581C46.6628 9.29328 45.5629 8.92725 44.2772 8.1451H60.6046L60.438 12.0481Z" fill="white"/>
<path fill-rule="evenodd" clip-rule="evenodd" d="M10.681 49.7181V44.7093H14.4065V45.557H11.6995V46.6666H14.2168V47.5143H11.6995V48.8705H14.5033V49.7181H10.681ZM15.0184 48.6971L15.9905 48.5507C16.0331 48.7356 16.1144 48.8782 16.2422 48.9745C16.3661 49.0709 16.5443 49.1171 16.7689 49.1171C17.0206 49.1171 17.2065 49.0709 17.3343 48.9822C17.4195 48.9167 17.4621 48.832 17.4621 48.7241C17.4621 48.6509 17.4389 48.5931 17.3924 48.543C17.3459 48.4968 17.2375 48.4544 17.071 48.4159C16.2925 48.2425 15.7968 48.0884 15.5877 47.9458C15.2973 47.7493 15.154 47.4757 15.154 47.129C15.154 46.813 15.2779 46.5472 15.5296 46.3353C15.7813 46.1195 16.1647 46.0155 16.6876 46.0155C17.1871 46.0155 17.5589 46.0964 17.8029 46.2582C18.0469 46.42 18.2134 46.6628 18.3025 46.9787L17.3963 47.1482C17.3575 47.0057 17.2801 46.8978 17.1717 46.8207C17.0632 46.7437 16.9083 46.709 16.7031 46.709C16.4475 46.709 16.2654 46.7437 16.1531 46.8169C16.0795 46.867 16.0408 46.9325 16.0408 47.0095C16.0408 47.0789 16.0718 47.1367 16.1376 47.1829C16.2267 47.2484 16.5249 47.337 17.0439 47.4526C17.5589 47.5682 17.9191 47.7108 18.1243 47.8803C18.3257 48.0498 18.4264 48.2887 18.4264 48.5931C18.4264 48.9244 18.287 49.2134 18.0082 49.4523C17.7293 49.6912 17.3149 49.8106 16.765 49.8106C16.2693 49.8106 15.8743 49.7104 15.5838 49.5101C15.2973 49.3097 15.1075 49.04 15.0184 48.6971ZM22.4541 47.1637L21.5052 47.3293C21.4743 47.1405 21.4007 47.0018 21.2884 46.9055C21.1761 46.8092 21.0289 46.7629 20.8469 46.7629C20.6068 46.7629 20.4131 46.8439 20.2737 47.0134C20.1304 47.1791 20.0568 47.4565 20.0568 47.8418C20.0568 48.2733 20.1304 48.5777 20.2737 48.7549C20.4209 48.9321 20.6145 49.0208 20.8585 49.0208C21.0405 49.0208 21.1915 48.9668 21.3077 48.8628C21.4239 48.7588 21.5091 48.5815 21.5556 48.3272L22.5044 48.4891C22.4037 48.9244 22.2178 49.2519 21.939 49.4716C21.6601 49.695 21.2845 49.8029 20.8159 49.8029C20.2815 49.8029 19.8593 49.6372 19.5418 49.302C19.2242 48.9668 19.0654 48.5006 19.0654 47.9073C19.0654 47.3062 19.2242 46.84 19.5418 46.5048C19.8593 46.1696 20.2892 46.0039 20.8314 46.0039C21.2729 46.0039 21.6253 46.1002 21.8886 46.289C22.1481 46.4855 22.3379 46.7745 22.4541 47.1637ZM22.9614 47.8572C22.9614 47.5374 23.0388 47.2291 23.1976 46.9325C23.3564 46.6319 23.581 46.4046 23.8676 46.2467C24.158 46.0887 24.4795 46.0116 24.8358 46.0116C25.3857 46.0116 25.8388 46.1889 26.1912 46.5472C26.5436 46.9055 26.7179 47.3563 26.7179 47.9034C26.7179 48.4544 26.5398 48.909 26.1874 49.2712C25.8311 49.6334 25.3818 49.8145 24.8435 49.8145C24.5105 49.8145 24.1929 49.7374 23.887 49.5871C23.5849 49.4369 23.3525 49.2173 23.1937 48.9244C23.0388 48.6316 22.9614 48.2733 22.9614 47.8572ZM23.9489 47.9111C23.9489 48.2694 24.0341 48.5469 24.2045 48.7395C24.3788 48.9321 24.5879 49.0285 24.8396 49.0285C25.0914 49.0285 25.3005 48.9321 25.4709 48.7395C25.6413 48.5469 25.7265 48.2694 25.7265 47.9073C25.7265 47.5528 25.6413 47.2754 25.4709 47.0866C25.3005 46.8939 25.0914 46.7976 24.8396 46.7976C24.5879 46.7976 24.3788 46.8939 24.2045 47.0866C24.038 47.2715 23.9489 47.5489 23.9489 47.9111ZM27.4808 49.7181V44.7093H28.4452V49.7181H27.4808ZM30.1492 47.206L29.2778 47.0519C29.3746 46.6974 29.545 46.4354 29.7851 46.2659C30.0252 46.0964 30.3815 46.0116 30.8579 46.0116C31.2877 46.0116 31.6092 46.0617 31.8183 46.1619C32.0274 46.2621 32.1785 46.3931 32.2637 46.5472C32.3489 46.7051 32.3915 46.9903 32.3915 47.4064L32.3798 48.5276C32.3798 48.8435 32.3953 49.0824 32.4263 49.2327C32.4573 49.3829 32.5154 49.5448 32.5967 49.7181H31.6401C31.6169 49.6565 31.5859 49.564 31.5472 49.4369C31.5317 49.3791 31.5201 49.3406 31.5124 49.3251C31.3497 49.487 31.1716 49.6064 30.9857 49.6873C30.7959 49.7682 30.5984 49.8068 30.3854 49.8068C30.0136 49.8068 29.7154 49.7066 29.5024 49.5024C29.2855 49.302 29.1771 49.0439 29.1771 48.7356C29.1771 48.5314 29.2274 48.3504 29.3243 48.1885C29.4211 48.0306 29.5605 47.9073 29.7386 47.8186C29.9168 47.7339 30.1724 47.6607 30.5054 47.5952C30.9547 47.5104 31.2684 47.4295 31.4426 47.3601V47.2638C31.4426 47.075 31.3962 46.944 31.3071 46.8631C31.2141 46.7822 31.0399 46.7437 30.7882 46.7437C30.6139 46.7437 30.4822 46.7784 30.3854 46.8477C30.2847 46.9132 30.2072 47.0365 30.1492 47.206ZM31.4426 47.9843C31.3187 48.0229 31.1251 48.0729 30.8579 48.1307C30.5906 48.1885 30.4125 48.2425 30.3312 48.2964C30.2072 48.385 30.1414 48.4968 30.1414 48.6355C30.1414 48.7703 30.1918 48.8859 30.2924 48.9861C30.3931 49.0863 30.5209 49.1325 30.6758 49.1325C30.8501 49.1325 31.0166 49.0747 31.1754 48.963C31.2916 48.8744 31.3691 48.7703 31.4039 48.647C31.4271 48.5661 31.4388 48.4081 31.4388 48.177V47.9843H31.4426ZM35.0365 48.0961L36.0279 47.9997C36.086 48.3311 36.2061 48.57 36.3881 48.7279C36.5701 48.8821 36.8141 48.9591 37.1239 48.9591C37.4492 48.9591 37.6971 48.8898 37.8597 48.7549C38.0263 48.6162 38.1076 48.4544 38.1076 48.2733C38.1076 48.1539 38.0727 48.0537 38.003 47.9689C37.9333 47.888 37.8133 47.8148 37.639 47.7531C37.5189 47.7108 37.2517 47.6376 36.8296 47.5335C36.2874 47.3987 35.9079 47.233 35.6871 47.0365C35.3773 46.7629 35.2263 46.4239 35.2263 46.027C35.2263 45.7727 35.2999 45.53 35.4432 45.3104C35.5903 45.0869 35.7956 44.9174 36.0705 44.8018C36.3416 44.6862 36.6708 44.6284 37.0581 44.6284C37.6893 44.6284 38.1618 44.7671 38.4794 45.0445C38.7969 45.3219 38.9635 45.6957 38.979 46.158L37.9604 46.1927C37.9178 45.9346 37.8249 45.7496 37.6855 45.634C37.5422 45.5223 37.3292 45.4645 37.0465 45.4645C36.7521 45.4645 36.5237 45.5262 36.3571 45.6456C36.2526 45.7227 36.1983 45.8267 36.1983 45.9577C36.1983 46.0771 36.2487 46.1773 36.3494 46.2621C36.4772 46.3699 36.787 46.4817 37.2788 46.5973C37.7707 46.7129 38.1347 46.8362 38.3709 46.9556C38.6072 47.0789 38.7931 47.2484 38.9247 47.4642C39.0564 47.6799 39.1261 47.9458 39.1261 48.2617C39.1261 48.5469 39.0448 48.8166 38.886 49.067C38.7234 49.3174 38.4987 49.5024 38.2044 49.6257C37.9101 49.749 37.5461 49.8068 37.1084 49.8068C36.4733 49.8068 35.9853 49.6604 35.6407 49.3675C35.3037 49.0786 35.1024 48.6547 35.0365 48.0961ZM42.3986 49.7181V49.1749C42.2669 49.3675 42.0888 49.5216 41.8758 49.6372C41.6589 49.7528 41.4304 49.8068 41.1903 49.8068C40.9463 49.8068 40.7256 49.7528 40.528 49.6449C40.3344 49.5371 40.1911 49.3868 40.1059 49.1941C40.0168 49.0015 39.9743 48.7318 39.9743 48.3889V46.0848H40.9386V47.757C40.9386 48.2694 40.9579 48.5815 40.9928 48.6971C41.0276 48.8127 41.0935 48.9052 41.1864 48.9707C41.2794 49.0362 41.3994 49.0709 41.5466 49.0709C41.7131 49.0709 41.8603 49.0246 41.9919 48.936C42.1236 48.8474 42.2127 48.7356 42.2592 48.6008C42.3056 48.4659 42.3327 48.1384 42.3327 47.6183V46.0848H43.297V49.7143H42.3986V49.7181ZM44.2536 46.0887H45.1521V46.6204C45.2683 46.4393 45.427 46.2929 45.6246 46.1773C45.8221 46.0656 46.0467 46.0116 46.2868 46.0116C46.7089 46.0116 47.0691 46.1773 47.3634 46.5087C47.6577 46.84 47.8049 47.2985 47.8049 47.888C47.8049 48.4968 47.6577 48.9668 47.3595 49.302C47.0613 49.6372 46.7012 49.8068 46.279 49.8068C46.0777 49.8068 45.8956 49.7682 45.7291 49.6873C45.5665 49.6064 45.3922 49.4716 45.214 49.2789V51.0936H44.2497V46.0887H44.2536ZM45.2024 47.8456C45.2024 48.254 45.2838 48.5584 45.4464 48.7511C45.6091 48.9476 45.8066 49.0439 46.0389 49.0439C46.2635 49.0439 46.4494 48.9553 46.5966 48.7742C46.7438 48.5931 46.8212 48.3003 46.8212 47.8919C46.8212 47.5104 46.7438 47.2253 46.5927 47.0404C46.4417 46.8554 46.2481 46.7629 46.0234 46.7629C45.7872 46.7629 45.5936 46.8554 45.4387 47.0365C45.2799 47.2214 45.2024 47.4911 45.2024 47.8456ZM50.6823 48.57L51.6466 48.7318C51.5227 49.0824 51.3291 49.3483 51.0619 49.5332C50.7946 49.7143 50.4616 49.8068 50.0627 49.8068C49.4276 49.8068 48.959 49.6026 48.6569 49.1864C48.4168 48.8551 48.2967 48.439 48.2967 47.9342C48.2967 47.3332 48.4555 46.8593 48.7692 46.5202C49.0829 46.1773 49.4818 46.0078 49.9659 46.0078C50.5081 46.0078 50.9341 46.185 51.2477 46.5433C51.5614 46.9017 51.7125 47.4488 51.697 48.1847H49.2843C49.292 48.4698 49.3695 48.6894 49.5166 48.8474C49.6638 49.0054 49.8497 49.0863 50.0704 49.0863C50.2215 49.0863 50.3493 49.0439 50.45 48.963C50.5545 48.8859 50.632 48.7511 50.6823 48.57ZM50.7404 47.599C50.7327 47.3216 50.663 47.1059 50.5236 46.9633C50.388 46.8169 50.2215 46.7437 50.024 46.7437C49.8148 46.7437 49.6406 46.8207 49.5011 46.9749C49.3656 47.129 49.2959 47.337 49.2998 47.599H50.7404ZM53.4049 49.7181H52.4405V46.0887H53.3351V46.605C53.4901 46.3622 53.6256 46.2004 53.7495 46.1272C53.8735 46.0502 54.0129 46.0155 54.1678 46.0155C54.3885 46.0155 54.6015 46.0771 54.8029 46.1966L54.5047 47.0326C54.3421 46.9286 54.191 46.8747 54.0516 46.8747C53.9161 46.8747 53.7999 46.9132 53.7069 46.9864C53.614 47.0596 53.5404 47.1945 53.4862 47.3871C53.432 47.5798 53.4049 47.9882 53.4049 48.6046V49.7181ZM55.2212 45.5994V44.7093H56.1855V45.5994H55.2212ZM55.2212 49.7181V46.0887H56.1855V49.7181H55.2212ZM56.9484 47.8572C56.9484 47.5374 57.0259 47.2291 57.1846 46.9325C57.3434 46.6319 57.568 46.4046 57.8546 46.2467C58.1451 46.0887 58.4665 46.0116 58.8228 46.0116C59.3727 46.0116 59.8258 46.1889 60.1782 46.5472C60.5307 46.9055 60.7049 47.3563 60.7049 47.9034C60.7049 48.4544 60.5268 48.909 60.1705 49.2712C59.8142 49.6334 59.3688 49.8145 58.8267 49.8145C58.4936 49.8145 58.176 49.7374 57.8701 49.5871C57.568 49.4369 57.3357 49.2173 57.1769 48.9244C57.0297 48.6316 56.9484 48.2733 56.9484 47.8572ZM57.9398 47.9111C57.9398 48.2694 58.025 48.5469 58.1954 48.7395C58.3697 48.9321 58.5788 49.0285 58.8305 49.0285C59.0823 49.0285 59.2914 48.9321 59.4618 48.7395C59.6322 48.5469 59.7174 48.2694 59.7174 47.9073C59.7174 47.5528 59.6322 47.2754 59.4618 47.0866C59.2914 46.8939 59.0823 46.7976 58.8305 46.7976C58.5788 46.7976 58.3658 46.8939 58.1954 47.0866C58.025 47.2715 57.9398 47.5489 57.9398 47.9111ZM62.3896 49.7181H61.4253V46.0887H62.3199V46.605C62.4748 46.3622 62.6103 46.2004 62.7342 46.1272C62.8582 46.0502 62.9976 46.0155 63.1525 46.0155C63.3732 46.0155 63.5862 46.0771 63.7876 46.1966L63.4894 47.0326C63.3268 46.9286 63.1757 46.8747 63.0363 46.8747C62.9008 46.8747 62.7846 46.9132 62.6916 46.9864C62.5987 47.0596 62.5251 47.1945 62.4709 47.3871C62.4167 47.5798 62.3896 47.9882 62.3896 48.6046V49.7181ZM3.56291 57.5319H2.67218V57.0002C2.52502 57.2083 2.34687 57.3624 2.14162 57.4664C1.94023 57.5704 1.73498 57.6244 1.52585 57.6244C1.10373 57.6244 0.747436 57.4587 0.445363 57.1196C0.151036 56.7806 0 56.3105 0 55.7095C0 55.093 0.143291 54.6229 0.437618 54.3031C0.728072 53.9833 1.09598 53.8254 1.54134 53.8254C1.94798 53.8254 2.30427 53.9949 2.5986 54.3301V52.5231H3.56291V57.5319ZM0.991417 55.6478C0.991417 56.037 1.04564 56.3182 1.15407 56.4916C1.30898 56.742 1.52585 56.8692 1.80469 56.8692C2.02543 56.8692 2.2152 56.7729 2.37011 56.5879C2.52502 56.3991 2.60247 56.1179 2.60247 55.7441C2.60247 55.3242 2.52889 55.0236 2.37785 54.8387C2.22682 54.6538 2.03318 54.5613 1.80082 54.5613C1.57233 54.5613 1.37869 54.6538 1.22765 54.8349C1.06887 55.0121 0.991417 55.2856 0.991417 55.6478ZM6.62236 56.3837L7.58667 56.5455C7.46274 56.8962 7.2691 57.1659 7.00188 57.347C6.73467 57.528 6.40161 57.6205 6.00272 57.6205C5.36759 57.6205 4.89899 57.4163 4.59305 57.0002C4.35294 56.6688 4.23289 56.2527 4.23289 55.748C4.23289 55.1469 4.39167 54.673 4.70536 54.334C5.01905 53.9911 5.42181 53.8215 5.90203 53.8215C6.44421 53.8215 6.87021 53.9988 7.1839 54.3571C7.49759 54.7154 7.64863 55.2587 7.63314 55.9984H5.22043C5.22818 56.2836 5.30563 56.5032 5.45279 56.6611C5.59996 56.8191 5.78585 56.9 6.00659 56.9C6.15763 56.9 6.28543 56.8615 6.38612 56.7767C6.49068 56.6997 6.56814 56.5687 6.62236 56.3837ZM6.67657 55.4128C6.66883 55.1354 6.59912 54.9235 6.4597 54.7771C6.32028 54.6306 6.15763 54.5574 5.96012 54.5574C5.75099 54.5574 5.57672 54.6345 5.44118 54.7886C5.30176 54.9427 5.23592 55.1508 5.23979 55.4128H6.67657ZM11.5136 57.5319V53.3707H10.0226V52.5231H14.0193V53.3707H12.536V57.5319H11.5136ZM16.2577 56.3837C16.2035 56.5648 16.126 56.6958 16.0253 56.7767C15.9246 56.8576 15.7968 56.9 15.6458 56.9C15.4251 56.9 15.2392 56.8191 15.092 56.6611C14.9448 56.5032 14.8674 56.2797 14.8596 55.9984H17.2723C17.284 55.2625 17.1368 54.7154 16.8231 54.3571C16.5094 53.9988 16.0834 53.8215 15.5412 53.8215C15.061 53.8215 14.6583 53.9911 14.3446 54.334C14.027 54.673 13.8721 55.1469 13.8721 55.748C13.8721 56.2527 13.9921 56.6688 14.2323 57.0002C14.5343 57.4125 15.0068 57.6205 15.6381 57.6205C16.0369 57.6205 16.3739 57.528 16.6372 57.347C16.9044 57.162 17.0981 56.8962 17.222 56.5455L16.2577 56.3837ZM16.3158 55.4128H14.879C14.8751 55.1508 14.941 54.9427 15.0804 54.7886C15.2159 54.6345 15.3902 54.5574 15.5993 54.5574C15.7968 54.5574 15.9634 54.6306 16.0989 54.7771C16.2345 54.9235 16.308 55.1354 16.3158 55.4128ZM21.238 54.9774L20.2892 55.1431C20.2582 54.9543 20.1846 54.8156 20.0723 54.7193C19.96 54.6229 19.8129 54.5767 19.6308 54.5767C19.3907 54.5767 19.1971 54.6615 19.0538 54.8271C18.9105 54.9928 18.8408 55.2702 18.8408 55.6594C18.8408 56.0909 18.9144 56.3953 19.0577 56.5725C19.201 56.7498 19.3985 56.8384 19.6386 56.8384C19.8206 56.8384 19.9716 56.7844 20.0878 56.6804C20.204 56.5764 20.2853 56.3991 20.3357 56.1448L21.2845 56.3067C21.1877 56.7421 20.9979 57.0696 20.7191 57.2892C20.4402 57.5126 20.0685 57.6205 19.596 57.6205C19.0654 57.6205 18.6394 57.4548 18.3219 57.1196C18.0043 56.7844 17.8455 56.3182 17.8455 55.7249C17.8455 55.1238 18.0043 54.6576 18.3219 54.3224C18.6394 53.9872 19.0693 53.8215 19.6115 53.8215C20.0568 53.8215 20.4054 53.9178 20.6687 54.1066C20.9359 54.2993 21.1218 54.5883 21.238 54.9774ZM25.2889 57.5319H24.3246V55.6825C24.3246 55.2895 24.3013 55.0391 24.2626 54.9235C24.22 54.8079 24.1542 54.7193 24.0612 54.6538C23.9683 54.5921 23.856 54.5574 23.7243 54.5574C23.5578 54.5574 23.4067 54.6037 23.2712 54.6961C23.1356 54.7848 23.0466 54.9081 22.9962 55.0583C22.9459 55.2086 22.9226 55.486 22.9226 55.8944V57.5358H21.9583V53.9063H22.8491V54.438C23.1705 54.0296 23.5694 53.8292 24.0574 53.8292C24.2704 53.8292 24.4679 53.8678 24.6421 53.9448C24.8203 54.0219 24.952 54.1182 25.0449 54.2376C25.1378 54.3571 25.1998 54.4881 25.2347 54.6383C25.2695 54.7886 25.2889 55.0044 25.2889 55.2856V57.5319ZM26.0402 55.6709C26.0402 55.3511 26.1176 55.0429 26.2764 54.7462C26.4352 54.4457 26.6598 54.2184 26.9464 54.0604C27.2369 53.9024 27.5583 53.8254 27.9146 53.8254C28.4645 53.8254 28.9176 54.0026 29.27 54.3609C29.6225 54.7193 29.7967 55.1662 29.7967 55.7133C29.7967 56.2643 29.6186 56.7189 29.2623 57.0811C28.906 57.4433 28.4568 57.6244 27.9185 57.6244C27.5854 57.6244 27.2678 57.5473 26.9619 57.4009C26.6598 57.2506 26.4275 57.031 26.2687 56.7382C26.1176 56.4454 26.0402 56.0909 26.0402 55.6709ZM27.0316 55.7249C27.0316 56.0832 27.1168 56.3606 27.2872 56.5533C27.4615 56.7459 27.6706 56.8422 27.9223 56.8422C28.1741 56.8422 28.3832 56.7459 28.5536 56.5533C28.724 56.3606 28.8092 56.0832 28.8092 55.7172C28.8092 55.3627 28.724 55.0853 28.5536 54.8965C28.3832 54.7038 28.1741 54.6075 27.9223 54.6075C27.6706 54.6075 27.4576 54.7038 27.2872 54.8965C27.1168 55.0853 27.0316 55.3627 27.0316 55.7249ZM30.5597 57.5319V52.5231H31.524V57.5319H30.5597ZM32.2869 55.6709C32.2869 55.3511 32.3643 55.0429 32.5231 54.7462C32.6819 54.4457 32.9065 54.2184 33.197 54.0604C33.4874 53.9024 33.8089 53.8254 34.1652 53.8254C34.719 53.8254 35.1682 54.0026 35.5206 54.3609C35.873 54.7193 36.0512 55.1662 36.0512 55.7133C36.0512 56.2643 35.873 56.7189 35.5167 57.0811C35.1605 57.4433 34.7151 57.6244 34.1729 57.6244C33.8399 57.6244 33.5184 57.5473 33.2163 57.4009C32.9143 57.2506 32.6819 57.031 32.5231 56.7382C32.3643 56.4454 32.2869 56.0909 32.2869 55.6709ZM33.2783 55.7249C33.2783 56.0832 33.3635 56.3606 33.5339 56.5533C33.7082 56.7459 33.9173 56.8422 34.169 56.8422C34.4208 56.8422 34.6299 56.7459 34.8003 56.5533C34.9707 56.3606 35.0559 56.0832 35.0559 55.7172C35.0559 55.3627 34.9707 55.0853 34.8003 54.8965C34.6299 54.7038 34.4208 54.6075 34.169 54.6075C33.9173 54.6075 33.7043 54.7038 33.5339 54.8965C33.3635 55.0853 33.2783 55.3627 33.2783 55.7249ZM36.7134 57.7631L37.8171 57.8941C37.8365 58.0251 37.8791 58.1137 37.9449 58.1638C38.0379 58.2331 38.1812 58.2678 38.3787 58.2678C38.6304 58.2678 38.8202 58.2293 38.9441 58.1561C39.0293 58.106 39.0913 58.0251 39.1377 57.9133C39.1687 57.8324 39.1842 57.686 39.1842 57.4741L39.1881 56.9424C38.8976 57.3354 38.5336 57.5358 38.0921 57.5358C37.6041 57.5358 37.213 57.3315 36.9264 56.9193C36.7018 56.5918 36.5895 56.1872 36.5895 55.7056C36.5895 55.0968 36.7367 54.6345 37.031 54.3147C37.3253 53.9949 37.6932 53.8331 38.1308 53.8331C38.5839 53.8331 38.9557 54.0296 39.2462 54.4226V53.9101H40.1446V57.1659C40.1446 57.5935 40.1098 57.9133 40.0362 58.1253C39.9665 58.3372 39.8658 58.5028 39.738 58.6223C39.6102 58.7417 39.4398 58.8381 39.2268 58.9036C39.0099 58.9729 38.7427 59.0076 38.4135 59.0076C37.7939 59.0076 37.3563 58.8997 37.0968 58.6916C36.8373 58.4797 36.7095 58.2139 36.7095 57.8864C36.7134 57.8478 36.7134 57.8093 36.7134 57.7631ZM37.5809 55.644C37.5809 56.0293 37.6545 56.3105 37.8055 56.4878C37.9566 56.665 38.1386 56.7575 38.3593 56.7575C38.5917 56.7575 38.7931 56.665 38.9557 56.4839C39.1184 56.3028 39.1997 56.0293 39.1997 55.6709C39.1997 55.2972 39.1223 55.0159 38.9673 54.8349C38.8124 54.6538 38.6149 54.5613 38.3787 54.5613C38.1463 54.5613 37.9566 54.6499 37.8055 54.831C37.6545 55.0044 37.5809 55.2779 37.5809 55.644ZM41.1012 53.4131V52.5231H42.0655V53.4131H41.1012ZM41.1012 57.5319V53.9024H42.0655V57.5319H41.1012ZM43.7734 55.0198L42.902 54.8657C42.9988 54.5112 43.1692 54.2492 43.4094 54.0797C43.6495 53.9101 44.0058 53.8254 44.4782 53.8254C44.9081 53.8254 45.2295 53.8755 45.4425 53.9756C45.6517 54.0758 45.8027 54.2068 45.8879 54.3609C45.9731 54.5189 46.0157 54.804 46.0157 55.2201L46.0041 56.3413C46.0041 56.6611 46.0196 56.8962 46.0506 57.0464C46.0815 57.1967 46.1396 57.3585 46.221 57.5319H45.2644C45.2412 57.4703 45.2102 57.3778 45.1714 57.2506C45.156 57.1928 45.1443 57.1543 45.1366 57.1389C44.9739 57.3007 44.7958 57.4202 44.6099 57.5011C44.424 57.582 44.2226 57.6205 44.0096 57.6205C43.6378 57.6205 43.3396 57.5203 43.1266 57.3161C42.9098 57.1158 42.8013 56.8576 42.8013 56.5455C42.8013 56.3413 42.8517 56.1603 42.9485 55.9984C43.0453 55.8405 43.1847 55.7172 43.3629 55.6324C43.541 55.5476 43.7966 55.4706 44.1297 55.4089C44.5789 55.3242 44.8926 55.2433 45.0669 55.1739V55.0776C45.0669 54.8926 45.0204 54.7578 44.9313 54.6769C44.8384 54.596 44.668 54.5574 44.4124 54.5574C44.2381 54.5574 44.1064 54.5921 44.0096 54.6615C43.9089 54.7308 43.8315 54.8503 43.7734 55.0198ZM45.063 55.7981C44.9391 55.8405 44.7454 55.8867 44.4744 55.9445C44.2071 56.0023 44.0329 56.0562 43.9515 56.1102C43.8276 56.1988 43.7618 56.3105 43.7618 56.4492C43.7618 56.5841 43.8121 56.6997 43.9128 56.796C44.0135 56.8962 44.1413 56.9424 44.2962 56.9424C44.4705 56.9424 44.637 56.8846 44.7958 56.7729C44.912 56.6843 44.9894 56.5802 45.0243 56.4569C45.0475 56.376 45.0591 56.2181 45.0591 55.9869V55.7981H45.063ZM52.2663 57.5319H51.3717V57.0002C51.2245 57.2083 51.0464 57.3624 50.845 57.4664C50.6436 57.5704 50.4383 57.6244 50.2292 57.6244C49.8071 57.6244 49.4469 57.4587 49.1487 57.1196C48.8505 56.7806 48.6995 56.3144 48.6995 55.7133C48.6995 55.0968 48.8467 54.6268 49.1371 54.307C49.4314 53.9872 49.7955 53.8292 50.2408 53.8292C50.6475 53.8292 51.0038 53.9988 51.302 54.334V52.5269H52.2663V57.5319ZM49.6909 55.6478C49.6909 56.037 49.7451 56.3182 49.8497 56.4916C50.0046 56.742 50.2215 56.8692 50.5003 56.8692C50.7211 56.8692 50.9108 56.7729 51.0657 56.5879C51.2206 56.3991 51.2981 56.1179 51.2981 55.7441C51.2981 55.3242 51.2245 55.0236 51.0735 54.8387C50.9224 54.6538 50.7288 54.5613 50.4926 54.5613C50.2641 54.5613 50.0743 54.6538 49.9194 54.8349C49.7684 55.0121 49.6909 55.2856 49.6909 55.6478ZM53.9315 55.0198L53.0602 54.8657C53.157 54.5112 53.3274 54.2492 53.5675 54.0797C53.8076 53.9101 54.1639 53.8254 54.6364 53.8254C55.0663 53.8254 55.3877 53.8755 55.6007 53.9756C55.8098 54.0758 55.9609 54.2068 56.0461 54.3609C56.1313 54.5189 56.1739 54.804 56.1739 55.2201L56.1622 56.3413C56.1622 56.6611 56.1777 56.8962 56.2087 57.0464C56.2397 57.1967 56.2978 57.3585 56.3791 57.5319H55.4225C55.3993 57.4703 55.3683 57.3778 55.3296 57.2506C55.3141 57.1928 55.3025 57.1543 55.2947 57.1389C55.1321 57.3007 54.9539 57.4202 54.7681 57.5011C54.5822 57.582 54.3808 57.6205 54.1678 57.6205C53.796 57.6205 53.4978 57.5203 53.2848 57.3161C53.0679 57.1158 52.9595 56.8576 52.9595 56.5455C52.9595 56.3413 53.0098 56.1603 53.1067 55.9984C53.2035 55.8405 53.3429 55.7172 53.521 55.6324C53.6992 55.5476 53.9548 55.4706 54.2878 55.4089C54.7371 55.3242 55.0508 55.2433 55.225 55.1739V55.0776C55.225 54.8926 55.1786 54.7578 55.0895 54.6769C54.9965 54.596 54.8223 54.5574 54.5705 54.5574C54.3963 54.5574 54.2646 54.5921 54.1678 54.6615C54.0671 54.7308 53.9896 54.8503 53.9315 55.0198ZM55.2212 55.7981C55.0972 55.8405 54.9036 55.8867 54.6325 55.9445C54.3653 56.0023 54.191 56.0562 54.1097 56.1102C53.9858 56.1988 53.9199 56.3105 53.9199 56.4492C53.9199 56.5841 53.9703 56.6997 54.071 56.796C54.1716 56.8962 54.2995 56.9424 54.4544 56.9424C54.6286 56.9424 54.7952 56.8846 54.9539 56.7729C55.0701 56.6843 55.1476 56.5802 55.1824 56.4569C55.2057 56.376 55.2173 56.2181 55.2173 55.9869V55.7981H55.2212ZM59.2062 52.5231H60.2247V55.2356C60.2247 55.6671 60.2363 55.9445 60.2634 56.0716C60.306 56.2758 60.4067 56.4415 60.5694 56.5648C60.732 56.6881 60.9528 56.7536 61.2355 56.7536C61.5182 56.7536 61.7351 56.6958 61.8822 56.5764C62.0294 56.4569 62.1146 56.3144 62.1417 56.1448C62.1727 55.9715 62.1882 55.6902 62.1882 55.2933V52.5231H63.2067V55.1585C63.2067 55.7596 63.1796 56.1834 63.1254 56.4338C63.0712 56.6843 62.9705 56.8923 62.8233 57.0618C62.6762 57.2352 62.4786 57.3701 62.2347 57.4703C61.9868 57.5704 61.6654 57.6205 61.2704 57.6205C60.7901 57.6205 60.4261 57.5666 60.1782 57.4548C59.9304 57.3431 59.7368 57.2006 59.5896 57.0233C59.4463 56.8461 59.3534 56.6611 59.3069 56.4685C59.241 56.1834 59.2101 55.7557 59.2101 55.197V52.5231H59.2062ZM64.5312 57.5319V52.5231H68.2567V53.3707H65.5497V54.4804H68.067V55.328H65.5497V56.6843H68.3536V57.5319H64.5312ZM74 57.5319H72.904L72.4703 56.3914H70.4526L70.0343 57.5319H68.9577L70.9134 52.5231H71.9901L74 57.5319ZM72.1411 55.5438L71.4401 53.6905L70.7624 55.5438H72.1411Z" fill="white"/>
</g>
<defs>
<clipPath id="clip0">
<rect width="70" height="58" fill="white" transform="translate(101 1)"/>
</clipPath>
<clipPath id="clip1">
<rect width="74" height="59" fill="white"/>
</clipPath>
</defs>
</svg>
