<svg width="29" height="27" viewBox="0 0 29 27" fill="none" xmlns="http://www.w3.org/2000/svg">
<path d="M14.5 0C12.5958 0 10.7103 0.357857 8.95109 1.05314C7.19187 1.74842 5.5934 2.76751 4.24695 4.05223C1.52767 6.64682 0 10.1659 0 13.8352C0 19.9503 4.1615 25.1385 9.918 26.9786C10.643 27.0893 10.875 26.6604 10.875 26.2868C10.875 25.9686 10.875 25.097 10.875 23.9487C6.8585 24.7788 6.003 22.0948 6.003 22.0948C5.336 20.4899 4.3935 20.061 4.3935 20.061C3.074 19.2032 4.495 19.2309 4.495 19.2309C5.945 19.3277 6.7135 20.6559 6.7135 20.6559C7.975 22.7588 10.1065 22.1363 10.933 21.8042C11.0635 20.9049 11.4405 20.2962 11.8465 19.9503C8.6275 19.6044 5.249 18.4146 5.249 13.1434C5.249 11.6077 5.8 10.3764 6.7425 9.39408C6.5975 9.0482 6.09 7.60934 6.8875 5.74159C6.8875 5.74159 8.1055 5.36804 10.875 7.15278C12.0205 6.84841 13.2675 6.69622 14.5 6.69622C15.7325 6.69622 16.9795 6.84841 18.125 7.15278C20.8945 5.36804 22.1125 5.74159 22.1125 5.74159C22.91 7.60934 22.4025 9.0482 22.2575 9.39408C23.2 10.3764 23.751 11.6077 23.751 13.1434C23.751 18.4284 20.358 19.5906 17.1245 19.9365C17.6465 20.3654 18.125 21.2093 18.125 22.496C18.125 24.3499 18.125 25.8441 18.125 26.2868C18.125 26.6604 18.357 27.1031 19.0965 26.9786C24.853 25.1247 29 19.9503 29 13.8352C29 12.0183 28.6249 10.2192 27.8963 8.54068C27.1676 6.86212 26.0995 5.33694 24.753 4.05223C23.4066 2.76751 21.8081 1.74842 20.0489 1.05314C18.2897 0.357857 16.4042 0 14.5 0Z" fill="white"/>
</svg>
