<svg width="81" height="80" viewBox="0 0 81 80" fill="none" xmlns="http://www.w3.org/2000/svg">
<rect width="81" height="80" rx="5" fill="#3A3A3A"/>
<path d="M48.4286 45.2571L59 55.8286L55.8286 59L45.2571 48.4286V46.7583L44.6863 46.1663C42.276 48.2383 39.1469 49.4857 35.7429 49.4857C32.098 49.4857 28.6025 48.0378 26.0252 45.4605C23.4479 42.8832 22 39.3877 22 35.7429C22 32.098 23.4479 28.6025 26.0252 26.0252C28.6025 23.4479 32.098 22 35.7429 22C39.3877 22 42.8832 23.4479 45.4605 26.0252C48.0378 28.6025 49.4857 32.098 49.4857 35.7429C49.4857 39.1469 48.2383 42.276 46.1663 44.6863L46.7583 45.2571H48.4286ZM35.7429 25.1714L34.58 25.2349C34.0726 26.3343 33.2903 28.1949 32.7194 30.4571H38.7663C38.1954 28.1949 37.4131 26.3343 36.9057 25.2349C36.5251 25.1714 36.1446 25.1714 35.7429 25.1714ZM44.8977 30.4571C43.6503 28.2794 41.6417 26.588 39.2314 25.7634C39.7389 26.884 40.3943 28.512 40.8806 30.4571H44.8977ZM26.588 30.4571H30.6051C31.0914 28.512 31.7469 26.884 32.2543 25.7634C29.844 26.588 27.8354 28.2794 26.588 30.4571ZM25.1714 35.7429C25.1714 36.8 25.3406 37.9206 25.6577 38.9143H30.1823L29.9286 35.7429L30.1823 32.5714H25.6577C25.3406 33.5651 25.1714 34.6857 25.1714 35.7429ZM45.828 38.9143C46.1451 37.9206 46.3143 36.8 46.3143 35.7429C46.3143 34.6857 46.1451 33.5651 45.828 32.5714H41.3034C41.4726 33.6286 41.5571 34.6857 41.5571 35.7429C41.5571 36.8 41.4726 37.8571 41.3034 38.9143H45.828ZM32.2966 32.5714L32.0429 35.7429L32.2966 38.9143H39.1891C39.3583 37.8571 39.4429 36.8 39.4429 35.7429C39.4429 34.6857 39.3583 33.6286 39.1891 32.5714H32.2966ZM35.7429 46.3143C36.1234 46.3143 36.504 46.3143 36.8634 46.2509C37.392 45.1514 38.1954 43.2909 38.7663 41.0286H32.7194C33.2903 43.2909 34.0937 45.1514 34.6223 46.2509L35.7429 46.3143ZM44.8977 41.0286H40.8806C40.3943 42.9737 39.7389 44.6017 39.2314 45.7223C41.6417 44.8977 43.6503 43.2063 44.8977 41.0286ZM26.588 41.0286C27.8354 43.2063 29.844 44.8977 32.2543 45.7223C31.7469 44.6017 31.0914 42.9737 30.6051 41.0286H26.588Z" fill="white"/>
</svg>
