<svg width="347" height="50" viewBox="0 0 347 50" fill="none" xmlns="http://www.w3.org/2000/svg">
<path d="M98.9776 36.7665C98.2775 40.848 93.4675 42.8107 92.6094 43.1229C93.4675 43.4351 98.2775 45.3532 98.9776 49.4569C99.7002 45.3978 104.555 43.4351 105.413 43.1229C104.555 42.8107 99.7002 40.8926 98.9776 36.7665C99.0001 36.7219 99.0679 36.7219 98.9776 36.7665Z" fill="white"/>
<path d="M117.495 36.7665C116.795 40.848 111.985 42.8107 111.127 43.1229C111.985 43.4352 116.795 45.3532 117.495 49.457C118.195 45.3978 123.05 43.4352 123.909 43.1229C123.05 42.8107 118.195 40.8926 117.495 36.7665Z" fill="white"/>
<path d="M136.012 36.7665C135.312 40.848 130.502 42.8107 129.644 43.1229C130.502 43.4352 135.312 45.3532 136.012 49.457C136.012 49.457 136.013 49.457 136.125 49.457C136.825 45.3978 141.681 43.4352 142.539 43.1229C141.681 42.8107 136.825 40.8926 136.125 36.7665H136.012Z" fill="white"/>
<path d="M154.643 36.7665C153.943 40.848 149.11 42.8107 148.252 43.1229C149.11 43.4351 153.943 45.3532 154.643 49.4569C155.343 45.3978 160.198 43.4351 161.079 43.1229C160.198 42.8107 155.343 40.8926 154.643 36.7665C154.643 36.7219 154.643 36.7219 154.643 36.7665Z" fill="white"/>
<path d="M173.07 36.7665C172.37 40.848 167.537 42.8107 166.702 43.1229C167.56 43.4351 172.37 45.3532 173.07 49.4569C173.77 45.3978 178.625 43.4351 179.506 43.1229C178.625 42.8107 173.77 40.8926 173.07 36.7665C173.07 36.7219 173.16 36.7219 173.07 36.7665Z" fill="white"/>
<path d="M191.587 36.7665C190.887 40.848 186.077 42.8107 185.219 43.1229C186.077 43.4351 190.887 45.3532 191.587 49.4569C192.287 45.3978 197.165 43.4351 198.023 43.1229C197.165 42.8107 192.287 40.8926 191.587 36.7665C191.587 36.7219 191.678 36.7219 191.587 36.7665Z" fill="white"/>
<path d="M210.105 36.7665C209.405 40.848 204.595 42.8107 203.737 43.1229C204.595 43.4351 209.405 45.3532 210.105 49.4569C210.827 45.3978 215.683 43.4351 216.541 43.1229C215.683 42.8107 210.827 40.8926 210.105 36.7665C210.127 36.7219 210.195 36.7219 210.105 36.7665Z" fill="white"/>
<path d="M228.622 36.7665C227.922 40.848 223.112 42.8107 222.254 43.1229C223.112 43.4352 227.922 45.3532 228.622 49.457C228.622 49.457 228.622 49.457 228.735 49.457C229.435 45.3978 234.29 43.4352 235.148 43.1229C234.29 42.8107 229.435 40.8926 228.735 36.7665H228.622Z" fill="white"/>
<path d="M247.23 36.7665C246.53 40.848 241.697 42.8107 240.839 43.1229C241.697 43.4351 246.53 45.3532 247.23 49.4569C247.93 45.3978 252.785 43.4351 253.643 43.1229C252.785 42.8107 247.93 40.8926 247.23 36.7665C247.23 36.7219 247.23 36.7219 247.23 36.7665Z" fill="white"/>
<path d="M265.68 36.7665C264.98 40.848 260.147 42.8107 259.289 43.1229C260.147 43.4351 264.98 45.3532 265.68 49.4569C266.38 45.3978 271.235 43.4351 272.116 43.1229C271.235 42.8107 266.38 40.8926 265.68 36.7665C265.68 36.7219 265.77 36.7219 265.68 36.7665Z" fill="white"/>
<path d="M6.36818 36.7665C5.60039 40.9594 0.858124 42.8106 0 43.1897C0.858124 43.502 5.66813 45.42 6.36818 49.5238C7.09081 45.4646 11.946 43.502 12.8041 43.1897C11.946 42.8775 7.09081 40.9594 6.36818 36.8334C6.45851 36.7218 6.39076 36.7218 6.36818 36.7665Z" fill="white"/>
<path d="M24.8855 36.7665C24.1855 40.848 19.3755 42.8107 18.5173 43.1229C19.3755 43.4352 24.1855 45.3532 24.8855 49.457C25.5855 45.3978 30.4407 43.4352 31.2988 43.1229C30.4407 42.8107 25.5855 40.8926 24.8855 36.7665Z" fill="white"/>
<path d="M43.4252 36.7665C42.7026 40.848 37.8925 42.8107 37.0344 43.1229C37.8925 43.4351 42.7026 45.3532 43.4252 49.4569C44.1252 45.3978 48.9804 43.4351 49.8385 43.1229C48.9804 42.8107 44.1252 40.8926 43.4252 36.7665C43.4252 36.7219 43.4929 36.7219 43.4252 36.7665Z" fill="white"/>
<path d="M62.0558 36.7665C61.3558 40.848 56.5232 42.8107 55.665 43.1229C56.5232 43.4351 61.3558 45.3532 62.0558 49.4569C62.7559 45.3978 67.611 43.4351 68.4917 43.1229C67.611 42.8107 62.7559 40.8926 62.0558 36.7665C62.0558 36.7219 62.0558 36.7219 62.0558 36.7665Z" fill="white"/>
<path d="M80.4605 36.7665C79.7604 40.848 74.9504 42.8107 74.0923 43.1229C74.9504 43.4351 79.7604 45.3532 80.4605 49.4569C81.1605 45.3978 86.0157 43.4351 86.8964 43.1229C86.0157 42.8107 81.1605 40.8926 80.4605 36.7665C80.4605 36.7219 80.5508 36.7219 80.4605 36.7665Z" fill="white"/>
<path d="M98.9776 18.4111C98.2775 22.4702 93.4675 24.4329 92.6094 24.7452C93.4675 25.0574 98.2775 26.9755 98.9776 31.0792C99.7002 26.9978 104.555 25.0574 105.413 24.7452C104.555 24.4329 99.7002 22.5149 98.9776 18.4111C99.0001 18.3442 99.0679 18.3442 98.9776 18.4111Z" fill="white"/>
<path d="M117.495 18.4111C116.795 22.4702 111.985 24.4329 111.127 24.7452C111.985 25.0574 116.795 26.9755 117.495 31.0792C118.195 26.9978 123.05 25.0574 123.909 24.7452C123.05 24.4329 118.195 22.5149 117.495 18.4111C117.518 18.3442 117.585 18.3442 117.495 18.4111Z" fill="white"/>
<path d="M136.012 18.4111C135.312 22.4702 130.502 24.4329 129.644 24.7452C130.502 25.0574 135.312 26.9755 136.012 31.0792H136.125C136.825 26.9978 141.681 25.0574 142.539 24.7452C141.681 24.4329 136.825 22.5149 136.125 18.4111C136.103 18.3442 136.035 18.3442 136.012 18.4111Z" fill="white"/>
<path d="M154.643 18.4111C153.943 22.4702 149.11 24.4329 148.252 24.7452C149.11 25.0574 153.943 26.9755 154.643 31.0792C155.343 26.9978 160.198 25.0574 161.079 24.7452C160.198 24.4329 155.343 22.5149 154.643 18.4111C154.643 18.3442 154.643 18.3442 154.643 18.4111Z" fill="white"/>
<path d="M173.07 18.4113C172.37 22.4704 167.537 24.4331 166.702 24.7453C167.56 25.0575 172.37 26.9756 173.07 31.0793C173.77 26.9979 178.625 25.0575 179.506 24.7453C178.625 24.4331 173.77 22.515 173.07 18.4113Z" fill="white"/>
<path d="M191.587 18.4113C190.887 22.4704 186.077 24.4331 185.219 24.7453C186.077 25.0575 190.887 26.9756 191.587 31.0793C192.287 26.9979 197.165 25.0575 198.023 24.7453C197.165 24.4331 192.287 22.515 191.587 18.4113Z" fill="white"/>
<path d="M210.105 18.4111C209.405 22.4702 204.595 24.4329 203.737 24.7452C204.595 25.0574 209.405 26.9755 210.105 31.0792C210.827 26.9978 215.683 25.0574 216.541 24.7452C215.683 24.4329 210.827 22.5149 210.105 18.4111C210.127 18.3442 210.195 18.3442 210.105 18.4111Z" fill="white"/>
<path d="M228.622 18.4111C227.922 22.4702 223.112 24.4329 222.254 24.7452C223.112 25.0574 227.922 26.9755 228.622 31.0792H228.735C229.435 26.9978 234.29 25.0574 235.148 24.7452C234.29 24.4329 229.435 22.5149 228.735 18.4111C228.712 18.3442 228.644 18.3442 228.622 18.4111Z" fill="white"/>
<path d="M247.23 18.4111C246.53 22.4702 241.697 24.4329 240.839 24.7452C241.697 25.0574 246.53 26.9755 247.23 31.0792C247.93 26.9978 252.785 25.0574 253.643 24.7452C252.785 24.4329 247.93 22.5149 247.23 18.4111C247.23 18.3442 247.23 18.3442 247.23 18.4111Z" fill="white"/>
<path d="M265.68 18.4113C264.98 22.4704 260.147 24.4331 259.289 24.7453C260.147 25.0575 264.98 26.9756 265.68 31.0793C266.38 26.9979 271.235 25.0575 272.116 24.7453C271.235 24.4331 266.38 22.515 265.68 18.4113Z" fill="white"/>
<path d="M6.36818 18.4111C5.66813 22.4702 0.858124 24.4329 0 24.7452C0.858124 25.0574 5.66813 26.9755 6.36818 31.0792C7.09081 26.9978 11.946 25.0574 12.8041 24.7452C11.946 24.4329 7.09081 22.5149 6.36818 18.4111C6.39076 18.3442 6.45851 18.3442 6.36818 18.4111Z" fill="white"/>
<path d="M24.8855 18.4111C24.1855 22.4702 19.3755 24.4329 18.5173 24.7452C19.3755 25.0574 24.1855 26.9755 24.8855 31.0792C25.5855 26.9978 30.4407 25.0574 31.2988 24.7452C30.4407 24.4329 25.5855 22.5149 24.8855 18.4111C24.9081 18.3442 24.9758 18.3442 24.8855 18.4111Z" fill="white"/>
<path d="M43.4252 18.4111C42.7026 22.4702 37.8925 24.4329 37.0344 24.7452C37.8925 25.0574 42.7026 26.9755 43.4252 31.0792C44.1252 26.9978 48.9804 25.0574 49.8385 24.7452C48.9804 24.4329 44.1252 22.5149 43.4252 18.4111C43.4252 18.3442 43.4929 18.3442 43.4252 18.4111Z" fill="white"/>
<path d="M62.0558 18.4113C61.3558 22.4704 56.5232 24.4331 55.665 24.7453C56.5232 25.0575 61.3558 26.9756 62.0558 31.0793C62.7559 26.9979 67.611 25.0575 68.4917 24.7453C67.611 24.4331 62.7559 22.515 62.0558 18.4113Z" fill="white"/>
<path d="M80.4605 18.4113C79.7604 22.4704 74.9504 24.4331 74.0923 24.7453C74.9504 25.0575 79.7604 26.9756 80.4605 31.0793C81.1605 26.9979 86.0157 25.0575 86.8964 24.7453C86.0157 24.4331 81.1605 22.515 80.4605 18.4113Z" fill="white"/>
<path d="M98.9776 0.0334547C98.2775 4.11493 93.4675 6.07762 92.6094 6.38986C93.4675 6.7021 98.2775 8.62016 98.9776 12.7239C99.7002 8.66477 104.555 6.7021 105.413 6.38986C104.555 6.07762 99.7002 4.15953 98.9776 0.0334547C99.0679 -0.0111516 99.0001 -0.0111516 98.9776 0.0334547Z" fill="white"/>
<path d="M117.495 0.0333252C116.795 4.11478 111.985 6.07746 111.127 6.3897C111.985 6.70194 116.795 8.62 117.495 12.7238C118.195 8.6646 123.05 6.70194 123.909 6.3897C123.05 6.07746 118.195 4.15939 117.495 0.0333252Z" fill="white"/>
<path d="M136.012 0.0333252C135.312 4.11478 130.502 6.07746 129.644 6.3897C130.502 6.70194 135.312 8.62 136.012 12.7238C136.012 12.7238 136.013 12.7238 136.125 12.7238C136.825 8.6646 141.681 6.70194 142.539 6.3897C141.681 6.07746 136.825 4.15939 136.125 0.0333252H136.012Z" fill="white"/>
<path d="M154.643 0.0334547C153.943 4.11493 149.11 6.07762 148.252 6.38986C149.11 6.7021 153.943 8.62016 154.643 12.7239C155.343 8.66477 160.198 6.7021 161.079 6.38986C160.198 6.07762 155.343 4.15953 154.643 0.0334547C154.643 -0.0111516 154.643 -0.0111516 154.643 0.0334547Z" fill="white"/>
<path d="M173.07 0.0334547C172.37 4.11493 167.537 6.07762 166.702 6.38986C167.56 6.7021 172.37 8.62016 173.07 12.7239C173.77 8.66477 178.625 6.7021 179.506 6.38986C178.625 6.07762 173.77 4.15953 173.07 0.0334547C173.16 -0.0111516 173.07 -0.0111516 173.07 0.0334547Z" fill="white"/>
<path d="M191.587 0.0334547C190.887 4.11493 186.077 6.07762 185.219 6.38986C186.077 6.7021 190.887 8.62016 191.587 12.7239C192.287 8.66477 197.165 6.7021 198.023 6.38986C197.165 6.07762 192.287 4.15953 191.587 0.0334547C191.678 -0.0111516 191.587 -0.0111516 191.587 0.0334547Z" fill="white"/>
<path d="M210.105 0.0334547C209.405 4.11493 204.595 6.07762 203.737 6.38986C204.595 6.7021 209.405 8.62016 210.105 12.7239C210.827 8.66477 215.683 6.7021 216.541 6.38986C215.683 6.07762 210.827 4.15953 210.105 0.0334547C210.195 -0.0111516 210.127 -0.0111516 210.105 0.0334547Z" fill="white"/>
<path d="M228.622 0.0333252C227.922 4.11478 223.112 6.07746 222.254 6.3897C223.112 6.70194 227.922 8.62 228.622 12.7238C228.622 12.7238 228.622 12.7238 228.735 12.7238C229.435 8.6646 234.29 6.70194 235.148 6.3897C234.29 6.07746 229.435 4.15939 228.735 0.0333252H228.622Z" fill="white"/>
<path d="M247.23 0.0334547C246.53 4.11493 241.697 6.07762 240.839 6.38986C241.697 6.7021 246.53 8.62016 247.23 12.7239C247.93 8.66477 252.785 6.7021 253.643 6.38986C252.785 6.07762 247.93 4.15953 247.23 0.0334547C247.23 -0.0111516 247.23 -0.0111516 247.23 0.0334547Z" fill="white"/>
<path d="M265.68 0.0334547C264.98 4.11493 260.147 6.07762 259.289 6.38986C260.147 6.7021 264.98 8.62016 265.68 12.7239C266.38 8.66477 271.235 6.7021 272.116 6.38986C271.235 6.07762 266.38 4.15953 265.68 0.0334547C265.77 -0.0111516 265.68 -0.0111516 265.68 0.0334547Z" fill="white"/>
<path d="M284.197 36.7665C283.497 40.848 278.687 42.8107 277.829 43.1229C278.687 43.4351 283.497 45.3532 284.197 49.4569C284.897 45.3978 289.752 43.4351 290.633 43.1229C289.752 42.8107 284.897 40.8926 284.197 36.7665C284.197 36.7219 284.287 36.7219 284.197 36.7665Z" fill="white"/>
<path d="M302.714 36.7665C302.014 40.848 297.204 42.8107 296.346 43.1229C297.204 43.4351 302.014 45.3532 302.714 49.4569C303.437 45.3978 308.292 43.4351 309.15 43.1229C308.292 42.8107 303.437 40.8926 302.714 36.7665C302.737 36.7219 302.804 36.7219 302.714 36.7665Z" fill="white"/>
<path d="M321.232 36.7665C320.532 40.848 315.722 42.8107 314.864 43.1229C315.722 43.4352 320.532 45.3532 321.232 49.457C321.932 45.3978 326.787 43.4352 327.645 43.1229C326.787 42.8107 321.932 40.8926 321.232 36.7665Z" fill="white"/>
<path d="M339.817 36.7665C339.094 40.848 334.284 42.8107 333.426 43.1229C334.284 43.4351 339.094 45.3532 339.817 49.4569C340.517 45.3978 345.372 43.4351 346.23 43.1229C345.372 42.8107 340.517 40.8926 339.817 36.7665C339.817 36.7219 339.817 36.7219 339.817 36.7665Z" fill="white"/>
<path d="M284.197 18.4113C283.497 22.4704 278.687 24.4331 277.829 24.7453C278.687 25.0575 283.497 26.9756 284.197 31.0793C284.897 26.9979 289.752 25.0575 290.633 24.7453C289.752 24.4331 284.897 22.515 284.197 18.4113Z" fill="white"/>
<path d="M302.714 18.4111C302.014 22.4702 297.204 24.4329 296.346 24.7452C297.204 25.0574 302.014 26.9755 302.714 31.0792C303.437 26.9978 308.292 25.0574 309.15 24.7452C308.292 24.4329 303.437 22.5149 302.714 18.4111C302.737 18.3442 302.804 18.3442 302.714 18.4111Z" fill="white"/>
<path d="M321.232 18.4111C320.532 22.4702 315.722 24.4329 314.864 24.7452C315.722 25.0574 320.532 26.9755 321.232 31.0792C321.932 26.9978 326.787 25.0574 327.645 24.7452C326.787 24.4329 321.932 22.5149 321.232 18.4111C321.254 18.3442 321.322 18.3442 321.232 18.4111Z" fill="white"/>
<path d="M339.817 18.4111C339.094 22.4702 334.284 24.4329 333.426 24.7452C334.284 25.0574 339.094 26.9755 339.817 31.0792C340.517 26.9978 345.372 25.0574 346.23 24.7452C345.372 24.4329 340.517 22.5149 339.817 18.4111C339.817 18.3442 339.817 18.3442 339.817 18.4111Z" fill="white"/>
<path d="M284.197 0.0334547C283.497 4.11493 278.687 6.07762 277.829 6.38986C278.687 6.7021 283.497 8.62016 284.197 12.7239C284.897 8.66477 289.752 6.7021 290.633 6.38986C289.752 6.07762 284.897 4.15953 284.197 0.0334547C284.287 -0.0111516 284.197 -0.0111516 284.197 0.0334547Z" fill="white"/>
<path d="M302.714 0.0334547C302.014 4.11493 297.204 6.07762 296.346 6.38986C297.204 6.7021 302.014 8.62016 302.714 12.7239C303.437 8.66477 308.292 6.7021 309.15 6.38986C308.292 6.07762 303.437 4.15953 302.714 0.0334547C302.804 -0.0111516 302.737 -0.0111516 302.714 0.0334547Z" fill="white"/>
<path d="M6.36818 0.0334547C5.66813 4.11493 0.858124 6.07762 0 6.38986C0.858124 6.7021 5.66813 8.62016 6.36818 12.7239C7.09081 8.66477 11.946 6.7021 12.8041 6.38986C11.946 6.07762 7.09081 4.15953 6.36818 0.0334547C6.45851 -0.0111516 6.39076 -0.0111516 6.36818 0.0334547Z" fill="white"/>
<path d="M24.8855 0.0333252C24.1855 4.11478 19.3755 6.07746 18.5173 6.3897C19.3755 6.70194 24.1855 8.62 24.8855 12.7238C25.5855 8.6646 30.4407 6.70194 31.2988 6.3897C30.4407 6.07746 25.5855 4.15939 24.8855 0.0333252Z" fill="white"/>
<path d="M43.4252 0.0334547C42.7026 4.11493 37.8925 6.07762 37.0344 6.38986C37.8925 6.7021 42.7026 8.62016 43.4252 12.7239C44.1252 8.66477 48.9804 6.7021 49.8385 6.38986C48.9804 6.07762 44.1252 4.15953 43.4252 0.0334547C43.4929 -0.0111516 43.4252 -0.0111516 43.4252 0.0334547Z" fill="white"/>
<path d="M62.0558 0.0334547C61.3558 4.11493 56.5232 6.07762 55.665 6.38986C56.5232 6.7021 61.3558 8.62016 62.0558 12.7239C62.7559 8.66477 67.611 6.7021 68.4917 6.38986C67.611 6.07762 62.7559 4.15953 62.0558 0.0334547C62.0558 -0.0111516 62.0558 -0.0111516 62.0558 0.0334547Z" fill="white"/>
<path d="M80.4605 0.0334547C79.7604 4.11493 74.9504 6.07762 74.0923 6.38986C74.9504 6.7021 79.7604 8.62016 80.4605 12.7239C81.1605 8.66477 86.0157 6.7021 86.8964 6.38986C86.0157 6.07762 81.1605 4.15953 80.4605 0.0334547C80.5508 -0.0111516 80.4605 -0.0111516 80.4605 0.0334547Z" fill="white"/>
</svg>
