<svg width="69" height="32" viewBox="0 0 69 32" fill="none" xmlns="http://www.w3.org/2000/svg">
<path d="M43.4257 18.4055C42.7257 22.487 37.9157 24.4273 37.0576 24.7619C37.9157 25.0741 42.7257 26.9922 43.4257 31.0959H43.5387C44.2388 27.0145 49.0939 25.0741 49.952 24.7619C49.0939 24.4273 44.2388 22.5316 43.5387 18.4055H43.4257Z" fill="white"/>
<path d="M61.966 18.4056C61.2659 22.4871 56.4333 24.4275 55.5752 24.762C56.4333 25.0743 61.2659 26.9923 61.966 31.0961C62.666 27.0146 67.5212 25.0743 68.4019 24.762C67.5212 24.4275 62.666 22.5317 61.966 18.4056C62.0337 18.361 61.966 18.361 61.966 18.4056Z" fill="white"/>
<path d="M6.3682 0.0501818C5.66815 4.10933 0.858124 6.072 0 6.38424C0.858124 6.69648 5.66815 8.61454 6.3682 12.7183C7.09083 8.65915 11.946 6.69648 12.8041 6.38424C11.946 6.072 7.09083 4.15394 6.3682 0.0501818C6.48111 -0.0167273 6.3682 -0.0167273 6.3682 0.0501818Z" fill="white"/>
<path d="M24.9084 0.0501818C24.2084 4.10933 19.3984 6.072 18.5403 6.38424C19.3984 6.69648 24.2084 8.61454 24.9084 12.7183C25.6085 8.65915 30.4635 6.69648 31.3217 6.38424C30.4635 6.072 25.6085 4.15394 24.9084 0.0501818C24.9988 -0.0167273 24.931 -0.0167273 24.9084 0.0501818Z" fill="white"/>
<path d="M43.4257 0.0501818C42.7257 4.10933 37.9835 6.0497 37.0576 6.38424C37.9157 6.69648 42.7257 8.61454 43.4257 12.7183C43.4257 12.7183 43.4258 12.7183 43.5387 12.7183C44.2388 8.65915 49.0939 6.69648 49.952 6.38424C49.0939 6.072 44.2388 4.15394 43.5387 0.0501818C43.5161 -0.0167273 43.4483 -0.0167273 43.4257 0.0501818Z" fill="white"/>
<path d="M61.9657 1.05018C61.2657 5.10933 56.4331 7.072 55.575 7.38424C56.4331 7.69648 61.2657 9.61454 61.9657 13.7183C62.6658 9.65915 67.5209 7.69648 68.4016 7.38424C67.5209 7.072 62.6658 5.15394 61.9657 1.05018C62.0335 0.983273 61.9657 0.983273 61.9657 1.05018Z" fill="white"/>
</svg>
