<svg width="96" height="79" viewBox="0 0 96 79" fill="none" xmlns="http://www.w3.org/2000/svg">
<g filter="url(#filter0_d)">
<path d="M48.1738 40.3657C48.1738 40.3657 45.4139 41.3541 44.8927 43.0618C44.3715 44.7694 47.1428 49.0908 47.1428 49.0908C47.1428 49.0908 45.906 49.8922 45.7925 50.2126C45.6789 50.5329 46.2973 51.044 46.2973 51.044C46.2973 51.044 46.2745 51.4254 46.7289 51.7183C47.1832 52.0112 47.799 51.7183 47.799 51.7183C48.106 51.8808 48.4518 51.9583 48.7998 51.9426C49.3904 51.9202 50.665 50.4818 50.8013 50.2574C50.9376 50.0331 48.1738 40.3657 48.1738 40.3657Z" fill="white"/>
<path d="M45.6812 41.9476C45.3653 42.2089 45.095 42.5196 44.8811 42.8674C44.7766 43.0446 44.6855 43.2292 44.6085 43.4196C44.5263 43.605 44.4674 43.7997 44.4331 43.9992C44.4167 44.1151 44.3977 44.2298 44.3851 44.347C44.3694 44.4502 44.3694 44.5553 44.3851 44.6586C44.3851 44.6673 44.399 44.6673 44.4028 44.6586C44.4258 44.6066 44.4428 44.5523 44.4533 44.4965C44.4697 44.4342 44.4911 44.3719 44.5113 44.3121C44.5492 44.1961 44.5946 44.084 44.6375 43.9705C44.7223 43.7333 44.8209 43.501 44.9328 43.275C45.0451 43.0532 45.1776 42.8425 45.3114 42.6306C45.4446 42.4147 45.5962 42.2104 45.7645 42.0199C45.7742 42.0089 45.7791 41.9947 45.7781 41.9802C45.7772 41.9657 45.7705 41.9522 45.7594 41.9426C45.7484 41.933 45.7339 41.9281 45.7192 41.9291C45.7046 41.93 45.6909 41.9367 45.6812 41.9476Z" fill="white"/>
<path d="M45.2383 42.9671C45.1694 43.0432 45.105 43.1231 45.0452 43.2064C44.993 43.2863 44.9462 43.3696 44.9051 43.4557C44.8175 43.6383 44.7543 43.8315 44.7171 44.0303C44.6316 44.4271 44.6385 44.838 44.7373 45.2318C44.7373 45.2368 44.7393 45.2416 44.7428 45.2451C44.7464 45.2486 44.7512 45.2505 44.7562 45.2505C44.7612 45.2505 44.7661 45.2486 44.7696 45.2451C44.7732 45.2416 44.7752 45.2368 44.7752 45.2318C44.8105 45.0449 44.8244 44.8579 44.8496 44.6635C44.8748 44.469 44.8988 44.2895 44.9379 44.0988C44.9775 43.9143 45.0272 43.7321 45.0869 43.5529C45.1458 43.3699 45.2258 43.1943 45.3254 43.0294C45.3299 43.0181 45.3305 43.0056 45.327 42.9939C45.3235 42.9822 45.3163 42.972 45.3063 42.9649C45.2963 42.9578 45.2842 42.9541 45.2719 42.9545C45.2596 42.9549 45.2478 42.9593 45.2383 42.9671Z" fill="white"/>
<g opacity="0.1">
<path opacity="0.1" d="M48.1736 40.3657C48.1736 40.3657 45.4136 41.3541 44.8924 43.0618C44.3712 44.7694 47.1425 49.0908 47.1425 49.0908C47.1425 49.0908 45.9058 49.8922 45.7922 50.2126C45.6786 50.5329 46.297 51.044 46.297 51.044C46.297 51.044 46.2743 51.4254 46.7286 51.7183C47.1829 52.0112 47.7988 51.7183 47.7988 51.7183C48.1058 51.8808 48.4516 51.9583 48.7995 51.9426C49.3902 51.9202 50.6648 50.4818 50.8011 50.2574C50.9373 50.0331 48.1736 40.3657 48.1736 40.3657Z" fill="black"/>
<path opacity="0.1" d="M45.6812 41.9474C45.3653 42.2087 45.095 42.5195 44.8811 42.8673C44.7766 43.0445 44.6855 43.2291 44.6085 43.4195C44.5263 43.6049 44.4674 43.7995 44.4331 43.9991C44.4167 44.115 44.3977 44.2297 44.3851 44.3468C44.3694 44.4501 44.3694 44.5552 44.3851 44.6584C44.3851 44.6672 44.399 44.6672 44.4028 44.6584C44.4258 44.6065 44.4428 44.5522 44.4533 44.4964C44.4697 44.4341 44.4911 44.3718 44.5113 44.3119C44.5492 44.196 44.5946 44.0838 44.6375 43.9704C44.7223 43.7331 44.8209 43.5009 44.9328 43.2749C45.0451 43.053 45.1776 42.8424 45.3114 42.6305C45.4446 42.4146 45.5962 42.2103 45.7645 42.0197C45.7742 42.0088 45.7791 41.9946 45.7781 41.9801C45.7772 41.9656 45.7705 41.952 45.7594 41.9425C45.7484 41.9329 45.7339 41.928 45.7192 41.9289C45.7046 41.9299 45.6909 41.9365 45.6812 41.9474Z" fill="black"/>
<path opacity="0.1" d="M45.2383 42.9671C45.1694 43.0432 45.105 43.1231 45.0452 43.2064C44.993 43.2863 44.9462 43.3696 44.9051 43.4557C44.8175 43.6383 44.7543 43.8315 44.7171 44.0303C44.6316 44.4271 44.6385 44.838 44.7373 45.2318C44.7373 45.2368 44.7393 45.2416 44.7428 45.2451C44.7464 45.2486 44.7512 45.2505 44.7562 45.2505C44.7612 45.2505 44.7661 45.2486 44.7696 45.2451C44.7732 45.2416 44.7752 45.2368 44.7752 45.2318C44.8105 45.0449 44.8244 44.8579 44.8496 44.6635C44.8748 44.469 44.8988 44.2895 44.9379 44.0988C44.9775 43.9143 45.0272 43.7321 45.0869 43.5529C45.1458 43.3699 45.2258 43.1943 45.3254 43.0294C45.3299 43.0181 45.3305 43.0056 45.327 42.9939C45.3235 42.9822 45.3163 42.972 45.3063 42.9649C45.2963 42.9578 45.2842 42.9541 45.2719 42.9545C45.2596 42.9549 45.2478 42.9593 45.2383 42.9671Z" fill="black"/>
</g>
<path d="M50.7974 50.2451C50.6611 50.4707 49.3865 51.9091 48.7958 51.9303C48.4474 51.9463 48.1012 51.8688 47.7938 51.7059C47.7938 51.7059 47.1792 51.9988 46.7262 51.7059C46.2731 51.413 46.2933 51.0316 46.2933 51.0316C46.2933 51.0316 45.6787 50.5156 45.7885 50.2015C45.8983 49.8874 47.1389 49.0797 47.1389 49.0797C47.8052 48.9675 48.5333 49.223 48.5333 49.223C48.2105 49.0678 47.8586 48.9804 47.4998 48.9663C48.0336 48.8956 48.5766 48.9851 49.0583 49.223C49.5832 49.4666 50.1408 49.6345 50.7141 49.7216C50.7847 50.0307 50.815 50.2127 50.7974 50.2451Z" fill="#FDFDFD"/>
<path d="M50.7973 50.245C50.6611 50.4706 49.3864 51.909 48.7958 51.9302C48.5743 51.9386 48.353 51.9104 48.1409 51.8467L49.4508 49.3987C49.8599 49.5478 50.2825 49.658 50.7128 49.7277C50.7847 50.0306 50.815 50.2126 50.7973 50.245Z" fill="#DBDBDB"/>
<path d="M46.9521 49.5309C46.8311 49.6158 46.7168 49.7095 46.6101 49.8113C46.4919 49.9146 46.3906 50.0353 46.3097 50.1691C46.1633 50.4371 46.2466 50.7512 46.2832 51.0416C46.2832 51.054 46.3034 51.0528 46.3022 51.0416C46.2552 50.7627 46.2994 50.4763 46.4284 50.2239C46.5786 49.98 46.7601 49.7563 46.9685 49.5583C46.9836 49.5409 46.9647 49.5222 46.9521 49.5309Z" fill="#263238"/>
<path d="M48.5989 50.0519C48.3303 50.242 48.0983 50.478 47.9137 50.7487C47.8327 50.8823 47.7799 51.0307 47.7584 51.1849C47.7439 51.3531 47.7627 51.5225 47.814 51.6835C47.814 51.6922 47.8304 51.6922 47.8316 51.6835C47.8543 51.5277 47.8682 51.3706 47.9023 51.2161C47.9366 51.0744 47.9896 50.9378 48.06 50.8097C48.1284 50.6785 48.2082 50.5533 48.2986 50.4358C48.397 50.3112 48.5068 50.1865 48.6103 50.0619C48.6166 50.0594 48.6077 50.0457 48.5989 50.0519Z" fill="#263238"/>
<path d="M44.5935 24.4114C44.1455 24.4712 43.2382 18.1206 44.7828 16.0329C45.0049 15.7325 49.7046 17.9574 49.774 18.1206C49.8434 18.2839 45.516 24.2868 44.5935 24.4114Z" fill="white"/>
<path opacity="0.2" d="M49.7738 18.1156C49.7965 18.1667 49.3889 18.7887 48.792 19.6213C47.7824 17.9848 44.871 16.2123 44.799 16.256C44.7271 16.2996 44.2476 18.0396 44.1958 19.9329C44.1365 22.1765 44.6375 23.6797 44.8798 24.2693C44.7961 24.3361 44.6982 24.3834 44.5933 24.4076C44.1466 24.4675 43.2392 18.1169 44.7839 16.0279C45.0047 15.7275 49.7019 17.9524 49.7738 18.1156Z" fill="black"/>
<path d="M46.0435 23.7782C46.0037 23.5805 45.9535 23.385 45.8933 23.1924C45.8357 23.0005 45.767 22.8119 45.6876 22.6278C45.5343 22.2594 45.331 21.9135 45.0831 21.5995C44.9598 21.4437 44.8207 21.3008 44.6679 21.1732C44.5934 21.1071 44.5114 21.0485 44.4306 20.9912C44.3499 20.9339 44.2628 20.884 44.1782 20.8391C44.0898 20.7926 43.9988 20.751 43.9056 20.7145C43.811 20.6833 43.7176 20.6434 43.6192 20.621C43.4235 20.5658 43.2234 20.5275 43.021 20.5063C43.4352 20.496 43.8462 20.5814 44.2211 20.7556C44.5983 20.9351 44.9283 21.1983 45.1853 21.5247C45.4412 21.8474 45.6423 22.209 45.781 22.5954C45.923 22.9759 46.0113 23.3739 46.0435 23.7782Z" fill="#263238"/>
<path d="M46.3148 23.6249C46.3063 23.3354 46.2781 23.0468 46.2303 22.7611C46.1856 22.4757 46.1241 22.1931 46.046 21.9147C45.8942 21.3583 45.6653 20.8252 45.3658 20.3305C45.2167 20.0842 45.0479 19.8499 44.861 19.63C44.6705 19.4127 44.4633 19.2102 44.2414 19.0243C44.0191 18.8376 43.7805 18.6708 43.5284 18.5257C43.2762 18.3771 43.0139 18.2459 42.7434 18.1331C43.3075 18.3128 43.8354 18.5887 44.3032 18.9482C44.7681 19.3159 45.163 19.7625 45.4693 20.267C45.7714 20.7715 45.996 21.3176 46.1356 21.8873C46.2797 22.455 46.34 23.0402 46.3148 23.6249Z" fill="#263238"/>
<path d="M61.1595 25.4758C61.581 25.6329 63.9194 19.6512 62.8935 17.2705C62.7471 16.929 57.6613 18.0458 57.554 18.1904C57.4467 18.335 60.2887 25.1505 61.1595 25.4758Z" fill="white"/>
<path opacity="0.2" d="M57.5553 18.1905C57.5212 18.2341 57.7749 18.9308 58.1661 19.8756C59.5278 18.5046 62.766 17.4314 62.8266 17.4887C62.8872 17.5461 62.9528 19.3496 62.5742 21.2056C62.1186 23.4018 61.2845 24.7554 60.9147 25.2765C60.981 25.3596 61.065 25.4273 61.1608 25.4746C61.5836 25.6329 63.922 19.6513 62.896 17.2706C62.7458 16.9328 57.6613 18.0471 57.5553 18.1905Z" fill="black"/>
<path d="M61.2163 23.7782C61.2484 23.3728 61.3376 22.9738 61.4813 22.5928C61.62 22.2064 61.8211 21.8448 62.077 21.5221C62.3346 21.1963 62.6644 20.9332 63.0411 20.7531C63.4165 20.5788 63.8279 20.4934 64.2426 20.5038C64.0402 20.5248 63.84 20.5631 63.6444 20.6184C63.5459 20.6409 63.4526 20.6808 63.3566 20.7119C63.2639 20.7484 63.1733 20.7901 63.0853 20.8366C62.9957 20.8814 62.9137 20.9375 62.8329 20.9886C62.7522 21.0397 62.6701 21.1045 62.5969 21.1706C62.4437 21.2983 62.3042 21.4411 62.1805 21.5969C61.9326 21.9109 61.7292 22.2569 61.576 22.6252C61.4209 22.9967 61.3022 23.3819 61.2214 23.7757L61.2163 23.7782Z" fill="#263238"/>
<path d="M60.9438 23.6249C60.9175 23.0412 60.977 22.4567 61.1205 21.8899C61.2603 21.3204 61.4844 20.7744 61.7856 20.2695C62.0936 19.7651 62.4902 19.3189 62.9567 18.952C63.4241 18.5925 63.9515 18.3166 64.5153 18.1368C64.2451 18.2497 63.9833 18.3808 63.7316 18.5295C63.4791 18.6745 63.24 18.8414 63.0173 19.028C62.7954 19.2137 62.5887 19.4162 62.3989 19.6338C62.2117 19.8534 62.0428 20.0877 61.8941 20.3343C61.5936 20.8284 61.3646 21.3617 61.2139 21.9185C61.1346 22.1966 61.0731 22.4792 61.0296 22.7649C60.9816 23.0493 60.9529 23.3367 60.9438 23.6249Z" fill="#263238"/>
<path d="M43.0173 27.5088C43.0173 28.3314 44.056 30.6984 46.2026 32.3612C46.2026 32.3612 47.0128 42.8412 47.1907 43.6963C47.3687 44.5513 49.6314 51.0403 49.6238 51.13C49.6163 51.2198 48.6445 52.0025 48.5183 52.2643C48.424 52.4902 48.3649 52.7289 48.3429 52.9723C48.3429 53.0321 48.9133 53.6603 49.2465 53.6852C49.2465 53.6852 50.2321 54.3147 51.0234 53.9083C51.0234 53.9083 51.7579 54.0529 52.1592 53.9183C52.5605 53.7837 53.5158 52.8775 53.8591 52.5734C54.2023 52.2693 54.0875 51.666 54.0875 51.666L56.4689 51.8442C56.4689 51.8442 56.6165 52.8987 56.7604 53.2153C56.9043 53.5319 57.8558 54.1988 58.2306 54.271C58.6054 54.3433 59.2503 54.0629 59.2503 54.0629C59.2503 54.0629 59.9192 54.2623 60.3861 54.1875C60.853 54.1127 61.1723 53.4658 61.1723 53.4658C61.4293 53.3696 61.6702 53.2356 61.8866 53.0682C62.1314 52.8464 61.5585 51.9926 61.2241 51.7869C61.0362 51.6676 60.8244 51.5902 60.6032 51.56C60.6032 51.56 67.2463 51.3955 68.5348 51.2509C69.8233 51.1063 71.1244 50.8134 71.3111 50.4071C71.4979 50.0008 71.3818 41.94 70.9489 40.8257C70.5161 39.7114 68.2029 36.5654 67.3725 35.9023C66.5421 35.2392 62.115 31.0636 62.115 31.0636C62.115 31.0636 63.9941 28.6455 64.215 27.075C64.2819 26.5989 59.6289 19.4319 57.9757 18.3774C56.3225 17.3229 49.9886 17.8452 49.2213 18.2939C46.9838 19.5976 43.0173 27.0351 43.0173 27.5088Z" fill="white"/>
<path d="M47.236 42.7677C47.2574 42.5446 47.2839 42.3203 47.3193 42.0971C47.3215 42.0798 47.3172 42.0623 47.3072 42.0479C47.2972 42.0335 47.2822 42.0233 47.2651 42.0191C47.2479 42.015 47.2298 42.0172 47.2142 42.0254C47.1986 42.0336 47.1866 42.0471 47.1805 42.0635C47.1064 42.2808 47.049 42.5033 47.0088 42.7291C46.9718 42.9571 46.9511 43.1875 46.947 43.4184C46.9331 43.8546 46.9331 44.3395 47.1439 44.7358C47.1439 44.7421 47.1603 44.7358 47.1615 44.7358C47.2297 44.3058 47.1678 43.8633 47.183 43.4283C47.1943 43.2052 47.2183 42.9834 47.236 42.7677Z" fill="white"/>
<path d="M47.3244 41.6181C47.0424 41.9724 46.848 42.3868 46.7565 42.8284C46.7005 43.045 46.6675 43.2668 46.6581 43.4902C46.6517 43.6011 46.6517 43.7122 46.6581 43.823C46.6729 43.9329 46.6987 44.041 46.735 44.1459C46.735 44.1571 46.759 44.1583 46.7603 44.1459C46.7767 44.0412 46.8082 43.9377 46.8196 43.833C46.8309 43.7283 46.8398 43.6273 46.8549 43.5251C46.8877 43.3145 46.9218 43.1038 46.9811 42.8957C47.1036 42.4859 47.2554 42.0852 47.4354 41.6966C47.4594 41.633 47.3786 41.5558 47.3244 41.6181Z" fill="white"/>
<path d="M43.7743 26.0218C43.6141 26.2127 43.4661 26.4134 43.3314 26.6226C43.2008 26.8333 43.0881 27.0543 42.9944 27.2832C42.8928 27.5103 42.8109 27.7455 42.7496 27.9862C42.6993 28.2333 42.6635 28.483 42.6423 28.7341C42.6423 28.7628 42.6789 28.7752 42.6878 28.7453C42.7572 28.5122 42.8506 28.2854 42.9402 28.0598C43.0298 27.8342 43.108 27.6061 43.2039 27.383C43.2998 27.1598 43.4058 26.9405 43.5118 26.7211C43.6179 26.5017 43.7226 26.2836 43.845 26.0729C43.8728 26.0318 43.8072 25.982 43.7743 26.0218Z" fill="white"/>
<path d="M43.5057 26.9865C43.3904 27.1855 43.2929 27.3941 43.2141 27.6097C43.1405 27.8231 43.086 28.0425 43.0513 28.2654C42.9889 28.711 43.009 29.1642 43.1107 29.6028C43.1115 29.6053 43.1131 29.6074 43.1152 29.609C43.1174 29.6105 43.12 29.6114 43.1226 29.6114C43.1253 29.6114 43.1279 29.6105 43.13 29.609C43.1322 29.6074 43.1338 29.6053 43.1346 29.6028C43.135 29.1631 43.1747 28.7243 43.2533 28.2915C43.2883 28.0779 43.3342 27.8662 43.3908 27.6571C43.4432 27.4434 43.5063 27.2325 43.5801 27.0251C43.5978 26.9728 43.5271 26.9466 43.5057 26.9865Z" fill="white"/>
<path d="M63.6268 25.9608C63.458 25.7382 63.2733 25.5278 63.074 25.3313C63.0614 25.3176 63.0362 25.3313 63.0475 25.3525C63.3385 25.7483 63.592 26.1697 63.8047 26.6114C63.912 26.8258 64.0168 27.0427 64.1064 27.2645C64.196 27.4864 64.278 27.7245 64.3588 27.9563C64.4534 28.2168 64.5241 28.4848 64.6011 28.7503C64.6018 28.7522 64.6031 28.7538 64.6048 28.755C64.6065 28.7562 64.6085 28.7568 64.6105 28.7568C64.6126 28.7568 64.6146 28.7562 64.6163 28.755C64.618 28.7538 64.6193 28.7522 64.62 28.7503C64.6301 27.7469 64.2288 26.7535 63.6268 25.9608Z" fill="white"/>
<path d="M64.1885 28.41C64.1874 28.3091 64.1806 28.2084 64.1683 28.1083C64.148 27.9031 64.1117 27.6997 64.0597 27.5001C63.943 27.1064 63.7927 26.7232 63.6105 26.3546C63.6004 26.3334 63.5638 26.3546 63.5713 26.372C63.6975 26.7522 63.7808 27.1511 63.873 27.5412C63.9184 27.7344 63.9676 27.9263 64.0181 28.1183C64.0433 28.2155 64.066 28.3152 64.0938 28.4112C64.1216 28.5072 64.1367 28.6094 64.1708 28.7029C64.1708 28.7103 64.1872 28.7116 64.1885 28.7029C64.1935 28.6053 64.1935 28.5075 64.1885 28.41Z" fill="white"/>
<path d="M69.7424 38.1671C69.5569 37.929 69.3765 37.6885 69.1872 37.4554C68.9962 37.2246 68.7891 37.0072 68.5675 36.8047C68.3454 36.6016 68.1208 36.4009 67.8823 36.2164C67.6438 36.032 67.3775 35.8699 67.1251 35.7016C66.9888 35.6094 66.8437 35.5296 66.7023 35.4436C66.561 35.3576 66.4057 35.2617 66.253 35.1769C66.2429 35.1707 66.2341 35.1856 66.2442 35.1931C66.4966 35.3676 66.7364 35.5433 66.9699 35.7365C67.2033 35.9297 67.4191 36.1192 67.6412 36.3136C67.8633 36.5081 68.093 36.6976 68.3126 36.8957C68.4262 36.9979 68.5372 37.1014 68.647 37.2073C68.7568 37.3133 68.8704 37.403 68.9802 37.5015C69.2326 37.7259 69.485 37.9427 69.7159 38.1846C69.7311 38.1958 69.7525 38.1796 69.7424 38.1671Z" fill="white"/>
<path d="M71.4776 41.4951C71.367 41.2315 71.2406 40.9747 71.099 40.7261C70.9627 40.4768 70.815 40.2275 70.6585 39.9782C70.5009 39.7429 70.3271 39.5184 70.1386 39.3064C69.9278 39.0633 69.7032 38.834 69.4861 38.5959C69.4786 38.5872 69.466 38.5959 69.4735 38.6096C69.8382 39.0446 70.1045 39.5457 70.4112 40.0231C70.5601 40.2599 70.7052 40.4992 70.8415 40.7435C70.9778 40.9878 71.0939 41.2421 71.2201 41.4914C71.3627 41.7718 71.5129 42.0498 71.6555 42.3302C71.6757 42.3689 71.7325 42.339 71.7224 42.3003C71.6603 42.0265 71.5785 41.7574 71.4776 41.4951Z" fill="white"/>
<path d="M71.6076 42.7652C71.5628 42.5476 71.4995 42.3341 71.4183 42.1271C71.34 41.9264 71.2492 41.7332 71.152 41.5412C71.0542 41.3379 70.9424 41.1413 70.8176 40.9529C70.8113 40.9454 70.7961 40.9529 70.7999 40.9604C70.8794 41.1611 70.9665 41.3593 71.0422 41.5612C71.1179 41.7631 71.1836 41.9713 71.2479 42.1844C71.3123 42.3975 71.3741 42.5982 71.4473 42.8076C71.5205 43.017 71.5735 43.2227 71.6454 43.4308C71.6473 43.4366 71.6513 43.4414 71.6565 43.4445C71.6617 43.4476 71.6679 43.4487 71.6739 43.4477C71.6799 43.4466 71.6853 43.4434 71.6891 43.4387C71.6929 43.434 71.6949 43.4281 71.6947 43.4221C71.6867 43.2009 71.6575 42.981 71.6076 42.7652Z" fill="white"/>
<path d="M47.3156 20.1909C46.9068 20.7032 46.4865 21.2118 46.113 21.749C45.7394 22.2862 45.3861 22.8471 45.0655 23.4179C44.878 23.7439 44.7094 24.0801 44.5607 24.4251C44.559 24.428 44.5586 24.4316 44.5596 24.4348C44.5605 24.4381 44.5628 24.4409 44.5658 24.4425C44.5688 24.4442 44.5723 24.4446 44.5756 24.4436C44.579 24.4427 44.5818 24.4405 44.5834 24.4375C44.962 23.9003 45.2977 23.3307 45.646 22.7735C45.9943 22.2164 46.3553 21.6692 46.7061 21.1145C46.903 20.8017 47.1099 20.4913 47.3232 20.1934C47.3194 20.1909 47.3169 20.1897 47.3156 20.1909Z" fill="#263238"/>
<path d="M62.1705 23.5389C61.802 22.9743 61.4436 22.4059 61.046 21.86C60.6485 21.314 60.2447 20.7955 59.8106 20.2882C59.8106 20.2882 59.7954 20.2882 59.7992 20.2969C60.1639 20.8566 60.5463 21.4038 60.935 21.946C61.3237 22.4882 61.7477 23.0129 62.1503 23.5501C62.1518 23.5528 62.1543 23.5547 62.1573 23.5555C62.1602 23.5564 62.1634 23.556 62.1661 23.5545C62.1688 23.553 62.1707 23.5505 62.1716 23.5476C62.1724 23.5447 62.172 23.5416 62.1705 23.5389Z" fill="#263238"/>
<path d="M55.458 39.3262C54.6453 39.2676 53.9436 38.7204 53.6079 38.0885C53.4737 37.8376 53.3881 37.5641 53.3555 37.2821C53.4253 37.2577 53.4911 37.2237 53.5512 37.1811C53.7179 37.0465 53.848 36.873 53.9298 36.6763C54.0354 36.4621 54.0979 36.2297 54.114 35.992C54.1216 35.82 54.114 35.5358 53.9032 35.4548C53.6925 35.3738 53.5247 35.5657 53.4527 35.7041C53.3506 35.9133 53.2755 36.1344 53.2293 36.3622C53.1725 36.6149 53.15 36.8739 53.1625 37.1325C53.1085 37.138 53.0541 37.1355 53.0009 37.125C52.5618 37.044 52.3699 36.6414 52.3232 36.2874C52.2716 35.8725 52.2835 35.4523 52.3586 35.041C52.5109 34.1903 52.8349 33.3785 53.3114 32.654C53.3694 32.5643 53.425 32.4733 53.4881 32.3861C53.4944 32.3761 53.4767 32.3674 53.4704 32.3773C52.8911 33.1726 52.399 34.0176 52.1895 34.9525C52.0777 35.4054 52.049 35.8744 52.1049 36.3373C52.1655 36.7598 52.4027 37.201 52.9138 37.3032C53.0006 37.3212 53.0897 37.325 53.1776 37.3145C53.195 37.4653 53.2262 37.6142 53.271 37.7594C53.4065 38.1668 53.6525 38.5297 53.9823 38.8085C54.312 39.0874 54.7129 39.2716 55.1413 39.3412C55.2441 39.3558 55.3478 39.3641 55.4517 39.3661C55.4946 39.3761 55.4921 39.33 55.458 39.3262ZM53.3354 36.8757C53.3395 36.6659 53.3657 36.457 53.4136 36.2525C53.4388 36.1478 53.4691 36.0431 53.5045 35.9396C53.5313 35.8441 53.574 35.7535 53.6307 35.6717C53.6824 35.6068 53.7846 35.5096 53.8831 35.5695C53.9815 35.6293 53.9727 35.7502 53.9777 35.8325C53.9843 36.0506 53.9411 36.2674 53.8515 36.4669C53.7569 36.6875 53.5991 36.9779 53.3467 37.0901C53.3366 37.0203 53.3341 36.948 53.3354 36.8757Z" fill="#263238"/>
<path d="M54.7007 46.1268C54.1959 45.5559 52.3938 43.3048 51.9874 42.6729C51.1696 41.4028 50.4932 40.0417 49.7878 38.7179C49.3877 37.9701 48.9359 37.0776 48.5599 36.3161C48.5535 36.3048 48.5334 36.3098 48.5384 36.3223C49.1467 37.6934 49.6237 39.0208 50.2131 40.2685C50.8818 41.6371 51.7089 42.9245 52.6777 44.1051C53.2153 44.7769 54.0558 45.5397 54.6742 46.1517C54.6818 46.1579 54.712 46.1405 54.7007 46.1268Z" fill="#263238"/>
<path d="M54.2439 49.3401C54.2351 48.5299 54.1934 47.7197 54.148 46.912C54.1228 46.4521 54.0912 45.9909 54.0736 45.531C54.0736 45.5267 54.0718 45.5226 54.0687 45.5195C54.0657 45.5165 54.0615 45.5148 54.0571 45.5148C54.0528 45.5148 54.0486 45.5165 54.0455 45.5195C54.0425 45.5226 54.0407 45.5267 54.0407 45.531C54.0407 46.3412 54.0168 47.1513 54.0117 47.9628C54.0067 48.7742 54.0281 49.5831 54.066 50.3908C54.0887 50.8533 54.1303 51.3132 54.1682 51.7731C54.1692 51.7768 54.1715 51.7801 54.1745 51.7824C54.1776 51.7847 54.1814 51.786 54.1852 51.786C54.1891 51.786 54.1929 51.7847 54.196 51.7824C54.199 51.7801 54.2013 51.7768 54.2023 51.7731C54.2174 51.368 54.2414 50.963 54.2452 50.5566C54.249 50.1503 54.2477 49.7452 54.2439 49.3401Z" fill="#263238"/>
<path d="M56.4939 50.7336C56.4939 50.336 56.4876 49.9384 56.4725 49.5408C56.4438 48.7456 56.4047 47.9508 56.3551 47.1564C56.3273 46.7039 56.2895 46.2502 56.2604 45.7978C56.2604 45.7911 56.2578 45.7848 56.253 45.7801C56.2483 45.7755 56.2419 45.7728 56.2352 45.7728C56.2285 45.7728 56.2221 45.7755 56.2174 45.7801C56.2126 45.7848 56.21 45.7911 56.21 45.7978C56.2188 46.593 56.21 47.3882 56.2339 48.1834C56.2579 48.9787 56.2882 49.7739 56.3399 50.5679C56.3538 50.7922 56.369 51.0153 56.3879 51.2385C56.3967 51.3456 56.4068 51.4516 56.4157 51.5575C56.4245 51.6635 56.4434 51.7732 56.4497 51.8816C56.4505 51.8838 56.452 51.8857 56.4539 51.8871C56.4558 51.8884 56.4581 51.8891 56.4605 51.8891C56.4628 51.8891 56.4651 51.8884 56.467 51.8871C56.469 51.8857 56.4704 51.8838 56.4712 51.8816C56.4895 51.7002 56.4971 51.5179 56.4939 51.3357C56.4964 51.1375 56.4952 50.9356 56.4939 50.7336Z" fill="#263238"/>
<path d="M63.0109 44.833C63.1034 44.1533 63.2006 43.4752 63.3024 42.7988C63.3024 42.7942 63.3005 42.7898 63.2972 42.7865C63.2939 42.7832 63.2894 42.7814 63.2847 42.7814C63.2801 42.7814 63.2756 42.7832 63.2723 42.7865C63.2689 42.7898 63.2671 42.7942 63.2671 42.7988C63.1628 43.3913 63.0538 43.9825 62.9402 44.5725C62.8279 45.1583 62.7358 45.7479 62.6134 46.3325C62.4763 46.9095 62.2779 47.4706 62.0215 48.0064C61.7779 48.5524 61.5356 49.0996 61.3034 49.6517C61.1772 49.9621 61.0409 50.275 60.9135 50.5841C60.8491 50.7399 60.7873 50.8944 60.7216 51.0515C60.656 51.2085 60.6043 51.3805 60.5424 51.5438C60.5404 51.5481 60.5402 51.553 60.5419 51.5575C60.5435 51.5619 60.5469 51.5655 60.5513 51.5675C60.5556 51.5695 60.5606 51.5697 60.5651 51.5681C60.5696 51.5664 60.5732 51.5631 60.5752 51.5588C60.6459 51.4229 60.7242 51.2945 60.7923 51.1574C60.8605 51.0203 60.9261 50.8857 60.9904 50.7486C61.1166 50.4744 61.2529 50.2014 61.3817 49.9272C61.6404 49.3788 61.8865 48.8278 62.1389 48.2757C62.2651 48.0077 62.3774 47.7385 62.4809 47.463C62.5785 47.1868 62.6573 46.9045 62.7168 46.6179C62.8557 46.0271 62.9339 45.4263 63.0109 44.833Z" fill="#263238"/>
<path d="M53.8641 52.5722C53.5196 52.8775 52.5693 53.7837 52.1642 53.9183C51.7591 54.0529 51.0284 53.9096 51.0284 53.9096C50.2371 54.3147 49.2515 53.6865 49.2515 53.6865C48.9184 53.6603 48.3429 53.0321 48.3479 52.9723C48.3697 52.7289 48.4289 52.4901 48.5234 52.2643C48.6495 52.0038 49.6213 51.2198 49.6289 51.1288C50.2182 50.9954 50.8076 50.9368 51.9181 51.302C51.5227 51.0425 51.0563 50.909 50.5817 50.9194C50.5817 50.9194 52.7901 50.7573 54.0976 51.6672C54.0925 51.666 54.2061 52.268 53.8641 52.5722Z" fill="#FDFDFD"/>
<path d="M50.1109 51.7906C49.9494 51.8938 49.7985 52.0124 49.6604 52.1446C49.5216 52.2659 49.4058 52.4107 49.3184 52.5722C49.2388 52.7273 49.1924 52.897 49.1821 53.0707C49.1828 53.2756 49.2209 53.4787 49.2944 53.6703C49.2944 53.679 49.3134 53.6777 49.3121 53.6703C49.2856 53.4768 49.2831 53.281 49.3045 53.0869C49.3339 52.9266 49.3943 52.7734 49.4825 52.6357C49.5698 52.4901 49.6694 52.3521 49.7803 52.2232C49.8964 52.0885 50.0327 51.9739 50.1438 51.8343C50.1627 51.8093 50.1387 51.7744 50.1109 51.7906Z" fill="#263238"/>
<path d="M51.9358 52.0025C51.6283 52.2216 51.3683 52.4992 51.171 52.819C51.0804 52.9832 51.0263 53.1647 51.0124 53.3513C50.9985 53.5379 51.025 53.7252 51.0902 53.9009C51.091 53.9028 51.0922 53.9044 51.0939 53.9056C51.0956 53.9067 51.0976 53.9074 51.0997 53.9074C51.1018 53.9074 51.1038 53.9067 51.1055 53.9056C51.1072 53.9044 51.1085 53.9028 51.1092 53.9009C51.1054 53.7178 51.1206 53.5349 51.1546 53.3549C51.1975 53.1914 51.2584 53.0329 51.3363 52.8825C51.4123 52.7246 51.5023 52.5736 51.6051 52.4313C51.7137 52.2892 51.8285 52.1521 51.9459 52.0175C51.9509 52.0088 51.9434 51.9963 51.9358 52.0025Z" fill="#263238"/>
<path d="M61.8864 53.0669C61.67 53.2343 61.4292 53.3683 61.1721 53.4645C61.1721 53.4645 60.8478 54.1152 60.3872 54.1875C59.9266 54.2598 59.2514 54.0628 59.2514 54.0628C59.2514 54.0628 58.6065 54.3445 58.233 54.2722C57.8594 54.1999 56.9054 53.5244 56.7615 53.2152C56.6176 52.9061 56.47 51.8442 56.47 51.8442C57.0265 51.5051 58.3112 51.044 59.7903 51.2571C59.7903 51.2571 58.9498 51.2122 58.3011 51.459C58.3011 51.459 59.553 51.3568 60.5992 51.5587L60.8226 51.6061H60.8289C60.9665 51.6481 61.098 51.7076 61.2201 51.7831C61.5583 51.9912 62.1275 52.8451 61.8864 53.0669Z" fill="#FDFDFD"/>
<path d="M59.7197 53.032C59.6491 52.6768 59.2503 52.5235 58.9499 52.4088C58.9386 52.4088 58.9297 52.4188 58.9411 52.425C59.2086 52.5659 59.5203 52.7566 59.5405 53.0919C59.5377 53.2573 59.5013 53.4205 59.4332 53.5717C59.3765 53.7288 59.307 53.8821 59.2553 54.0404C59.2553 54.0516 59.2667 54.0579 59.2742 54.0504C59.4117 53.9203 59.5234 53.766 59.6036 53.5954C59.704 53.4254 59.7448 53.2273 59.7197 53.032Z" fill="#263238"/>
<path d="M61.2718 52.4562C61.0635 52.1808 60.6736 52.0823 60.353 52.0212C60.351 52.0212 60.3491 52.022 60.3477 52.0234C60.3463 52.0248 60.3455 52.0267 60.3455 52.0287C60.3455 52.0307 60.3463 52.0326 60.3477 52.034C60.3491 52.0354 60.351 52.0362 60.353 52.0362C60.6496 52.1446 60.9537 52.2506 61.1102 52.5422C61.2579 52.8127 61.2289 53.1655 61.1632 53.4559C61.1621 53.459 61.1622 53.4625 61.1636 53.4655C61.165 53.4686 61.1676 53.4709 61.1708 53.4721C61.174 53.4732 61.1775 53.4731 61.1806 53.4717C61.1837 53.4703 61.186 53.4678 61.1872 53.4646C61.3702 53.1729 61.4964 52.7591 61.2718 52.4562Z" fill="#263238"/>
<path opacity="0.1" d="M49.4534 32.3275C49.4534 32.3275 52.0177 32.9857 53.4286 32.9508C54.8395 32.9159 57.2323 32.0782 57.2323 32.0782C57.2323 32.0782 54.9746 38.2656 53.652 38.5435C52.3294 38.8215 49.4534 32.3275 49.4534 32.3275Z" fill="black"/>
<path d="M56.3929 31.4488C56.2756 31.5336 56.1519 31.6084 56.0345 31.6981C55.9172 31.7879 55.8036 31.8701 55.6862 31.9549C55.4528 32.1232 55.2142 32.2852 54.9682 32.4373C54.4772 32.7439 53.9775 33.0368 53.4815 33.336C53.474 33.336 53.4752 33.3571 53.4815 33.3534C54.3649 33.1041 55.1612 32.6305 55.897 32.0895C55.9992 32.0147 56.0989 31.9387 56.1961 31.8577C56.2932 31.7767 56.3929 31.672 56.4901 31.5785C56.5053 31.565 56.5148 31.5464 56.5168 31.5264C56.5189 31.5063 56.5133 31.4863 56.5011 31.4701C56.489 31.4539 56.4712 31.4427 56.4512 31.4388C56.4312 31.4349 56.4104 31.4385 56.3929 31.4488Z" fill="white"/>
<path d="M57.1716 30.6996C56.8334 31.0075 56.5406 31.359 56.2302 31.688C56.0737 31.8526 55.9109 32.0121 55.7456 32.1679C55.5803 32.3237 55.4162 32.4895 55.2408 32.6366C55.0401 32.8061 54.8281 32.9557 54.6174 33.1115C54.6098 33.1177 54.6174 33.1326 54.6174 33.1289C54.8283 33.041 55.0306 32.9342 55.2219 32.8098C55.4208 32.686 55.6125 32.5512 55.7961 32.406C56.1569 32.1063 56.4909 31.7764 56.7943 31.42C56.9729 31.2218 57.135 31.0097 57.2789 30.7856C57.3319 30.7158 57.2297 30.6435 57.1716 30.6996Z" fill="white"/>
<path d="M53.3189 33.2412C53.209 33.2075 53.1019 33.1658 52.9983 33.1165C52.8986 33.0754 52.8002 33.028 52.703 32.9806C52.5023 32.8834 52.3004 32.7924 52.101 32.6915C51.6974 32.4998 51.3099 32.2764 50.9425 32.0234C50.916 32.0034 50.8794 32.0371 50.9059 32.062C51.2223 32.3907 51.5889 32.6683 51.9925 32.8847C52.1937 32.9888 52.4051 33.0724 52.6235 33.134C52.7346 33.1626 52.8456 33.1838 52.9567 33.2063C53.0677 33.2287 53.1939 33.2337 53.3088 33.2598C53.3113 33.2612 53.3142 33.2615 53.3169 33.2606C53.3197 33.2598 53.3219 33.258 53.3233 33.2555C53.3246 33.253 53.3249 33.2501 53.3241 33.2474C53.3232 33.2447 53.3214 33.2425 53.3189 33.2412Z" fill="white"/>
<path d="M52.4695 33.2386C51.9899 33.0268 51.5293 32.7924 51.0699 32.5406C50.8453 32.416 50.6207 32.2914 50.3985 32.1667C50.1632 32.0417 49.9455 31.8867 49.7511 31.7055C49.7347 31.6893 49.7095 31.7118 49.7209 31.7305C49.8731 31.9452 50.0659 32.1289 50.2888 32.2714C50.4992 32.4301 50.721 32.5734 50.9526 32.7002C51.4289 32.9544 51.9385 33.1423 52.4669 33.2586C52.472 33.2611 52.4796 33.2424 52.4695 33.2386Z" fill="white"/>
<path d="M49.5594 21.9322C48.2823 21.9322 47.6387 22.9007 47.6387 24.0325C47.6387 24.9486 48.3959 25.8847 49.6238 25.8847C50.8517 25.8847 51.6089 24.7853 51.6089 23.924C51.6086 23.6598 51.5551 23.3983 51.4516 23.1546C51.3481 22.911 51.1966 22.6901 51.0059 22.5048C50.8152 22.3195 50.5892 22.1734 50.3408 22.0751C50.0925 21.9768 49.8269 21.9283 49.5594 21.9322Z" fill="#263238"/>
<path d="M49.6831 22.1678C48.4817 22.1678 47.8772 23.0777 47.8772 24.1409C47.8772 25.0022 48.5902 25.8859 49.7424 25.8859C50.8946 25.8859 51.6089 24.8526 51.6089 24.0437C51.6098 23.7948 51.5604 23.5484 51.4636 23.3187C51.3668 23.089 51.2245 22.8807 51.0452 22.706C50.8658 22.5313 50.653 22.3937 50.4191 22.3012C50.1852 22.2088 49.935 22.1634 49.6831 22.1678Z" fill="#FDFDFD"/>
<path d="M49.6957 22.5728C48.7555 22.5728 48.2822 23.2858 48.2822 24.1184C48.2861 24.303 48.3271 24.485 48.4029 24.6537C48.4787 24.8225 48.5877 24.9747 48.7235 25.1015C48.8594 25.2283 49.0195 25.3271 49.1944 25.3922C49.3693 25.4573 49.5556 25.4874 49.7423 25.4808C50.6447 25.4808 51.2037 24.6718 51.2037 24.0387C51.2039 23.8441 51.1649 23.6515 51.0889 23.472C51.0128 23.2925 50.9014 23.1298 50.761 22.9933C50.6206 22.8569 50.4541 22.7494 50.2712 22.6772C50.0882 22.605 49.8926 22.5695 49.6957 22.5728Z" fill="#263238"/>
<path d="M50.1311 22.5879C49.7046 22.5879 49.4888 22.9119 49.4888 23.2896C49.4901 23.3738 49.5084 23.457 49.5426 23.5341C49.5768 23.6113 49.6263 23.6809 49.6881 23.739C49.7499 23.797 49.8228 23.8423 49.9026 23.8721C49.9824 23.902 50.0673 23.9158 50.1526 23.9128C50.327 23.9081 50.4929 23.8375 50.6162 23.7155C50.7395 23.5935 50.8107 23.4295 50.8151 23.2572C50.8158 23.1686 50.7985 23.0807 50.7643 22.9988C50.7301 22.9169 50.6797 22.8426 50.6159 22.7802C50.5522 22.7178 50.4765 22.6687 50.3932 22.6356C50.3099 22.6026 50.2208 22.5864 50.1311 22.5879Z" fill="#FDFDFD"/>
<path d="M57.9037 21.9322C59.1821 21.9322 59.8244 22.9007 59.8244 24.0325C59.8244 24.9486 59.0672 25.8847 57.8406 25.8847C56.6139 25.8847 55.8555 24.7853 55.8555 23.924C55.8558 23.6599 55.9092 23.3985 56.0126 23.1549C56.1161 22.9114 56.2674 22.6905 56.458 22.5052C56.6485 22.3199 56.8745 22.1738 57.1226 22.0755C57.3708 21.9771 57.6363 21.9284 57.9037 21.9322Z" fill="#263238"/>
<path d="M57.7813 22.1678C58.9827 22.1678 59.5859 23.0777 59.5859 24.1409C59.5859 25.0022 58.8741 25.8859 57.7207 25.8859C56.5672 25.8859 55.8555 24.8513 55.8555 24.0374C55.8554 23.7891 55.9055 23.5433 56.0026 23.3144C56.0998 23.0854 56.2422 22.8778 56.4215 22.7038C56.6007 22.5297 56.8133 22.3927 57.0468 22.3007C57.2802 22.2086 57.5299 22.1635 57.7813 22.1678Z" fill="#FDFDFD"/>
<path d="M57.7686 22.5728C58.7088 22.5728 59.1808 23.2858 59.1808 24.1184C59.1769 24.303 59.1358 24.485 59.0601 24.6537C58.9843 24.8225 58.8753 24.9747 58.7394 25.1015C58.6036 25.2283 58.4435 25.3271 58.2686 25.3922C58.0937 25.4573 57.9074 25.4874 57.7206 25.4808C56.8183 25.4808 56.2605 24.6718 56.2605 24.0387C56.2603 23.8441 56.2994 23.6515 56.3754 23.472C56.4514 23.2925 56.5629 23.1298 56.7033 22.9933C56.8436 22.8569 57.0102 22.7494 57.1931 22.6772C57.376 22.605 57.5716 22.5695 57.7686 22.5728Z" fill="#263238"/>
<path d="M58.2746 22.5879C57.8481 22.5879 57.6335 22.912 57.6335 23.2896C57.6348 23.3738 57.6531 23.4568 57.6872 23.5339C57.7214 23.6109 57.7707 23.6805 57.8324 23.7385C57.8941 23.7966 57.9669 23.8419 58.0465 23.8718C58.1261 23.9017 58.211 23.9157 58.2961 23.9128C58.4706 23.9081 58.6367 23.8375 58.7602 23.7156C58.8836 23.5936 58.9551 23.4296 58.9599 23.2572C58.9606 23.1685 58.9433 23.0805 58.909 22.9985C58.8747 22.9165 58.8241 22.8421 58.7602 22.7798C58.6964 22.7174 58.6205 22.6682 58.5371 22.6353C58.4537 22.6023 58.3644 22.5862 58.2746 22.5879Z" fill="#FDFDFD"/>
<path d="M54.6527 24.5709C54.635 24.6955 53.8349 25.1368 53.7428 25.1368C53.6506 25.1368 52.8518 24.6906 52.8329 24.5709C52.8139 24.4512 53.5547 24.4064 53.7428 24.4064C53.9308 24.4064 54.6716 24.4512 54.6527 24.5709Z" fill="#263238"/>
<path d="M51.6531 25.5706C51.8083 25.7536 51.9793 25.9229 52.1642 26.0766C52.2541 26.1505 52.3514 26.2152 52.4544 26.2698C52.5475 26.3216 52.6531 26.3475 52.7598 26.3446C52.8653 26.3298 52.9668 26.2946 53.0584 26.2409C53.15 26.1872 53.23 26.1161 53.2937 26.0318C53.4355 25.8556 53.5472 25.6577 53.6243 25.4459L53.7505 25.1144L53.8691 25.4459C53.9439 25.6543 54.0476 25.8514 54.177 26.0318C54.3032 26.2063 54.4824 26.3533 54.6818 26.3384C54.906 26.3004 55.1152 26.2021 55.2863 26.0542C55.4775 25.9088 55.6553 25.747 55.8176 25.5706C55.6916 25.7776 55.5403 25.9685 55.3671 26.139C55.2793 26.2269 55.182 26.3051 55.0768 26.372C54.9673 26.4458 54.8429 26.4951 54.7121 26.5166C54.5704 26.536 54.4261 26.5084 54.302 26.4381C54.1872 26.3699 54.0855 26.2821 54.0016 26.1788C53.9195 26.0818 53.8481 25.9766 53.7884 25.8647C53.7279 25.7542 53.6752 25.6396 53.6306 25.522H53.8691C53.8236 25.6415 53.7679 25.757 53.7025 25.8672C53.639 25.9788 53.5627 26.083 53.4754 26.1776C53.3858 26.2773 53.28 26.3615 53.1624 26.4269C53.0405 26.491 52.9043 26.524 52.7661 26.5229C52.6306 26.5173 52.4994 26.4741 52.3876 26.3982C52.2815 26.3296 52.1841 26.2489 52.0973 26.1576C51.9249 25.9811 51.7756 25.7839 51.6531 25.5706Z" fill="#263238"/>
<path d="M47.568 25.3861C46.6719 25.1617 45.7684 24.9722 44.8597 24.8052C43.9511 24.6382 43.0412 24.4886 42.125 24.3764C41.8962 24.344 41.6673 24.3154 41.4385 24.2904C41.2088 24.2643 40.9804 24.2343 40.7507 24.2119C40.2913 24.1695 39.832 24.1247 39.3713 24.0873C38.4501 24.0087 37.5276 23.9813 36.6025 23.9502L37.2966 23.9402C37.5276 23.9402 37.7598 23.9402 37.9907 23.9402L38.6836 23.9576C38.9158 23.9576 39.1467 23.9801 39.3777 23.9913C40.3014 24.0387 41.2227 24.1334 42.1414 24.2481C43.0601 24.3627 43.9726 24.521 44.8787 24.7067C45.3313 24.8006 45.7827 24.902 46.2328 25.0109C46.6795 25.1305 47.1275 25.2465 47.568 25.3861Z" fill="#263238"/>
<path d="M47.1098 25.8511C46.6959 25.7987 46.2832 25.7489 45.868 25.7077C45.4528 25.6666 45.0402 25.623 44.625 25.5831C43.7958 25.5108 42.9654 25.4497 42.1338 25.4136C41.7186 25.3874 41.3021 25.3749 40.8869 25.36C40.4718 25.345 40.054 25.34 39.6388 25.3388H39.0142L38.3832 25.3488C37.9667 25.3488 37.5515 25.375 37.1338 25.3799C37.9642 25.3051 38.7971 25.2553 39.6313 25.2466C40.4654 25.2378 41.3009 25.254 42.1338 25.2927C42.9667 25.3313 43.7996 25.3986 44.6287 25.4909C45.4579 25.5831 46.2933 25.6953 47.1098 25.8511Z" fill="#263238"/>
<path d="M47.2638 26.397C46.9168 26.397 46.5697 26.397 46.2227 26.397C45.8757 26.397 45.5286 26.4057 45.1816 26.4169C44.4875 26.4369 43.7934 26.4593 43.1018 26.5042C42.4102 26.5491 41.7136 26.5902 41.0258 26.65C40.3381 26.7099 39.6452 26.7747 38.9524 26.8457C39.2957 26.7867 39.6389 26.7323 39.9822 26.6824C40.3267 26.6376 40.6712 26.5914 41.017 26.5578C41.7073 26.478 42.4052 26.4331 43.0955 26.3833C43.7858 26.3334 44.4837 26.3247 45.1803 26.3247C45.8769 26.3247 46.571 26.3384 47.2638 26.397Z" fill="#263238"/>
<path d="M60.2004 25.3862C60.6409 25.2465 61.0838 25.1369 61.5356 25.0122C61.9874 24.8876 62.4367 24.8016 62.8897 24.7081C63.7958 24.5224 64.7095 24.3728 65.627 24.2494C66.5445 24.126 67.4657 24.04 68.3907 23.9926C68.6217 23.9814 68.8526 23.9652 69.0836 23.959L69.7777 23.9415C70.0086 23.9415 70.2408 23.9415 70.4718 23.9415L71.1646 23.9515C70.2408 23.9827 69.317 24.0101 68.397 24.0886C67.9364 24.121 67.4771 24.1659 67.0177 24.2133C66.788 24.2357 66.5596 24.2656 66.3299 24.2918C66.1002 24.318 65.8718 24.3454 65.6434 24.3778C64.7272 24.49 63.816 24.6408 62.9087 24.8066C62.0013 24.9723 61.0965 25.1593 60.2004 25.3862Z" fill="#263238"/>
<path d="M60.656 25.851C61.475 25.6952 62.2966 25.5842 63.1308 25.492C63.9649 25.3998 64.7928 25.3399 65.6257 25.2938C66.4586 25.2477 67.2928 25.2352 68.127 25.2477C68.9612 25.2602 69.7953 25.3063 70.6257 25.3811C70.208 25.3811 69.7928 25.3474 69.3764 25.3499L68.7517 25.3399H68.127C67.7105 25.3399 67.2953 25.3537 66.8789 25.3611C66.4624 25.3686 66.0472 25.3886 65.632 25.4147C64.8004 25.4509 63.97 25.512 63.1409 25.5842C62.7261 25.6191 62.3117 25.6607 61.8978 25.7089C61.4826 25.7488 61.0699 25.7986 60.656 25.851Z" fill="#263238"/>
<path d="M60.5046 26.397C61.1975 26.3384 61.8928 26.3234 62.5882 26.3222C63.2835 26.3209 63.9764 26.3459 64.673 26.3808C65.3696 26.4157 66.0612 26.4755 66.7515 26.5553C67.0973 26.5927 67.4418 26.6388 67.7863 26.6799C68.1308 26.721 68.4728 26.7846 68.8148 26.8432C68.1233 26.7759 67.4342 26.7024 66.7414 26.6475C66.0486 26.5927 65.3532 26.5378 64.6654 26.5017C63.9776 26.4655 63.2772 26.4344 62.5869 26.4144C62.2399 26.4032 61.8928 26.3982 61.5458 26.3945C61.1987 26.3907 60.8517 26.3945 60.5046 26.397Z" fill="#263238"/>
<path d="M75.714 46.765C75.5822 46.4412 75.4083 46.1358 75.1966 45.8563C75.189 45.8464 75.1739 45.8563 75.1802 45.8651C75.3454 46.1252 75.4688 46.409 75.5462 46.7064C75.6173 46.9996 75.667 47.2974 75.6951 47.5976C75.7399 48.064 75.7153 48.5343 75.6219 48.9936C75.5891 49.1532 75.5424 49.309 75.5071 49.4685C75.4279 49.8258 75.319 50.176 75.1815 50.5155C75.1625 50.5616 75.2383 50.5916 75.261 50.5492C75.4302 50.2557 75.5746 49.9488 75.6926 49.6318C75.8016 49.313 75.8765 48.9838 75.916 48.6496C76.0154 48.0147 75.9458 47.3652 75.714 46.765Z" fill="white"/>
<path d="M75.5765 47.4842C75.5765 47.4819 75.5756 47.4797 75.5739 47.478C75.5723 47.4764 75.57 47.4755 75.5677 47.4755C75.5654 47.4755 75.5631 47.4764 75.5614 47.478C75.5598 47.4797 75.5589 47.4819 75.5589 47.4842C75.5577 47.7777 75.5242 48.0703 75.4592 48.3567C75.3999 48.6409 75.333 48.9251 75.2572 49.2055C75.1822 49.4876 75.0873 49.7641 74.9733 50.0332C74.9178 50.164 74.8572 50.2924 74.7928 50.4195C74.7285 50.5467 74.6666 50.6888 74.596 50.8184C74.5253 50.948 74.4319 51.1038 74.3436 51.2459C74.2552 51.388 74.1606 51.5189 74.0672 51.6535C74.0495 51.6797 74.0886 51.7084 74.1114 51.6872C74.326 51.4792 74.5204 51.2518 74.6919 51.0079C74.8678 50.7633 75.0183 50.5019 75.1411 50.2276C75.4006 49.6806 75.5563 49.0913 75.6005 48.4888C75.6207 48.156 75.5955 47.8207 75.5765 47.4842Z" fill="white"/>
<path d="M72.9163 45.0686C72.6563 45.5846 72.1339 45.9199 71.5836 46.0657C70.8895 46.2589 70.1601 46.1592 69.4597 46.0495C68.7164 45.9323 67.9706 45.8301 67.2247 45.7354C66.513 45.6457 65.7999 45.5572 65.0793 45.5061C63.6912 45.4063 62.2373 45.4537 60.9211 45.9635C60.3124 46.1863 59.7719 46.5597 59.3512 47.0479C58.9712 47.4999 58.7199 48.0437 58.623 48.6234C58.5359 49.1742 58.6082 49.7382 58.8315 50.2502C59.0548 50.7623 59.42 51.2016 59.885 51.5176C60.0001 51.5944 60.1207 51.6627 60.2459 51.722C60.2483 51.7224 60.2506 51.722 60.2528 51.721C60.2549 51.72 60.2566 51.7183 60.2577 51.7162C60.2588 51.7142 60.2593 51.7118 60.259 51.7095C60.2586 51.7072 60.2576 51.7051 60.256 51.7033C59.331 51.034 58.6571 50.0007 58.7871 48.8889C58.8592 48.3198 59.0874 47.7811 59.4471 47.3308C59.8318 46.8553 60.3361 46.4878 60.9097 46.2651C62.1881 45.7404 63.6053 45.6831 64.9696 45.7666C66.4107 45.86 67.8418 46.0919 69.2742 46.2651C69.9784 46.3511 70.7116 46.4259 71.4095 46.2651C71.9468 46.1542 72.4268 45.8582 72.7636 45.43C72.8403 45.3225 72.9042 45.2067 72.9542 45.0848C72.9579 45.0648 72.9277 45.0461 72.9163 45.0686Z" fill="#263238"/>
<path d="M71.2139 42.7888C71.2139 42.7888 71.3085 44.5737 71.3149 44.7981C71.3149 44.7981 72.1705 45.4936 71.9774 45.8426C71.8298 46.1081 71.2038 46.5044 67.4494 45.9211C63.695 45.3378 59.0559 45.5945 58.7821 48.6732C58.5082 51.752 61.8992 53.1667 67.0405 52.9872C72.1818 52.8077 75.6397 50.9929 75.7306 47.797C75.7974 45.43 73.3757 43.2326 71.2139 42.7888Z" fill="white"/>
</g>
<path d="M47.9933 77.9983C47.0654 78.0211 46.1471 77.8088 45.3259 77.3818L2.84503 53.1541C2.08916 52.7235 1.67383 52.1095 1.67383 51.4267C1.67383 50.6292 2.24911 49.8445 3.25522 49.2712L28.8232 34.6923C30.6419 33.6553 33.3068 33.5509 34.8933 34.4579L77.3767 58.683C78.1326 59.1136 78.5479 59.7251 78.5479 60.4104C78.5479 61.2079 77.9726 61.9927 76.9665 62.5659L51.3986 77.1448C50.356 77.712 49.1836 78.0059 47.9933 77.9983ZM3.2191 52.5248L45.7025 76.7499C47.0594 77.5142 49.4535 77.4174 51.0349 76.5155L76.6028 61.9366C77.3767 61.4958 77.8127 60.9404 77.8127 60.4079C77.8127 59.8754 77.3767 59.5212 77.0104 59.3123L34.5244 35.0923C33.1675 34.328 30.776 34.4248 29.1921 35.3267L3.62412 49.9056C2.8502 50.3438 2.41422 50.8993 2.41422 51.4343C2.41422 51.9694 2.8502 52.321 3.21394 52.5299L3.2191 52.5248Z" fill="#414142"/>
<path d="M3.03074 51.2075L45.5116 75.4326C46.9743 76.2657 49.5257 76.1613 51.2128 75.1982L76.7808 60.6193C78.4705 59.6562 78.6536 58.2014 77.1909 57.3683L34.7101 33.1432C33.2474 32.31 30.696 32.4145 29.0063 33.3776L3.43835 47.9565C1.75119 48.9195 1.56802 50.3744 3.03074 51.2075Z" fill="#91B3FA"/>
<path d="M47.9933 76.3652C47.0654 76.388 46.1471 76.1757 45.3259 75.7486L2.84503 51.5235C2.08916 51.0929 1.67383 50.4789 1.67383 49.7961C1.67383 48.9986 2.24911 48.2139 3.25522 47.6406L28.8232 33.0617C30.6419 32.0247 33.3068 31.9228 34.8933 32.8299L77.3767 57.0524C78.1326 57.483 78.5479 58.097 78.5479 58.7798C78.5479 59.5773 77.9726 60.3621 76.9665 60.9353L51.3986 75.5142C50.3558 76.0805 49.1834 76.3735 47.9933 76.3652ZM3.2191 50.8917L45.6973 75.1167C47.0543 75.8811 49.4483 75.7843 51.0297 74.8823L76.5976 60.3035C77.3716 59.8652 77.8075 59.3098 77.8075 58.7747C77.8075 58.2397 77.3716 57.8881 77.0052 57.6792L34.5244 33.4617C33.1675 32.6974 30.776 32.7917 29.1921 33.6936L3.62412 48.2725C2.8502 48.7132 2.41422 49.2661 2.41422 49.8012C2.41422 50.3362 2.8502 50.6878 3.21394 50.8968L3.2191 50.8917Z" fill="#414142"/>
<path d="M3.03074 49.5872L45.5116 73.8097C46.9743 74.6428 49.5257 74.5384 51.2128 73.5753L76.7808 58.9964C78.4705 58.0359 78.6536 56.5785 77.1909 55.7454L34.7101 31.5254C33.2474 30.6922 30.696 30.7967 29.0063 31.7572L3.43835 46.3386C1.75119 47.2941 1.56802 48.7566 3.03074 49.5872Z" fill="#91B3FA"/>
<path d="M47.9933 74.7447C47.0654 74.7675 46.1471 74.5552 45.3259 74.1281L2.84503 49.9056C2.08916 49.475 1.67383 48.861 1.67383 48.1756C1.67383 47.3807 2.24911 46.5934 3.25522 46.0227L28.8232 31.4438C30.629 30.4043 33.3068 30.3024 34.8933 31.2094L77.3767 55.4319C78.1326 55.8625 78.5479 56.4765 78.5479 57.1619C78.5479 57.9568 77.9726 58.7441 76.9665 59.3149L51.3986 73.8937C50.3558 74.46 49.1834 74.753 47.9933 74.7447ZM3.2191 49.2737L45.7025 73.4963C47.0594 74.2606 49.4535 74.1638 51.0349 73.2619L76.6028 58.683C77.3767 58.2448 77.8127 57.6893 77.8127 57.1543C77.8127 56.6192 77.3767 56.2651 77.0104 56.0561L34.5244 31.8413C33.1675 31.0769 30.776 31.1737 29.1921 32.0757L3.62412 46.6545C2.8502 47.0928 2.41422 47.6482 2.41422 48.1832C2.41422 48.7183 2.8502 49.0725 3.21394 49.2814L3.2191 49.2737Z" fill="#414142"/>
<path d="M48.2178 77.6875C49.2663 77.665 50.2941 77.395 51.2154 76.9002L76.7834 62.3265C78.1016 61.5621 78.2642 60.1328 77.9082 59.6334C78.0807 59.3966 78.1736 59.1123 78.1736 58.8206C78.1736 58.5289 78.0807 58.2446 77.9082 58.0078C78.4241 57.2078 78.1945 56.3364 77.1858 55.7606L68.3192 50.7031H48.2178V77.6875Z" fill="#414142"/>
<path d="M3.03074 47.9564L45.5116 72.179C46.9743 73.0147 49.5257 72.9076 51.2128 71.9471L76.7808 57.3682C78.4705 56.4051 78.6536 54.9503 77.1909 54.1146L34.7101 29.8921C33.2474 29.0589 30.696 29.1634 29.0063 30.1265L3.43835 44.7054C1.75119 45.6684 1.56802 47.1233 3.03074 47.9564Z" fill="#91B3FA"/>
<path d="M33.4021 32.6489L7.78516 47.2584C6.40757 48.0456 6.03092 49.1616 6.73262 49.9999L41.3813 69.756C42.8672 70.4719 45.2509 70.3445 46.871 69.4248L72.439 54.8459C73.912 54.0076 74.2448 52.7923 73.3264 51.9413L38.9125 32.3228C37.424 31.5992 35.0248 31.7266 33.4021 32.6489Z" fill="#FDFDFD"/>
<path d="M47.9933 73.1141C47.0651 73.1369 46.1466 72.9237 45.3259 72.495L2.84503 48.2725C2.08916 47.8419 1.67383 47.2279 1.67383 46.545C1.67383 45.7475 2.24911 44.9628 3.25522 44.3895L28.8232 29.8107C30.629 28.7737 33.3068 28.6718 34.8933 29.5763L77.3767 53.7988C78.1326 54.2294 78.5479 54.8434 78.5479 55.5288C78.5479 56.3237 77.9726 57.111 76.9665 57.6843L51.3986 72.2632C50.3558 72.8295 49.1834 73.1224 47.9933 73.1141ZM3.2191 47.6406L45.7025 71.8631C47.0594 72.6275 49.4535 72.5332 51.0349 71.6313L76.6028 57.0524C77.3767 56.6116 77.8127 56.0562 77.8127 55.5237C77.8127 54.9912 77.3767 54.637 77.0104 54.4256L34.5244 30.2081C33.1675 29.4438 30.776 29.538 29.1921 30.4425L3.62412 45.0214C2.8502 45.4596 2.41422 46.0151 2.41422 46.5501C2.41422 47.0852 2.8502 47.4368 3.21394 47.6457L3.2191 47.6406Z" fill="#414142"/>
<path d="M69.2159 52.6157L43.2327 67.364L43.6016 67.998L69.5848 53.2497L69.2159 52.6157Z" fill="#414142"/>
<path d="M44.3576 35.1042L12.5322 53.1686L12.9011 53.8025L44.7265 35.7382L44.3576 35.1042Z" fill="#414142"/>
<path d="M37.521 34.5976L11.6643 49.3593L12.0335 49.9901L37.8903 35.2285L37.521 34.5976Z" fill="#414142"/>
<path d="M48.7106 74.6198L48.6538 74.0593C49.5015 73.9855 50.3245 73.7391 51.071 73.3357L76.639 58.7594C77.0499 58.5417 77.4033 58.2319 77.6709 57.8549L78.1507 58.1555C77.8373 58.6113 77.4169 58.9854 76.9254 59.246L51.3548 73.8249C50.5398 74.2705 49.6388 74.5414 48.7106 74.6198Z" fill="#91B3FA"/>
<path d="M48.7106 76.2735L48.6538 75.7155C49.5019 75.6421 50.3252 75.3947 51.071 74.9893L76.639 60.4105C77.0506 60.1928 77.4042 59.8819 77.6709 59.5034L78.1507 59.8066C77.8358 60.2611 77.4158 60.6349 76.9254 60.8971L51.3548 75.476C50.5405 75.9237 49.6392 76.1955 48.7106 76.2735Z" fill="#91B3FA"/>
<path d="M30.9722 34.6847C30.5407 34.6912 30.1147 34.5896 29.7339 34.3891C29.5505 34.3137 29.3939 34.1863 29.2837 34.0231C29.1735 33.8598 29.1147 33.668 29.1147 33.4719C29.1147 33.2757 29.1735 33.0839 29.2837 32.9207C29.3939 32.7575 29.5505 32.6301 29.7339 32.5546C30.1169 32.36 30.5414 32.2584 30.9722 32.2584C31.4029 32.2584 31.8274 32.36 32.2104 32.5546C32.3948 32.6292 32.5525 32.7562 32.6635 32.9195C32.7745 33.0829 32.8338 33.2752 32.8338 33.4719C32.8338 33.6686 32.7745 33.8609 32.6635 34.0242C32.5525 34.1875 32.3948 34.3146 32.2104 34.3891C31.8298 34.5899 31.4036 34.6916 30.9722 34.6847ZM30.9722 32.9852C30.6707 32.9798 30.3728 33.049 30.1054 33.1865C29.9506 33.2757 29.8474 33.3852 29.8474 33.4719C29.8474 33.5585 29.9428 33.6681 30.1054 33.7547C30.375 33.8873 30.6722 33.9563 30.9735 33.9563C31.2747 33.9563 31.5719 33.8873 31.8415 33.7547C31.9963 33.6681 32.0995 33.5585 32.0995 33.4719C32.0995 33.3852 32.0041 33.2757 31.8415 33.1891C31.5741 33.049 31.2748 32.9788 30.9722 32.9852Z" fill="#414142"/>
<path d="M26.638 37.1561C26.2069 37.1599 25.7822 37.0537 25.4049 36.8478C25.2213 36.7729 25.0644 36.6459 24.954 36.4828C24.8436 36.3198 24.7847 36.128 24.7847 35.9319C24.7847 35.7357 24.8436 35.544 24.954 35.3809C25.0644 35.2179 25.2213 35.0909 25.4049 35.0159C25.7874 34.8213 26.2115 34.7197 26.6419 34.7197C27.0722 34.7197 27.4963 34.8213 27.8788 35.0159C28.0624 35.0909 28.2193 35.2179 28.3297 35.3809C28.4401 35.544 28.499 35.7357 28.499 35.9319C28.499 36.128 28.4401 36.3198 28.3297 36.4828C28.2193 36.6459 28.0624 36.7729 27.8788 36.8478C27.4992 37.0549 27.0716 37.1611 26.638 37.1561ZM26.638 35.4567C26.3356 35.4495 26.0363 35.5188 25.7686 35.658C25.6138 35.7472 25.5106 35.8542 25.5106 35.9408C25.5106 36.0274 25.6061 36.137 25.7686 36.2262C26.0385 36.3582 26.3355 36.4269 26.6367 36.4269C26.9378 36.4269 27.2349 36.3582 27.5048 36.2262C27.6596 36.1395 27.7628 36.03 27.7628 35.9433C27.7628 35.8567 27.6673 35.7472 27.5048 35.658C27.2387 35.5196 26.9413 35.4503 26.6406 35.4567H26.638Z" fill="#414142"/>
<path d="M22.3091 39.6275C21.8773 39.6348 21.4509 39.5321 21.0709 39.3294C20.8873 39.2545 20.7304 39.1274 20.62 38.9644C20.5096 38.8013 20.4507 38.6096 20.4507 38.4134C20.4507 38.2173 20.5096 38.0255 20.62 37.8625C20.7304 37.6994 20.8873 37.5724 21.0709 37.4975C21.4535 37.3016 21.8782 37.1993 22.3091 37.1993C22.7401 37.1993 23.1648 37.3016 23.5474 37.4975C23.731 37.5724 23.8879 37.6994 23.9983 37.8625C24.1087 38.0255 24.1676 38.2173 24.1676 38.4134C24.1676 38.6096 24.1087 38.8013 23.9983 38.9644C23.8879 39.1274 23.731 39.2545 23.5474 39.3294C23.1677 39.5329 22.7411 39.6356 22.3091 39.6275ZM22.3091 37.9281C22.0075 37.9209 21.7091 37.9902 21.4424 38.1293C21.2876 38.216 21.1844 38.3255 21.1844 38.4122C21.1844 38.4988 21.2798 38.6083 21.4424 38.6975C21.7122 38.8296 22.0093 38.8983 22.3104 38.8983C22.6116 38.8983 22.9087 38.8296 23.1785 38.6975C23.3333 38.6083 23.4365 38.4988 23.4365 38.4122C23.4365 38.3255 23.3385 38.216 23.1785 38.1293C22.9109 37.9901 22.6116 37.9208 22.3091 37.9281Z" fill="#414142"/>
<path d="M17.9728 42.0964C17.5421 42.1033 17.1168 42.0016 16.7371 41.8008C16.5537 41.7254 16.3971 41.598 16.2869 41.4348C16.1767 41.2716 16.1179 41.0798 16.1179 40.8836C16.1179 40.6874 16.1767 40.4956 16.2869 40.3324C16.3971 40.1692 16.5537 40.0418 16.7371 39.9664C17.1196 39.7717 17.5437 39.6702 17.9741 39.6702C18.4044 39.6702 18.8285 39.7717 19.211 39.9664C19.3954 40.0409 19.5531 40.1679 19.6641 40.3313C19.7751 40.4946 19.8344 40.6869 19.8344 40.8836C19.8344 41.0803 19.7751 41.2726 19.6641 41.4359C19.5531 41.5993 19.3954 41.7263 19.211 41.8008C18.8304 42.0016 18.4042 42.1033 17.9728 42.0964ZM17.106 40.5982C16.9512 40.6874 16.848 40.797 16.848 40.8836C16.848 40.9702 16.946 41.0798 17.106 41.169C17.3758 41.301 17.6729 41.3697 17.9741 41.3697C18.2752 41.3697 18.5723 41.301 18.8421 41.169C18.9969 41.0798 19.1001 40.9702 19.1001 40.8836C19.1001 40.797 19.0047 40.6874 18.8421 40.5982C18.5727 40.4662 18.2761 40.3975 17.9753 40.3975C17.6746 40.3975 17.3779 40.4662 17.1085 40.5982H17.106Z" fill="#414142"/>
<path d="M13.6388 44.5678C13.2082 44.5748 12.7828 44.473 12.4031 44.2723C12.2188 44.1977 12.0611 44.0707 11.9501 43.9074C11.8391 43.744 11.7798 43.5518 11.7798 43.355C11.7798 43.1583 11.8391 42.966 11.9501 42.8027C12.0611 42.6394 12.2188 42.5123 12.4031 42.4378C12.7857 42.2432 13.2098 42.1416 13.6401 42.1416C14.0704 42.1416 14.4945 42.2432 14.8771 42.4378C15.0614 42.5123 15.2191 42.6394 15.3301 42.8027C15.4411 42.966 15.5004 43.1583 15.5004 43.355C15.5004 43.5518 15.4411 43.744 15.3301 43.9074C15.2191 44.0707 15.0614 44.1977 14.8771 44.2723C14.4965 44.4732 14.0703 44.575 13.6388 44.5678ZM13.6388 42.8709C13.3376 42.8647 13.0396 42.9331 12.772 43.0697C12.6172 43.1563 12.514 43.2659 12.514 43.3525C12.514 43.4391 12.6095 43.5487 12.772 43.6378C13.0417 43.7705 13.3388 43.8395 13.6401 43.8395C13.9413 43.8395 14.2385 43.7705 14.5082 43.6378C14.663 43.5512 14.7662 43.4417 14.7662 43.355C14.7662 43.2684 14.6707 43.1588 14.5082 43.0697C14.2398 42.9326 13.9409 42.8643 13.6388 42.8709Z" fill="#414142"/>
<path d="M9.3072 47.0393C8.87533 47.0469 8.44878 46.9442 8.06891 46.7412C7.88536 46.6662 7.72846 46.5392 7.61806 46.3761C7.50766 46.2131 7.44873 46.0213 7.44873 45.8252C7.44873 45.629 7.50766 45.4373 7.61806 45.2743C7.72846 45.1112 7.88536 44.9842 8.06891 44.9092C8.45146 44.7146 8.87557 44.613 9.30591 44.613C9.73624 44.613 10.1603 44.7146 10.5429 44.9092C10.7264 44.9842 10.8834 45.1112 10.9938 45.2743C11.1042 45.4373 11.1631 45.629 11.1631 45.8252C11.1631 46.0213 11.1042 46.2131 10.9938 46.3761C10.8834 46.5392 10.7264 46.6662 10.5429 46.7412C10.1638 46.9439 9.73821 47.0466 9.3072 47.0393ZM9.3072 45.3398C9.00491 45.334 8.70598 45.4032 8.43782 45.5411C8.28303 45.6303 8.17984 45.7398 8.17984 45.8265C8.17984 45.9131 8.2753 46.0227 8.43782 46.1093C8.7075 46.2419 9.00465 46.3109 9.30591 46.3109C9.60716 46.3109 9.90431 46.2419 10.174 46.1093C10.3288 46.0227 10.432 45.9131 10.432 45.8265C10.432 45.7398 10.3365 45.6303 10.174 45.5411C9.9066 45.4036 9.60861 45.3344 9.3072 45.3398Z" fill="#414142"/>
<path d="M14.0902 43.9818L13.1306 43.8671C13.1306 43.8442 13.3885 41.467 12.1554 39.9154C11.8346 39.5318 11.4382 39.2166 10.9903 38.9888C10.5424 38.7611 10.0524 38.6256 9.54986 38.5905C8.95242 38.5103 8.34416 38.5777 7.77958 38.7867C7.21501 38.9957 6.71173 39.3397 6.31485 39.788C5.86008 40.3205 5.5399 40.952 5.38068 41.6306C5.22146 42.3093 5.22775 43.0155 5.39904 43.6913L4.46 43.9155C4.24721 43.0909 4.2388 42.2278 4.4355 41.3993C4.63219 40.5708 5.02819 39.8013 5.58994 39.1561C6.08985 38.5921 6.72373 38.1595 7.43469 37.8971C8.14566 37.6347 8.91146 37.5508 9.66337 37.6529C11.0564 37.8083 12.1528 38.3765 12.9216 39.337C14.4101 41.2046 14.1031 43.8798 14.0902 43.9818Z" fill="#414142"/>
<path d="M18.4216 41.5588L17.4619 41.4442C17.4619 41.4213 17.7328 39.0441 16.4894 37.4925C16.1685 37.1089 15.7722 36.7937 15.3243 36.5659C14.8764 36.3382 14.3863 36.2027 13.8838 36.1676C13.2858 36.0856 12.6766 36.1514 12.1107 36.359C11.5447 36.5667 11.0398 36.9097 10.6411 37.3574C10.1868 37.8896 9.86707 38.5209 9.70829 39.1991C9.54951 39.8773 9.55622 40.583 9.72784 41.2582L8.78881 41.485C8.57704 40.6598 8.56989 39.7963 8.76793 38.9678C8.96598 38.1392 9.36339 37.3701 9.92648 36.7256C10.4265 36.1609 11.0607 35.7277 11.7722 35.4648C12.4836 35.202 13.25 35.1178 14.0025 35.2198C15.3956 35.3777 16.492 35.9434 17.2607 36.9039C18.7441 38.7715 18.4397 41.4467 18.4216 41.5588Z" fill="#414142"/>
<path d="M22.7554 39.0389L21.7958 38.9243C21.7958 38.9014 22.0666 36.5216 20.8206 34.97C20.5003 34.5861 20.1039 34.2708 19.6559 34.0435C19.2079 33.8161 18.7176 33.6814 18.2151 33.6477C17.6177 33.5649 17.0088 33.6301 16.4432 33.8373C15.8776 34.0446 15.3731 34.3874 14.9749 34.835C14.5193 35.367 14.1981 35.9983 14.038 36.677C13.8779 37.3556 13.8833 38.0621 14.0539 38.7383L13.1123 38.9625C12.9002 38.1379 12.8921 37.2749 13.0888 36.4465C13.2854 35.6181 13.6811 34.8487 14.2423 34.2031C14.7423 33.6384 15.3765 33.2052 16.0879 32.9424C16.7994 32.6796 17.5657 32.5954 18.3183 32.6973C19.7113 32.8553 20.8077 33.4209 21.5765 34.384C23.0831 36.2516 22.7683 38.9243 22.7554 39.0389Z" fill="#414142"/>
<path d="M27.0998 36.6439L26.1401 36.5318C26.1401 36.5064 26.3981 34.1292 25.165 32.5776C24.8449 32.1952 24.4496 31.8809 24.0031 31.6537C23.5567 31.4264 23.0682 31.2908 22.5672 31.2552C21.9698 31.1727 21.361 31.238 20.7954 31.4452C20.2299 31.6524 19.7253 31.9951 19.327 32.4425C18.8726 32.9738 18.5521 33.6037 18.3916 34.2808C18.231 34.9579 18.2351 35.6629 18.4034 36.3382L17.4644 36.5624C17.2516 35.7378 17.2432 34.8747 17.4399 34.0462C17.6366 33.2177 18.0326 32.4482 18.5943 31.803C19.0941 31.2387 19.7279 30.8057 20.4388 30.5429C21.1498 30.2801 21.9157 30.1957 22.6678 30.2972C24.0608 30.4552 25.1572 31.0208 25.926 31.9839C27.4197 33.8591 27.1127 36.5318 27.0998 36.6439Z" fill="#414142"/>
<path d="M31.4235 34.0885L30.4613 33.9738C30.4613 33.9509 30.7193 31.5737 29.4887 30.0221C29.1679 29.6385 28.7715 29.3233 28.3236 29.0955C27.8757 28.8678 27.3857 28.7323 26.8832 28.6972C26.2856 28.615 25.6766 28.6806 25.1111 28.8883C24.5455 29.096 24.0411 29.4392 23.643 29.887C23.1877 30.4192 22.8672 31.0508 22.7079 31.7295C22.5487 32.4082 22.5553 33.1146 22.7272 33.7904L21.7882 34.0171C21.5745 33.1926 21.5656 32.3293 21.7624 31.5006C21.9591 30.672 22.3556 29.9025 22.9181 29.2577C23.4174 28.6929 24.0512 28.2595 24.7622 27.9967C25.4733 27.7338 26.2394 27.6497 26.9915 27.7519C28.3846 27.9073 29.481 28.4755 30.2498 29.4361C31.7434 31.3011 31.4364 33.9738 31.4235 34.0885Z" fill="#414142"/>
<path d="M1.67121 49.0776C-0.0494881 47.2941 -0.482889 44.7997 0.564491 42.7079C0.987643 41.8328 1.68005 41.1123 2.54277 40.6492C3.40548 40.1861 4.39433 40.0042 5.36799 40.1295C6.76106 40.2849 7.85746 40.8531 8.62623 41.8136C10.1199 43.6812 9.81292 46.3565 9.80002 46.4686L8.84035 46.3539C8.84035 46.331 9.09833 43.9538 7.8652 42.4022C7.54436 42.0186 7.14798 41.7034 6.70009 41.4757C6.25221 41.2479 5.76215 41.1124 5.25965 41.0773C4.47871 40.9667 3.6825 41.1081 2.98946 41.4804C2.29642 41.8527 1.7436 42.4361 1.41323 43.1436C0.549015 44.866 0.915344 46.9374 2.35227 48.4202L1.67121 49.0776Z" fill="#414142"/>
<path d="M46.8764 56.0689L38.4277 60.8869L36.6528 59.8677L36.6193 56.3899C36.6241 55.6888 36.5724 54.9885 36.4645 54.2955C36.4022 53.9702 36.2683 53.6623 36.0724 53.3936C35.867 53.1303 35.6088 52.9117 35.3139 52.7515C34.867 52.4851 34.3525 52.3498 33.8305 52.3617C33.3283 52.3795 32.8382 52.5196 32.4039 52.7694C31.9822 52.998 31.6269 53.3296 31.372 53.7325C31.1361 54.1364 30.9794 54.5807 30.9103 55.0421L27.8765 54.8968C27.9289 54.3923 28.0658 53.8998 28.2815 53.4395C28.491 53.0641 28.7601 52.7243 29.0786 52.4331C29.5009 52.0541 29.9657 51.7242 30.464 51.4496C31.2136 51.0222 32.0281 50.7168 32.876 50.5451C33.6995 50.3744 34.5457 50.3383 35.381 50.4381C36.1487 50.523 36.8911 50.7604 37.5635 51.1362C38.0564 51.3997 38.4893 51.7605 38.8353 52.1961C39.1354 52.6035 39.3374 53.0732 39.426 53.5694C39.5342 54.3945 39.5411 55.2294 39.4467 56.0561L39.3564 57.7759L39.4725 57.8422L44.7378 54.8382L46.8764 56.0689Z" fill="#91B3FA"/>
<path d="M38.4276 61.3072L36.2839 60.0843L36.24 56.3975C36.2449 55.7214 36.1975 55.046 36.0981 54.377C36.0432 54.1023 35.9307 53.842 35.7679 53.6127C35.5916 53.3902 35.3713 53.2056 35.1204 53.07C34.7314 52.8389 34.2844 52.7206 33.8305 52.7286C33.3891 52.7452 32.9586 52.8685 32.5767 53.0878C32.2078 53.2856 31.8955 53.5722 31.6687 53.921C31.4565 54.2859 31.3156 54.6869 31.2533 55.1032L31.2017 55.4242L27.4353 55.2433L27.4895 54.8484C27.5465 54.3018 27.6966 53.7686 27.9332 53.2713C28.1612 52.8606 28.4548 52.489 28.8026 52.1706C29.2463 51.7724 29.7344 51.4253 30.2576 51.1362C31.0426 50.6893 31.8954 50.3701 32.7831 50.1909C33.6454 50.011 34.5319 49.9731 35.4067 50.0788C36.2233 50.1689 37.0131 50.4211 37.7285 50.8202C38.2656 51.1091 38.7371 51.5037 39.1138 51.9795C39.4482 52.4329 39.6732 52.9558 39.7717 53.5082C39.8873 54.3651 39.896 55.2328 39.7975 56.0918L39.7356 57.2663L44.7274 54.428L47.6141 56.0739L38.4276 61.3072ZM37.0139 59.6613L38.4225 60.4639L46.1308 56.0688L44.7222 55.2662L39.457 58.2676L38.9642 57.995L39.0674 56.051C39.158 55.254 39.1528 54.4492 39.0519 53.6535C38.9758 53.2117 38.7994 52.7927 38.536 52.4279C38.2184 52.0331 37.8236 51.7056 37.3751 51.4648C36.7447 51.1159 36.05 50.895 35.3319 50.8151C34.5369 50.7209 33.7317 50.7562 32.9482 50.9196C32.1386 51.0831 31.3608 51.3738 30.6445 51.7808C30.1729 52.0421 29.7324 52.3549 29.3314 52.7133C29.0413 52.9765 28.7964 53.2845 28.6065 53.6254C28.4606 53.9228 28.359 54.2395 28.3047 54.5656L30.6058 54.6777C30.6956 54.2845 30.8461 53.9072 31.0521 53.5592C31.3428 53.1028 31.7469 52.7274 32.2259 52.4687C32.7122 52.1894 33.2606 52.0328 33.8228 52.0126C34.4141 51.9992 34.9971 52.1511 35.5048 52.4509C35.8432 52.6362 36.1399 52.8876 36.3767 53.1897C36.6024 53.5013 36.7588 53.8564 36.8359 54.2318C36.9482 54.9483 37.0017 55.6725 36.9959 56.3975L37.0139 59.6613Z" fill="#414142"/>
<path d="M47.1755 45.1258C47.9305 45.5556 48.3441 46.0516 48.4164 46.6138C48.486 47.1769 48.21 47.7501 47.5805 48.3336L47.6295 48.3616C48.5981 47.9017 49.6515 47.6416 50.7252 47.5973C51.6556 47.5687 52.5756 47.7963 53.3824 48.2546C54.545 48.917 55.0291 49.6729 54.8348 50.5222C54.6405 51.3715 53.7625 52.2488 52.2009 53.1541C50.9101 53.8938 49.5145 54.4383 48.0604 54.7695L45.8856 53.5312C46.6062 53.3954 47.3165 53.2106 48.0113 52.9783C48.6679 52.767 49.3014 52.4913 49.9023 52.1554C50.7467 51.673 51.2266 51.2365 51.3418 50.8458C51.4579 50.4509 51.1973 50.0814 50.5679 49.7145C49.9924 49.3887 49.3153 49.2844 48.6666 49.4215C47.754 49.6338 46.8826 49.9918 46.0869 50.4814L45.171 51.0037L43.213 49.8878L44.1469 49.3553C45.0833 48.8202 45.6457 48.3616 45.8315 47.9743C46.0172 47.5871 45.816 47.2253 45.2201 46.8864C44.3068 46.3632 43.2749 46.4295 42.1243 47.0851C41.7441 47.2959 41.4015 47.567 41.1105 47.8877C40.8127 48.2339 40.5818 48.6311 40.4294 49.0597L37.4885 48.7285C37.7947 47.6482 38.7113 46.6724 40.2385 45.801C41.3804 45.1222 42.6556 44.6914 43.9792 44.5373C45.0809 44.3919 46.2008 44.5982 47.1755 45.1258Z" fill="#91B3FA"/>
<path d="M48.0011 55.1491L44.8409 53.3477L45.8186 53.1643C46.5181 53.0316 47.2077 52.852 47.8824 52.6267C48.5166 52.4226 49.1285 52.1563 49.7089 51.8318C50.6969 51.2687 50.9265 50.9018 50.9756 50.7336C51.053 50.4789 50.6892 50.2037 50.3693 50.0228C49.8714 49.7374 49.2833 49.6465 48.7209 49.768C47.8528 49.975 47.0244 50.3191 46.2675 50.7871L45.166 51.4165L42.4675 49.8877L43.956 49.0393C45.0911 48.3922 45.4059 47.9947 45.5039 47.8163C45.54 47.7425 45.638 47.5412 45.0395 47.2023C44.2424 46.7462 43.3524 46.8099 42.3205 47.3985C41.976 47.5922 41.6651 47.8391 41.3995 48.1297C41.1307 48.4409 40.9225 48.7985 40.7855 49.1845L40.6875 49.4521L37.0139 49.0342L37.1326 48.6215C37.4654 47.452 38.4508 46.3946 40.0555 45.4774C41.2371 44.7771 42.5563 44.3332 43.9251 44.1754C45.1063 44.0213 46.3066 44.2435 47.351 44.8099C48.2075 45.2965 48.6847 45.8902 48.7724 46.5679C48.814 46.9235 48.7513 47.2834 48.5919 47.6049C49.2791 47.3836 49.995 47.2609 50.7176 47.2405C51.7114 47.2117 52.6938 47.456 53.5553 47.9463C54.8684 48.6979 55.4153 49.5947 55.1806 50.6139C54.9587 51.577 54.0377 52.5095 52.3661 53.4624C51.0425 54.2193 49.6123 54.7775 48.1223 55.1185L48.0011 55.1491ZM46.8944 53.6764L48.1172 54.3745C49.4846 54.0465 50.7972 53.5265 52.0152 52.8305C53.4805 51.9948 54.3086 51.1948 54.4815 50.4508C54.5382 50.196 54.7136 49.4317 53.2071 48.5807C52.4576 48.157 51.604 47.9462 50.7408 47.9718C49.7152 48.0135 48.7087 48.2596 47.7818 48.6954L47.609 48.7718L46.9666 48.4049L47.3329 48.0584C47.867 47.5616 48.1069 47.0877 48.0553 46.6494C48.0037 46.2112 47.6425 45.7984 46.995 45.4315C46.0854 44.9427 45.0415 44.7535 44.0154 44.8914C42.7506 45.0404 41.5321 45.4519 40.4398 46.0991C39.2093 46.8023 38.3941 47.5743 38.0123 48.3922L40.2077 48.6469C40.3658 48.2758 40.5827 47.9318 40.85 47.6278C41.168 47.2782 41.5408 46.9814 41.9541 46.7488C43.2182 46.0303 44.3817 45.964 45.4162 46.5501C46.4507 47.1361 46.3346 47.7832 46.1746 48.1144C45.9502 48.5782 45.3672 49.0673 44.3404 49.6432L43.9612 49.8597L45.1814 50.5553L45.9141 50.1374C46.7435 49.6279 47.6514 49.2553 48.6022 49.0342C49.3365 48.8796 50.1027 48.9985 50.7537 49.368C51.7495 49.9362 51.8191 50.5247 51.7005 50.9196C51.556 51.4088 51.0297 51.9082 50.0933 52.4484C49.4701 52.7965 48.8133 53.0824 48.1327 53.3019C47.7199 53.4497 47.3071 53.5745 46.8944 53.6764Z" fill="#414142"/>
<defs>
<filter id="filter0_d" x="16.6025" y="0" width="79.3574" height="78.2841" filterUnits="userSpaceOnUse" color-interpolation-filters="sRGB">
<feFlood flood-opacity="0" result="BackgroundImageFix"/>
<feColorMatrix in="SourceAlpha" type="matrix" values="0 0 0 0 0 0 0 0 0 0 0 0 0 0 0 0 0 0 127 0"/>
<feOffset dy="4"/>
<feGaussianBlur stdDeviation="10"/>
<feColorMatrix type="matrix" values="0 0 0 0 0 0 0 0 0 0 0 0 0 0 0 0 0 0 0.3 0"/>
<feBlend mode="normal" in2="BackgroundImageFix" result="effect1_dropShadow"/>
<feBlend mode="normal" in="SourceGraphic" in2="effect1_dropShadow" result="shape"/>
</filter>
</defs>
</svg>
