<svg width="638" height="503" viewBox="0 0 638 503" fill="none" xmlns="http://www.w3.org/2000/svg">
<path d="M391.504 197.677C391.504 197.677 369.113 205.696 364.885 219.55C360.656 233.404 383.14 268.463 383.14 268.463C383.14 268.463 373.106 274.965 372.185 277.564C371.263 280.163 376.28 284.309 376.28 284.309C376.28 284.309 376.096 287.403 379.781 289.779C383.467 292.156 388.464 289.779 388.464 289.779C390.954 291.098 393.76 291.727 396.583 291.599C401.374 291.417 411.715 279.748 412.821 277.928C413.927 276.108 391.504 197.677 391.504 197.677Z" fill="white"/>
<path d="M371.283 210.51C368.72 212.63 366.528 215.151 364.792 217.973C363.945 219.41 363.206 220.908 362.581 222.452C361.914 223.957 361.436 225.536 361.158 227.154C361.024 228.095 360.871 229.025 360.768 229.976C360.641 230.814 360.641 231.666 360.768 232.504C360.768 232.575 360.881 232.575 360.912 232.504C361.099 232.083 361.236 231.642 361.321 231.189C361.454 230.684 361.629 230.178 361.792 229.693C362.099 228.752 362.468 227.842 362.816 226.922C363.504 224.997 364.304 223.113 365.212 221.279C366.123 219.479 367.198 217.77 368.283 216.051C369.364 214.3 370.594 212.642 371.959 211.096C372.038 211.008 372.078 210.892 372.07 210.774C372.062 210.657 372.008 210.547 371.918 210.469C371.828 210.392 371.711 210.352 371.592 210.36C371.473 210.367 371.362 210.421 371.283 210.51Z" fill="white"/>
<path d="M367.69 218.781C367.131 219.399 366.608 220.047 366.123 220.723C365.699 221.372 365.32 222.047 364.987 222.745C364.276 224.227 363.763 225.794 363.461 227.407C362.768 230.627 362.824 233.96 363.625 237.155C363.625 237.196 363.641 237.234 363.67 237.263C363.699 237.291 363.738 237.307 363.779 237.307C363.819 237.307 363.858 237.291 363.887 237.263C363.916 237.234 363.932 237.196 363.932 237.155C364.219 235.639 364.332 234.122 364.536 232.544C364.741 230.967 364.936 229.511 365.253 227.963C365.574 226.466 365.977 224.988 366.461 223.534C366.939 222.05 367.588 220.625 368.396 219.287C368.433 219.195 368.437 219.094 368.409 218.999C368.381 218.905 368.322 218.822 368.241 218.764C368.16 218.706 368.062 218.676 367.962 218.68C367.863 218.683 367.767 218.719 367.69 218.781Z" fill="white"/>
<g opacity="0.1">
<path opacity="0.1" d="M391.504 197.677C391.504 197.677 369.112 205.696 364.884 219.55C360.656 233.404 383.139 268.463 383.139 268.463C383.139 268.463 373.105 274.965 372.184 277.564C371.263 280.163 376.279 284.309 376.279 284.309C376.279 284.309 376.095 287.403 379.781 289.779C383.467 292.156 388.463 289.779 388.463 289.779C390.954 291.098 393.759 291.727 396.582 291.599C401.374 291.417 411.714 279.748 412.82 277.928C413.926 276.108 391.504 197.677 391.504 197.677Z" fill="black"/>
<path opacity="0.1" d="M371.283 210.51C368.72 212.629 366.528 215.151 364.792 217.972C363.945 219.41 363.206 220.907 362.581 222.452C361.914 223.956 361.436 225.535 361.158 227.154C361.024 228.095 360.871 229.025 360.768 229.976C360.641 230.814 360.641 231.666 360.768 232.504C360.768 232.574 360.881 232.574 360.912 232.504C361.099 232.082 361.236 231.641 361.321 231.189C361.454 230.683 361.629 230.178 361.792 229.692C362.099 228.752 362.468 227.842 362.816 226.922C363.504 224.997 364.304 223.113 365.212 221.279C366.123 219.479 367.198 217.77 368.283 216.051C369.364 214.3 370.594 212.642 371.959 211.096C372.038 211.008 372.078 210.892 372.07 210.774C372.062 210.657 372.008 210.547 371.918 210.469C371.828 210.391 371.711 210.352 371.592 210.359C371.473 210.367 371.362 210.421 371.283 210.51Z" fill="black"/>
<path opacity="0.1" d="M367.689 218.781C367.131 219.399 366.608 220.047 366.123 220.723C365.699 221.371 365.32 222.047 364.987 222.745C364.275 224.227 363.762 225.794 363.461 227.407C362.767 230.627 362.823 233.96 363.625 237.155C363.625 237.195 363.641 237.234 363.67 237.262C363.699 237.291 363.738 237.307 363.778 237.307C363.819 237.307 363.858 237.291 363.887 237.262C363.916 237.234 363.932 237.195 363.932 237.155C364.219 235.638 364.331 234.122 364.536 232.544C364.741 230.967 364.935 229.51 365.253 227.963C365.574 226.466 365.977 224.988 366.461 223.534C366.939 222.05 367.588 220.625 368.396 219.287C368.432 219.195 368.437 219.094 368.409 218.999C368.381 218.905 368.322 218.822 368.241 218.764C368.16 218.706 368.062 218.676 367.962 218.679C367.862 218.683 367.766 218.718 367.689 218.781Z" fill="black"/>
</g>
<path d="M412.79 277.827C411.684 279.657 401.343 291.327 396.552 291.499C393.725 291.629 390.916 291 388.422 289.678C388.422 289.678 383.436 292.055 379.761 289.678C376.085 287.302 376.249 284.208 376.249 284.208C376.249 284.208 371.263 280.021 372.153 277.473C373.044 274.925 383.109 268.372 383.109 268.372C388.514 267.462 394.422 269.535 394.422 269.535C391.803 268.276 388.947 267.566 386.037 267.452C390.368 266.879 394.773 267.604 398.681 269.535C402.94 271.511 407.463 272.873 412.114 273.58C412.687 276.087 412.933 277.564 412.79 277.827Z" fill="#FDFDFD"/>
<path d="M412.79 277.827C411.684 279.657 401.344 291.326 396.552 291.498C394.755 291.567 392.959 291.338 391.238 290.821L401.866 270.96C405.185 272.171 408.613 273.065 412.104 273.63C412.688 276.087 412.933 277.564 412.79 277.827Z" fill="#DBDBDB"/>
<path d="M381.594 272.032C380.612 272.721 379.685 273.482 378.819 274.308C377.86 275.145 377.038 276.124 376.382 277.21C375.195 279.384 375.87 281.932 376.167 284.288C376.167 284.39 376.331 284.38 376.321 284.288C375.94 282.026 376.298 279.702 377.345 277.655C378.563 275.676 380.036 273.861 381.727 272.255C381.849 272.113 381.696 271.962 381.594 272.032Z" fill="#263238"/>
<path d="M394.955 276.259C392.776 277.802 390.893 279.716 389.395 281.912C388.738 282.996 388.31 284.2 388.136 285.451C388.018 286.816 388.171 288.19 388.586 289.496C388.586 289.567 388.719 289.567 388.73 289.496C388.914 288.232 389.027 286.958 389.303 285.704C389.581 284.554 390.012 283.446 390.583 282.408C391.137 281.342 391.784 280.327 392.518 279.374C393.316 278.363 394.207 277.351 395.047 276.34C395.098 276.32 395.026 276.209 394.955 276.259Z" fill="#263238"/>
<path d="M362.458 68.2408C358.823 68.7261 351.462 17.2043 363.994 0.266369C365.796 -2.17068 403.923 15.8796 404.487 17.2043C405.05 18.529 369.942 67.2295 362.458 68.2408Z" fill="white"/>
<path opacity="0.2" d="M404.486 17.1639C404.671 17.5785 401.364 22.6245 396.521 29.3795C388.33 16.1022 364.71 1.72257 364.127 2.0765C363.543 2.43043 359.652 16.5471 359.233 31.9076C358.751 50.1096 362.816 62.3049 364.782 67.088C364.103 67.6303 363.308 68.014 362.458 68.2104C358.833 68.6958 351.472 17.174 364.004 0.225964C365.796 -2.21108 403.903 15.8392 404.486 17.1639Z" fill="black"/>
<path d="M374.222 63.1039C373.899 61.4999 373.492 59.9135 373.003 58.3511C372.536 56.794 371.979 55.2645 371.335 53.7703C370.091 50.7822 368.442 47.9754 366.43 45.4277C365.431 44.1639 364.302 43.005 363.062 41.9693C362.458 41.4334 361.792 40.9581 361.137 40.4929C360.482 40.0278 359.775 39.6233 359.09 39.2592C358.372 38.8818 357.634 38.5442 356.878 38.248C356.11 37.9952 355.353 37.6716 354.554 37.4896C352.966 37.042 351.343 36.7308 349.701 36.5593C353.062 36.4756 356.396 37.1681 359.438 38.5817C362.497 40.0376 365.175 42.173 367.26 44.8209C369.336 47.4393 370.968 50.3728 372.092 53.5073C373.244 56.5946 373.961 59.8237 374.222 63.1039Z" fill="#263238"/>
<path d="M376.423 61.8599C376.354 59.5114 376.125 57.1702 375.737 54.8521C375.375 52.5365 374.876 50.2439 374.243 47.9859C373.011 43.4712 371.154 39.1462 368.724 35.1333C367.514 33.1345 366.144 31.2342 364.629 29.4502C363.083 27.6874 361.402 26.0444 359.602 24.5357C357.798 23.0213 355.862 21.6678 353.817 20.4908C351.771 19.285 349.643 18.2207 347.449 17.3054C352.025 18.7637 356.308 21.002 360.103 23.9188C363.875 26.9018 367.079 30.5246 369.564 34.6175C372.015 38.7111 373.836 43.1414 374.97 47.7634C376.138 52.3687 376.628 57.1165 376.423 61.8599Z" fill="#263238"/>
<path d="M496.857 76.8766C500.277 78.1507 519.249 29.6222 510.925 10.3078C509.737 7.53707 468.477 16.5976 467.606 17.7706C466.736 18.9437 489.793 74.2373 496.857 76.8766Z" fill="white"/>
<path opacity="0.2" d="M467.616 17.7707C467.34 18.1246 469.398 23.7774 472.572 31.4424C483.619 20.319 509.891 11.6124 510.382 12.0775C510.873 12.5427 511.406 27.1751 508.334 42.2322C504.638 60.0499 497.871 71.0318 494.871 75.2587C495.409 75.9332 496.09 76.4822 496.867 76.8665C500.297 78.1508 519.269 29.6222 510.945 10.3079C509.727 7.56747 468.476 16.6078 467.616 17.7707Z" fill="black"/>
<path d="M497.318 63.1037C497.579 59.815 498.302 56.5782 499.468 53.487C500.593 50.3525 502.225 47.4189 504.301 44.8006C506.391 42.1573 509.067 40.0228 512.123 38.5613C515.168 37.1476 518.506 36.4551 521.87 36.5389C520.228 36.7093 518.604 37.0206 517.017 37.4692C516.218 37.6512 515.461 37.9748 514.682 38.2276C513.93 38.5239 513.195 38.8615 512.481 39.2389C511.754 39.6029 511.089 40.0579 510.434 40.4725C509.778 40.8871 509.113 41.413 508.519 41.9489C507.276 42.9845 506.144 44.1434 505.14 45.4073C503.129 47.9551 501.479 50.7618 500.236 53.7499C498.978 56.7635 498.015 59.8889 497.359 63.0835L497.318 63.1037Z" fill="#263238"/>
<path d="M495.107 61.8599C494.893 57.1241 495.376 52.3826 496.54 47.7837C497.674 43.1635 499.492 38.7339 501.936 34.6378C504.434 30.5456 507.652 26.9261 511.437 23.9492C515.229 21.0325 519.508 18.7943 524.081 17.3358C521.89 18.2511 519.766 19.3154 517.723 20.5212C515.675 21.6981 513.736 23.0517 511.928 24.5661C510.129 26.0723 508.451 27.7155 506.912 29.4806C505.393 31.2621 504.023 33.1627 502.816 35.1637C500.378 39.1724 498.521 43.4986 497.298 48.0163C496.655 50.2719 496.155 52.5651 495.803 54.8825C495.413 57.1903 495.181 59.5214 495.107 61.8599Z" fill="#263238"/>
<path d="M349.67 93.3698C349.67 100.044 358.096 119.247 375.512 132.737C375.512 132.737 382.085 217.76 383.529 224.697C384.972 231.634 403.33 284.278 403.268 285.007C403.207 285.735 395.323 292.085 394.299 294.209C393.534 296.041 393.054 297.978 392.876 299.952C392.876 300.438 397.504 305.534 400.207 305.737C400.207 305.737 408.203 310.843 414.623 307.547C414.623 307.547 420.581 308.72 423.837 307.628C427.093 306.535 434.843 299.184 437.628 296.716C440.413 294.249 439.481 289.355 439.481 289.355L458.801 290.801C458.801 290.801 459.999 299.356 461.166 301.924C462.333 304.493 470.053 309.903 473.094 310.489C476.135 311.076 481.367 308.801 481.367 308.801C481.367 308.801 486.793 310.419 490.581 309.812C494.369 309.205 496.96 303.957 496.96 303.957C499.045 303.176 500.999 302.089 502.755 300.731C504.741 298.931 500.093 292.004 497.38 290.336C495.856 289.368 494.137 288.74 492.342 288.495C492.342 288.495 546.237 287.16 556.691 285.987C567.144 284.814 577.7 282.438 579.215 279.141C580.73 275.845 579.788 210.449 576.277 201.409C572.765 192.368 553.998 166.845 547.261 161.465C540.524 156.086 504.608 122.21 504.608 122.21C504.608 122.21 519.853 102.592 521.645 89.8507C522.187 85.9878 484.438 27.8425 471.026 19.2876C457.614 10.7326 406.227 14.9697 400.002 18.6101C381.849 29.1875 349.67 89.5271 349.67 93.3698Z" fill="white"/>
<path d="M383.897 217.164C384.071 215.354 384.286 213.533 384.573 211.723C384.591 211.583 384.556 211.441 384.475 211.324C384.394 211.207 384.272 211.124 384.133 211.09C383.994 211.057 383.847 211.075 383.72 211.141C383.594 211.207 383.496 211.317 383.446 211.45C382.846 213.213 382.38 215.018 382.054 216.85C381.754 218.7 381.586 220.569 381.552 222.442C381.44 225.981 381.44 229.915 383.15 233.131C383.15 233.181 383.283 233.131 383.293 233.131C383.846 229.642 383.344 226.052 383.467 222.523C383.559 220.713 383.754 218.913 383.897 217.164Z" fill="white"/>
<path d="M384.614 207.837C382.326 210.712 380.749 214.074 380.007 217.656C379.552 219.413 379.285 221.213 379.208 223.025C379.157 223.925 379.157 224.826 379.208 225.725C379.329 226.616 379.538 227.494 379.833 228.344C379.833 228.435 380.027 228.446 380.037 228.344C380.171 227.495 380.426 226.656 380.519 225.806C380.611 224.957 380.682 224.138 380.805 223.309C381.071 221.6 381.348 219.891 381.829 218.202C382.823 214.877 384.054 211.626 385.515 208.474C385.709 207.958 385.054 207.331 384.614 207.837Z" fill="white"/>
<path d="M355.813 81.3058C354.513 82.8545 353.313 84.4824 352.22 86.1799C351.161 87.889 350.246 89.6816 349.486 91.5394C348.661 93.3814 347.997 95.2894 347.5 97.2427C347.092 99.2469 346.801 101.273 346.629 103.31C346.629 103.543 346.926 103.644 346.998 103.401C347.561 101.51 348.319 99.6696 349.046 97.8393C349.773 96.009 350.407 94.1584 351.186 92.3484C351.964 90.5383 352.824 88.7585 353.684 86.9788C354.544 85.199 355.394 83.4294 356.387 81.7204C356.612 81.3867 356.079 80.9822 355.813 81.3058Z" fill="white"/>
<path d="M353.633 89.1326C352.698 90.7474 351.907 92.4391 351.267 94.1888C350.67 95.9201 350.228 97.6999 349.947 99.5078C349.44 103.124 349.603 106.8 350.428 110.358C350.435 110.378 350.448 110.396 350.465 110.409C350.483 110.421 350.504 110.428 350.525 110.428C350.547 110.428 350.568 110.421 350.585 110.409C350.603 110.396 350.616 110.378 350.622 110.358C350.626 106.791 350.948 103.231 351.585 99.7201C351.869 97.987 352.242 96.2691 352.701 94.573C353.125 92.8397 353.638 91.1286 354.237 89.4461C354.38 89.0214 353.807 88.8091 353.633 89.1326Z" fill="white"/>
<path d="M516.873 80.8103C515.504 79.0046 514.005 77.298 512.389 75.7036C512.286 75.5924 512.082 75.7036 512.174 75.8755C514.534 79.0867 516.591 82.5056 518.317 86.0888C519.187 87.8281 520.037 89.5877 520.764 91.3877C521.491 93.1876 522.156 95.1191 522.812 96.9999C523.579 99.1134 524.153 101.288 524.777 103.441C524.783 103.457 524.794 103.47 524.807 103.48C524.821 103.489 524.837 103.494 524.854 103.494C524.871 103.494 524.887 103.489 524.901 103.48C524.915 103.47 524.925 103.457 524.931 103.441C525.013 95.3011 521.757 87.2416 516.873 80.8103Z" fill="white"/>
<path d="M521.429 100.681C521.421 99.8628 521.366 99.0458 521.266 98.2337C521.101 96.5689 520.807 94.9191 520.385 93.299C519.438 90.1051 518.219 86.9962 516.74 84.0058C516.658 83.8339 516.361 84.0058 516.423 84.1474C517.447 87.2316 518.122 90.4675 518.87 93.6327C519.238 95.2001 519.638 96.7574 520.047 98.3146C520.252 99.1034 520.436 99.9124 520.662 100.691C520.887 101.47 521.01 102.299 521.286 103.057C521.286 103.118 521.419 103.128 521.429 103.057C521.47 102.266 521.47 101.473 521.429 100.681Z" fill="white"/>
<path d="M566.489 179.839C564.984 177.908 563.519 175.956 561.984 174.065C560.434 172.193 558.754 170.429 556.957 168.787C555.155 167.138 553.332 165.51 551.397 164.014C549.462 162.517 547.302 161.202 545.254 159.837C544.148 159.089 542.971 158.442 541.824 157.744C540.678 157.046 539.418 156.268 538.179 155.58C538.097 155.529 538.026 155.651 538.108 155.711C540.155 157.127 542.101 158.553 543.995 160.12C545.889 161.688 547.64 163.225 549.442 164.802C551.244 166.38 553.107 167.917 554.888 169.525C555.81 170.354 556.711 171.193 557.602 172.053C558.492 172.912 559.414 173.64 560.305 174.439C562.352 176.26 564.4 178.019 566.274 179.981C566.396 180.072 566.571 179.94 566.489 179.839Z" fill="white"/>
<path d="M580.566 206.839C579.669 204.701 578.644 202.617 577.495 200.6C576.389 198.577 575.191 196.555 573.922 194.532C572.642 192.623 571.233 190.802 569.703 189.082C567.994 187.11 566.171 185.249 564.41 183.318C564.349 183.247 564.246 183.318 564.308 183.429C567.267 186.958 569.427 191.023 571.915 194.896C573.123 196.818 574.3 198.759 575.406 200.741C576.512 202.723 577.454 204.786 578.478 206.809C579.635 209.084 580.853 211.339 582.01 213.614C582.174 213.928 582.634 213.685 582.552 213.371C582.049 211.15 581.385 208.967 580.566 206.839Z" fill="white"/>
<path d="M581.621 217.143C581.258 215.378 580.744 213.646 580.085 211.966C579.45 210.338 578.713 208.77 577.925 207.213C577.131 205.563 576.225 203.969 575.212 202.44C575.16 202.38 575.038 202.44 575.068 202.501C575.713 204.129 576.42 205.737 577.034 207.375C577.648 209.013 578.181 210.702 578.703 212.431C579.225 214.16 579.727 215.788 580.321 217.487C580.914 219.186 581.344 220.855 581.928 222.543C581.943 222.59 581.975 222.629 582.018 222.654C582.06 222.679 582.11 222.688 582.159 222.68C582.208 222.671 582.251 222.645 582.282 222.607C582.313 222.569 582.329 222.521 582.327 222.473C582.262 220.678 582.026 218.894 581.621 217.143Z" fill="white"/>
<path d="M384.542 34.0008C381.225 38.1569 377.815 42.2827 374.785 46.6411C371.754 50.9994 368.887 55.5499 366.287 60.1813C364.765 62.8257 363.398 65.5537 362.191 68.352C362.178 68.3762 362.175 68.4046 362.182 68.4312C362.19 68.4577 362.208 68.4802 362.232 68.4936C362.257 68.507 362.286 68.5103 362.313 68.5027C362.339 68.4951 362.362 68.4773 362.376 68.4531C365.447 64.0948 368.171 59.4735 370.997 54.9533C373.822 50.4332 376.75 45.9939 379.597 41.494C381.194 38.9558 382.873 36.4378 384.603 34.021C384.573 34.0008 384.552 33.9907 384.542 34.0008Z" fill="#263238"/>
<path d="M505.058 61.1622C502.068 56.5814 499.161 51.9702 495.936 47.5411C492.71 43.1119 489.434 38.9052 485.912 34.7896C485.912 34.7896 485.789 34.7896 485.82 34.8603C488.779 39.4007 491.881 43.84 495.035 48.2388C498.188 52.6376 501.628 56.8949 504.894 61.2532C504.906 61.2747 504.927 61.2905 504.951 61.2971C504.975 61.3038 505 61.3007 505.022 61.2886C505.044 61.2766 505.06 61.2565 505.067 61.2328C505.073 61.2091 505.07 61.1837 505.058 61.1622Z" fill="#263238"/>
<path d="M450.6 189.244C444.007 188.768 438.314 184.329 435.591 179.202C434.501 177.166 433.807 174.947 433.543 172.659C434.109 172.462 434.643 172.186 435.13 171.84C436.483 170.749 437.538 169.341 438.202 167.745C439.058 166.007 439.566 164.122 439.696 162.193C439.758 160.798 439.696 158.492 437.987 157.835C436.277 157.178 434.915 158.735 434.331 159.857C433.503 161.555 432.894 163.349 432.519 165.197C432.058 167.247 431.876 169.348 431.977 171.446C431.539 171.491 431.097 171.47 430.666 171.385C427.103 170.728 425.547 167.462 425.168 164.59C424.749 161.224 424.846 157.815 425.455 154.478C426.691 147.576 429.319 140.99 433.185 135.113C433.656 134.385 434.106 133.647 434.618 132.939C434.669 132.858 434.526 132.787 434.475 132.868C429.775 139.319 425.782 146.176 424.083 153.76C423.176 157.434 422.943 161.239 423.397 164.994C423.888 168.422 425.813 172.002 429.96 172.831C430.663 172.977 431.386 173.008 432.1 172.922C432.24 174.146 432.494 175.354 432.857 176.532C433.956 179.837 435.952 182.781 438.628 185.044C441.303 187.306 444.555 188.801 448.03 189.365C448.865 189.483 449.706 189.551 450.549 189.567C450.897 189.648 450.877 189.274 450.6 189.244ZM433.379 169.363C433.413 167.66 433.625 165.966 434.014 164.307C434.219 163.457 434.465 162.608 434.751 161.769C434.969 160.993 435.315 160.259 435.775 159.594C436.195 159.069 437.024 158.28 437.823 158.765C438.621 159.251 438.55 160.232 438.591 160.899C438.644 162.669 438.294 164.428 437.567 166.046C436.799 167.836 435.519 170.192 433.471 171.102C433.39 170.536 433.369 169.949 433.379 169.363Z" fill="#263238"/>
<path d="M444.457 244.416C440.362 239.784 425.741 221.522 422.445 216.395C415.81 206.091 410.322 195.048 404.599 184.309C401.353 178.241 397.688 171.001 394.637 164.823C394.586 164.732 394.422 164.772 394.463 164.873C399.398 175.997 403.268 186.766 408.049 196.888C413.475 207.992 420.185 218.436 428.045 228.014C432.407 233.464 439.225 239.653 444.242 244.618C444.304 244.669 444.549 244.527 444.457 244.416Z" fill="#263238"/>
<path d="M440.751 270.485C440.679 263.912 440.342 257.339 439.973 250.787C439.768 247.055 439.512 243.314 439.369 239.582C439.369 239.547 439.355 239.514 439.33 239.489C439.305 239.465 439.271 239.451 439.236 239.451C439.201 239.451 439.167 239.465 439.142 239.489C439.117 239.514 439.103 239.547 439.103 239.582C439.103 246.155 438.908 252.728 438.867 259.311C438.826 265.894 439 272.457 439.307 279.01C439.492 282.762 439.83 286.493 440.137 290.224C440.145 290.254 440.163 290.281 440.188 290.299C440.213 290.318 440.244 290.328 440.275 290.328C440.306 290.328 440.337 290.318 440.362 290.299C440.387 290.281 440.405 290.254 440.413 290.224C440.536 286.938 440.731 283.651 440.761 280.355C440.792 277.058 440.782 273.772 440.751 270.485Z" fill="#263238"/>
<path d="M459.006 281.791C459.006 278.565 458.955 275.339 458.832 272.113C458.6 265.662 458.282 259.214 457.88 252.769C457.654 249.098 457.347 245.417 457.112 241.746C457.112 241.693 457.09 241.641 457.052 241.603C457.013 241.565 456.961 241.544 456.907 241.544C456.853 241.544 456.801 241.565 456.762 241.603C456.724 241.641 456.702 241.693 456.702 241.746C456.774 248.198 456.702 254.65 456.897 261.101C457.091 267.553 457.337 274.004 457.757 280.446C457.869 282.266 457.992 284.076 458.146 285.886C458.217 286.756 458.299 287.615 458.371 288.475C458.443 289.334 458.596 290.224 458.647 291.104C458.654 291.122 458.665 291.137 458.681 291.148C458.697 291.159 458.715 291.165 458.734 291.165C458.754 291.165 458.772 291.159 458.788 291.148C458.803 291.137 458.815 291.122 458.821 291.104C458.97 289.633 459.032 288.154 459.006 286.675C459.026 285.067 459.016 283.429 459.006 281.791Z" fill="#263238"/>
<path d="M511.877 233.919C512.628 228.405 513.416 222.904 514.242 217.416C514.242 217.379 514.227 217.343 514.2 217.316C514.173 217.29 514.137 217.275 514.099 217.275C514.061 217.275 514.024 217.29 513.997 217.316C513.971 217.343 513.955 217.379 513.955 217.416C513.109 222.223 512.225 227.02 511.304 231.806C510.392 236.559 509.645 241.342 508.652 246.085C507.54 250.766 505.931 255.318 503.85 259.665C501.874 264.094 499.908 268.534 498.024 273.013C497.001 275.531 495.895 278.069 494.861 280.577C494.339 281.841 493.837 283.095 493.304 284.369C492.772 285.644 492.352 287.039 491.851 288.364C491.834 288.399 491.833 288.438 491.846 288.474C491.86 288.51 491.887 288.54 491.922 288.556C491.958 288.572 491.998 288.574 492.034 288.56C492.071 288.547 492.101 288.52 492.117 288.485C492.69 287.383 493.325 286.341 493.878 285.229C494.431 284.117 494.963 283.024 495.485 281.912C496.509 279.687 497.615 277.473 498.659 275.248C500.758 270.799 502.755 266.329 504.802 261.849C505.826 259.675 506.737 257.491 507.577 255.256C508.369 253.016 509.008 250.725 509.491 248.4C510.618 243.607 511.252 238.733 511.877 233.919Z" fill="#263238"/>
<path d="M437.669 296.706C434.874 299.184 427.164 306.535 423.878 307.627C420.591 308.72 414.663 307.557 414.663 307.557C408.244 310.843 400.248 305.747 400.248 305.747C397.545 305.534 392.876 300.438 392.917 299.952C393.094 297.978 393.574 296.041 394.34 294.209C395.364 292.095 403.248 285.734 403.309 284.996C408.09 283.914 412.872 283.439 421.881 286.402C418.674 284.297 414.889 283.213 411.039 283.297C411.039 283.297 428.956 281.983 439.563 289.365C439.522 289.355 440.444 294.239 437.669 296.706Z" fill="#FDFDFD"/>
<path d="M407.22 290.366C405.909 291.203 404.685 292.165 403.565 293.238C402.438 294.222 401.499 295.396 400.79 296.706C400.144 297.965 399.768 299.342 399.685 300.751C399.69 302.413 399.999 304.061 400.596 305.615C400.596 305.686 400.749 305.676 400.739 305.615C400.524 304.046 400.504 302.457 400.678 300.883C400.916 299.582 401.406 298.339 402.121 297.222C402.829 296.041 403.638 294.921 404.538 293.875C405.479 292.783 406.585 291.852 407.486 290.72C407.64 290.518 407.445 290.234 407.22 290.366Z" fill="#263238"/>
<path d="M422.025 292.085C419.53 293.862 417.421 296.114 415.82 298.709C415.085 300.041 414.647 301.514 414.534 303.027C414.421 304.541 414.636 306.061 415.165 307.486C415.171 307.501 415.181 307.515 415.195 307.524C415.209 307.534 415.225 307.539 415.242 307.539C415.259 307.539 415.275 307.534 415.289 307.524C415.302 307.515 415.313 307.501 415.319 307.486C415.288 306.001 415.411 304.517 415.687 303.057C416.035 301.73 416.53 300.445 417.162 299.224C417.778 297.943 418.508 296.718 419.343 295.564C420.223 294.411 421.155 293.298 422.107 292.206C422.148 292.136 422.086 292.034 422.025 292.085Z" fill="#263238"/>
<path d="M502.755 300.721C500.999 302.078 499.045 303.166 496.96 303.947C496.96 303.947 494.328 309.225 490.591 309.812C486.854 310.398 481.377 308.8 481.377 308.8C481.377 308.8 476.145 311.086 473.115 310.499C470.084 309.913 462.344 304.432 461.177 301.924C460.009 299.416 458.812 290.801 458.812 290.801C463.327 288.05 473.749 284.309 485.749 286.038C485.749 286.038 478.93 285.674 473.667 287.676C473.667 287.676 483.824 286.847 492.312 288.485L494.124 288.869H494.175C495.292 289.21 496.359 289.692 497.349 290.305C500.093 291.994 504.71 298.921 502.755 300.721Z" fill="#FDFDFD"/>
<path d="M485.175 300.438C484.602 297.556 481.366 296.312 478.93 295.382C478.838 295.382 478.766 295.462 478.858 295.513C481.029 296.656 483.557 298.203 483.721 300.923C483.699 302.265 483.403 303.589 482.851 304.816C482.39 306.09 481.827 307.334 481.407 308.618C481.407 308.71 481.5 308.76 481.561 308.699C482.676 307.644 483.583 306.392 484.233 305.008C485.048 303.629 485.379 302.022 485.175 300.438Z" fill="#263238"/>
<path d="M497.768 295.766C496.079 293.531 492.915 292.732 490.315 292.237C490.298 292.237 490.283 292.243 490.271 292.254C490.26 292.266 490.253 292.281 490.253 292.297C490.253 292.313 490.26 292.329 490.271 292.34C490.283 292.352 490.298 292.358 490.315 292.358C492.721 293.238 495.188 294.097 496.458 296.464C497.656 298.658 497.42 301.52 496.888 303.876C496.878 303.901 496.879 303.929 496.891 303.954C496.902 303.979 496.923 303.998 496.949 304.007C496.975 304.017 497.003 304.016 497.028 304.004C497.053 303.993 497.073 303.972 497.082 303.947C498.567 301.58 499.591 298.223 497.768 295.766Z" fill="#263238"/>
<path opacity="0.1" d="M401.886 132.464C401.886 132.464 422.69 137.803 434.137 137.52C445.583 137.237 464.995 130.441 464.995 130.441C464.995 130.441 446.679 180.638 435.949 182.893C425.219 185.148 401.886 132.464 401.886 132.464Z" fill="black"/>
<path d="M458.187 125.334C457.235 126.022 456.231 126.629 455.279 127.357C454.327 128.085 453.406 128.752 452.453 129.44C450.559 130.805 448.624 132.12 446.628 133.353C442.645 135.841 438.591 138.217 434.567 140.644C434.506 140.644 434.516 140.816 434.567 140.786C441.734 138.764 448.194 134.921 454.163 130.532C454.993 129.925 455.801 129.309 456.59 128.651C457.378 127.994 458.187 127.145 458.975 126.386C459.098 126.277 459.176 126.126 459.192 125.963C459.209 125.801 459.163 125.638 459.065 125.507C458.966 125.375 458.822 125.285 458.66 125.253C458.497 125.221 458.329 125.25 458.187 125.334Z" fill="white"/>
<path d="M464.504 119.257C461.76 121.755 459.385 124.606 456.866 127.276C455.597 128.611 454.276 129.905 452.935 131.169C451.593 132.433 450.262 133.778 448.839 134.971C447.211 136.347 445.491 137.56 443.781 138.824C443.72 138.875 443.781 138.996 443.781 138.966C445.493 138.252 447.134 137.386 448.686 136.377C450.3 135.372 451.855 134.279 453.344 133.101C456.271 130.669 458.981 127.993 461.443 125.102C462.892 123.494 464.206 121.772 465.374 119.955C465.804 119.388 464.975 118.802 464.504 119.257Z" fill="white"/>
<path d="M433.246 139.876C432.355 139.603 431.486 139.265 430.646 138.865C429.837 138.531 429.038 138.147 428.25 137.762C426.622 136.974 424.984 136.235 423.366 135.416C420.091 133.861 416.948 132.049 413.967 129.996C413.752 129.834 413.455 130.107 413.67 130.31C416.237 132.976 419.211 135.229 422.486 136.984C424.118 137.829 425.833 138.506 427.605 139.006C428.506 139.239 429.407 139.411 430.308 139.593C431.209 139.775 432.233 139.815 433.164 140.027C433.185 140.038 433.208 140.04 433.231 140.034C433.253 140.027 433.271 140.012 433.282 139.992C433.293 139.972 433.295 139.948 433.288 139.927C433.282 139.905 433.267 139.886 433.246 139.876Z" fill="white"/>
<path d="M426.356 139.855C422.465 138.136 418.728 136.235 415.001 134.193C413.179 133.181 411.356 132.17 409.555 131.159C407.645 130.145 405.879 128.887 404.302 127.417C404.169 127.286 403.964 127.468 404.057 127.62C405.292 129.362 406.856 130.852 408.664 132.008C410.371 133.296 412.171 134.458 414.049 135.487C417.914 137.549 422.048 139.074 426.335 140.017C426.376 140.038 426.438 139.886 426.356 139.855Z" fill="white"/>
<path d="M402.746 48.1276C392.385 48.1276 387.163 55.9848 387.163 65.1667C387.163 72.5991 393.306 80.1934 403.268 80.1934C413.23 80.1934 419.373 71.2744 419.373 64.2869C419.371 62.1433 418.937 60.0215 418.097 58.0449C417.257 56.0683 416.028 54.2761 414.481 52.7727C412.934 51.2692 411.1 50.0843 409.086 49.2869C407.071 48.4895 404.916 48.0954 402.746 48.1276Z" fill="#263238"/>
<path d="M403.75 50.0387C394.003 50.0387 389.098 57.4206 389.098 66.0463C389.098 73.0339 394.883 80.2034 404.231 80.2034C413.578 80.2034 419.373 71.8204 419.373 65.2576C419.38 63.2391 418.98 61.2394 418.194 59.3759C417.409 57.5124 416.255 55.8224 414.8 54.405C413.345 52.9876 411.618 51.8714 409.72 51.1216C407.823 50.3718 405.793 50.0037 403.75 50.0387Z" fill="#FDFDFD"/>
<path d="M403.852 53.3252C396.224 53.3252 392.385 59.1094 392.385 65.8644C392.416 67.3618 392.749 68.8381 393.364 70.2073C393.979 71.5765 394.863 72.8114 395.965 73.8399C397.067 74.8684 398.366 75.6702 399.785 76.1985C401.204 76.7267 402.715 76.971 404.231 76.917C411.551 76.917 416.087 70.3542 416.087 65.2172C416.088 63.6388 415.771 62.076 415.155 60.6199C414.538 59.1638 413.634 57.8436 412.495 56.7365C411.356 55.6294 410.005 54.7576 408.521 54.1719C407.037 53.5862 405.45 53.2983 403.852 53.3252Z" fill="#263238"/>
<path d="M407.384 53.4466C403.923 53.4466 402.173 56.0758 402.173 59.1398C402.183 59.8231 402.331 60.4975 402.609 61.1235C402.887 61.7495 403.288 62.3145 403.79 62.7854C404.291 63.2562 404.883 63.6235 405.53 63.8657C406.177 64.1079 406.866 64.2202 407.558 64.1959C408.973 64.1575 410.319 63.5845 411.319 62.5949C412.319 61.6053 412.897 60.2745 412.933 58.8768C412.939 58.1579 412.799 57.4452 412.521 56.7805C412.244 56.1159 411.834 55.5128 411.317 55.0068C410.8 54.5008 410.186 54.1021 409.51 53.8341C408.835 53.5662 408.112 53.4344 407.384 53.4466Z" fill="#FDFDFD"/>
<path d="M470.442 48.1276C480.814 48.1276 486.025 55.9849 486.025 65.1667C486.025 72.5992 479.882 80.1935 469.93 80.1935C459.979 80.1935 453.825 71.2745 453.825 64.287C453.828 62.1442 454.261 60.0233 455.1 58.0474C455.94 56.0714 457.168 54.2797 458.714 52.7764C460.26 51.2731 462.092 50.088 464.106 49.29C466.119 48.4919 468.273 48.0968 470.442 48.1276Z" fill="#263238"/>
<path d="M469.449 50.0387C479.196 50.0387 484.09 57.4206 484.09 66.0463C484.09 73.0339 478.316 80.2034 468.958 80.2034C459.6 80.2034 453.825 71.8103 453.825 65.207C453.825 63.1927 454.231 61.1986 455.019 59.3409C455.808 57.4833 456.963 55.7993 458.417 54.3873C459.872 52.9753 461.596 51.8636 463.49 51.1169C465.384 50.3703 467.41 50.0037 469.449 50.0387Z" fill="#FDFDFD"/>
<path d="M469.347 53.3252C476.974 53.3252 480.804 59.1094 480.804 65.8644C480.772 67.3618 480.439 68.8381 479.825 70.2073C479.21 71.5765 478.326 72.8114 477.223 73.8399C476.121 74.8684 474.822 75.6702 473.403 76.1985C471.984 76.7267 470.473 76.971 468.958 76.917C461.637 76.917 457.112 70.3542 457.112 65.2172C457.11 63.6388 457.427 62.076 458.044 60.6199C458.661 59.1638 459.565 57.8436 460.704 56.7365C461.843 55.6294 463.194 54.7576 464.678 54.1719C466.162 53.5862 467.749 53.2983 469.347 53.3252Z" fill="#263238"/>
<path d="M473.452 53.4466C469.991 53.4466 468.251 56.0758 468.251 59.1398C468.261 59.8223 468.41 60.4959 468.687 61.1212C468.964 61.7465 469.364 62.311 469.865 62.7817C470.365 63.2524 470.955 63.62 471.601 63.8628C472.247 64.1056 472.935 64.2188 473.626 64.1959C475.042 64.1577 476.39 63.585 477.391 62.5956C478.393 61.6063 478.973 60.2755 479.011 58.8769C479.017 58.1571 478.877 57.4435 478.598 56.7782C478.32 56.1129 477.91 55.5094 477.392 55.0032C476.874 54.4971 476.258 54.0986 475.581 53.8312C474.905 53.5639 474.181 53.4331 473.452 53.4466Z" fill="#FDFDFD"/>
<path d="M444.068 69.5351C443.925 70.5463 437.434 74.1261 436.686 74.1261C435.939 74.1261 429.458 70.5059 429.304 69.5351C429.151 68.5643 435.161 68.2003 436.686 68.2003C438.212 68.2003 444.222 68.5643 444.068 69.5351Z" fill="#263238"/>
<path d="M419.731 77.645C420.991 79.1296 422.378 80.5033 423.878 81.7506C424.608 82.3496 425.397 82.8747 426.233 83.318C426.988 83.7383 427.844 83.948 428.71 83.9247C429.566 83.8047 430.389 83.5186 431.133 83.083C431.876 82.6474 432.525 82.0708 433.041 81.3866C434.192 79.9574 435.098 78.3519 435.724 76.6338L436.748 73.944L437.71 76.6338C438.317 78.3242 439.158 79.9236 440.208 81.3866C441.232 82.8023 442.686 83.9955 444.304 83.8742C446.122 83.5661 447.819 82.7682 449.208 81.5686C450.759 80.389 452.201 79.076 453.518 77.645C452.496 79.3244 451.268 80.8731 449.863 82.2562C449.151 82.9699 448.361 83.604 447.508 84.1472C446.62 84.7456 445.61 85.1458 444.549 85.3202C443.399 85.4777 442.229 85.2536 441.222 84.6831C440.29 84.1295 439.465 83.4174 438.785 82.5798C438.119 81.7929 437.539 80.9387 437.055 80.0315C436.565 79.1344 436.137 78.2053 435.775 77.2507H437.71C437.341 78.2205 436.889 79.1575 436.359 80.0517C435.843 80.9572 435.224 81.8019 434.516 82.5697C433.789 83.3785 432.931 84.0621 431.977 84.5921C430.987 85.1121 429.882 85.3798 428.762 85.3708C427.662 85.3255 426.597 84.975 425.69 84.3596C424.83 83.8031 424.04 83.148 423.335 82.4079C421.937 80.9758 420.726 79.3757 419.731 77.645Z" fill="#263238"/>
<path d="M386.59 76.1485C379.321 74.3283 371.99 72.7913 364.618 71.4362C357.247 70.0812 349.865 68.8677 342.432 67.9576C340.575 67.6947 338.718 67.4621 336.862 67.2599C334.999 67.0475 333.145 66.8048 331.282 66.6228C327.555 66.279 323.828 65.9149 320.091 65.6116C312.617 64.9745 305.133 64.752 297.628 64.4992L303.26 64.4183C305.133 64.4183 307.017 64.4183 308.891 64.4183L314.512 64.5599C316.395 64.5599 318.269 64.7419 320.143 64.8329C327.637 65.2172 335.111 65.9857 342.565 66.9161C350.018 67.8464 357.421 69.1306 364.772 70.6374C368.444 71.3991 372.106 72.2216 375.758 73.1047C379.382 74.0755 383.017 75.016 386.59 76.1485Z" fill="#263238"/>
<path d="M382.873 79.9206C379.515 79.4958 376.167 79.0914 372.799 78.7576C369.43 78.4239 366.082 78.07 362.714 77.7464C355.987 77.1599 349.25 76.6644 342.503 76.3712C339.135 76.1588 335.756 76.0577 332.388 75.9363C329.019 75.815 325.63 75.7745 322.262 75.7644H317.194L312.075 75.8453C308.696 75.8453 305.328 76.0577 301.939 76.0981C308.676 75.4914 315.433 75.0869 322.201 75.0161C328.968 74.9453 335.746 75.0768 342.503 75.3903C349.261 75.7038 356.018 76.2498 362.745 76.9981C369.471 77.7464 376.249 78.6565 382.873 79.9206Z" fill="#263238"/>
<path d="M384.122 84.3494C381.306 84.3494 378.491 84.3494 375.675 84.3494C372.86 84.3494 370.044 84.4202 367.229 84.5112C361.597 84.673 355.966 84.855 350.356 85.2191C344.745 85.5831 339.093 85.9168 333.514 86.4022C327.934 86.8876 322.313 87.4134 316.692 87.9898C319.477 87.5112 322.262 87.0696 325.046 86.6651C327.841 86.3011 330.637 85.9269 333.442 85.6539C339.042 85.0067 344.704 84.6427 350.304 84.2382C355.905 83.8337 361.567 83.7629 367.218 83.7629C372.87 83.7629 378.501 83.8742 384.122 84.3494Z" fill="#263238"/>
<path d="M489.076 76.1485C492.649 75.016 496.243 74.1261 499.908 73.1149C503.574 72.1037 507.219 71.4059 510.894 70.6475C518.245 69.1408 525.658 67.9273 533.101 66.9262C540.545 65.9251 548.019 65.2273 555.523 64.8431C557.397 64.7521 559.271 64.6206 561.144 64.57L566.775 64.4285C568.649 64.4285 570.533 64.4285 572.406 64.4285L578.027 64.5094C570.533 64.7622 563.038 64.9846 555.574 65.6217C551.837 65.8846 548.111 66.2487 544.384 66.6329C542.521 66.815 540.667 67.0576 538.804 67.27C536.941 67.4824 535.087 67.7048 533.234 67.9677C525.801 68.8778 518.409 70.1014 511.048 71.4464C503.686 72.7913 496.345 74.3081 489.076 76.1485Z" fill="#263238"/>
<path d="M492.772 79.9203C499.417 78.6563 506.082 77.7563 512.85 77.008C519.617 76.2597 526.333 75.7743 533.091 75.4002C539.848 75.026 546.616 74.9249 553.383 75.026C560.151 75.1271 566.919 75.5013 573.655 76.108C570.266 76.108 566.898 75.835 563.519 75.8552L558.451 75.7743H553.383C550.005 75.7743 546.636 75.8855 543.258 75.9462C539.879 76.0069 536.51 76.1687 533.142 76.3811C526.395 76.6743 519.658 77.1698 512.931 77.7563C509.566 78.0395 506.205 78.3765 502.847 78.7675C499.478 79.0911 496.13 79.4956 492.772 79.9203Z" fill="#263238"/>
<path d="M491.544 84.3495C497.165 83.8742 502.806 83.7529 508.447 83.7428C514.089 83.7327 519.71 83.9349 525.361 84.2181C531.013 84.5012 536.623 84.9866 542.224 85.6338C545.029 85.9371 547.824 86.3113 550.619 86.645C553.414 86.9787 556.189 87.4944 558.964 87.9697C553.353 87.4236 547.763 86.827 542.142 86.3821C536.521 85.9371 530.88 85.4922 525.3 85.199C519.72 84.9057 514.037 84.6529 508.437 84.4911C505.621 84.4001 502.806 84.3596 499.99 84.3293C497.175 84.299 494.359 84.3293 491.544 84.3495Z" fill="#263238"/>
<path d="M614.937 249.593C613.867 246.967 612.456 244.489 610.739 242.222C610.677 242.141 610.555 242.222 610.606 242.292C611.946 244.403 612.947 246.705 613.575 249.118C614.151 251.497 614.555 253.913 614.783 256.348C615.147 260.132 614.947 263.948 614.189 267.674C613.923 268.968 613.544 270.232 613.257 271.527C612.615 274.425 611.732 277.266 610.616 280.021C610.462 280.395 611.077 280.638 611.261 280.294C612.634 277.913 613.805 275.424 614.762 272.852C615.647 270.265 616.255 267.595 616.575 264.883C617.381 259.733 616.817 254.463 614.937 249.593Z" fill="white"/>
<path d="M613.821 255.428C613.821 255.409 613.813 255.391 613.8 255.378C613.786 255.365 613.768 255.357 613.749 255.357C613.73 255.357 613.712 255.365 613.698 255.378C613.685 255.391 613.677 255.409 613.677 255.428C613.667 257.81 613.396 260.183 612.868 262.507C612.387 264.812 611.845 267.118 611.23 269.393C610.621 271.681 609.851 273.925 608.927 276.108C608.476 277.169 607.985 278.211 607.462 279.242C606.94 280.274 606.439 281.427 605.865 282.478C605.292 283.53 604.534 284.794 603.818 285.947C603.101 287.1 602.333 288.161 601.575 289.254C601.432 289.466 601.749 289.699 601.934 289.527C603.675 287.839 605.252 285.994 606.643 284.015C608.071 282.032 609.292 279.911 610.288 277.685C612.393 273.248 613.656 268.466 614.015 263.579C614.179 260.879 613.974 258.158 613.821 255.428Z" fill="white"/>
<path d="M592.238 235.831C590.129 240.017 585.89 242.737 581.426 243.921C575.795 245.488 569.878 244.679 564.195 243.789C558.165 242.839 552.114 242.009 546.063 241.241C540.289 240.513 534.504 239.795 528.658 239.38C517.396 238.571 505.601 238.955 494.922 243.091C489.984 244.899 485.599 247.928 482.186 251.889C479.103 255.556 477.064 259.968 476.278 264.671C475.572 269.14 476.158 273.715 477.97 277.869C479.781 282.023 482.744 285.588 486.517 288.151C487.45 288.774 488.429 289.328 489.445 289.81C489.464 289.813 489.483 289.81 489.5 289.801C489.517 289.793 489.531 289.779 489.54 289.763C489.549 289.746 489.553 289.727 489.55 289.708C489.548 289.69 489.54 289.672 489.527 289.658C482.022 284.228 476.555 275.845 477.609 266.825C478.194 262.208 480.046 257.837 482.964 254.184C486.085 250.326 490.177 247.345 494.83 245.538C505.202 241.281 516.699 240.816 527.767 241.494C539.459 242.252 551.07 244.133 562.69 245.538C568.403 246.236 574.352 246.843 580.014 245.538C584.373 244.638 588.267 242.237 590.999 238.763C591.622 237.891 592.14 236.951 592.545 235.962C592.576 235.8 592.33 235.649 592.238 235.831Z" fill="#263238"/>
<path d="M578.426 217.335C578.426 217.335 579.194 231.816 579.245 233.636C579.245 233.636 586.187 239.279 584.621 242.11C583.423 244.264 578.344 247.48 547.885 242.747C517.426 238.015 479.79 240.098 477.568 265.075C475.346 290.052 502.857 301.53 544.568 300.074C586.279 298.618 614.332 283.894 615.07 257.966C615.612 238.763 595.965 220.935 578.426 217.335Z" fill="white"/>
<path d="M390.041 502.987C382.513 503.171 375.063 501.449 368.4 497.984L23.7575 301.428C17.6252 297.935 14.2556 292.953 14.2556 287.413C14.2556 280.943 18.9229 274.577 27.0853 269.926L234.516 151.649C249.271 143.236 270.891 142.389 283.762 149.747L628.426 346.283C634.558 349.776 637.928 354.737 637.928 360.298C637.928 366.767 633.26 373.134 625.098 377.785L417.668 496.062C409.209 500.664 399.698 503.048 390.041 502.987ZM26.7922 296.322L371.456 492.858C382.465 499.059 401.887 498.274 414.717 490.956L622.147 372.679C628.426 369.103 631.963 364.597 631.963 360.277C631.963 355.957 628.426 353.084 625.454 351.389L280.769 154.894C269.76 148.693 250.359 149.479 237.508 156.796L30.0782 275.073C23.7994 278.628 20.2623 283.134 20.2623 287.475C20.2623 291.816 23.7994 294.669 26.7504 296.364L26.7922 296.322Z" fill="#414142"/>
<path d="M25.2642 285.636L369.907 482.171C381.774 488.931 402.473 488.083 416.161 480.27L623.591 361.993C637.299 354.179 638.785 342.376 626.918 335.617L282.276 139.081C270.409 132.322 249.71 133.17 236.001 140.983L28.5711 259.26C14.8833 267.074 13.3973 278.876 25.2642 285.636Z" fill="#91B3FA"/>
<path d="M390.041 489.737C382.513 489.922 375.063 488.199 368.4 484.734L23.7575 288.199C17.6252 284.706 14.2556 279.724 14.2556 274.184C14.2556 267.714 18.9229 261.348 27.0853 256.697L234.516 138.42C249.271 130.007 270.891 129.18 283.762 136.539L628.426 333.054C634.558 336.547 637.928 341.529 637.928 347.069C637.928 353.539 633.26 359.905 625.098 364.556L417.668 482.833C409.207 487.427 399.696 489.804 390.041 489.737ZM26.7922 283.073L371.414 479.608C382.423 485.809 401.845 485.024 414.675 477.707L622.105 359.43C628.384 355.874 631.921 351.368 631.921 347.027C631.921 342.686 628.384 339.834 625.412 338.139L280.769 141.665C269.76 135.464 250.359 136.229 237.508 143.546L30.0782 261.823C23.7994 265.399 20.2623 269.885 20.2623 274.226C20.2623 278.566 23.7994 281.419 26.7504 283.114L26.7922 283.073Z" fill="#414142"/>
<path d="M25.2642 272.489L369.907 469.004C381.774 475.763 402.473 474.916 416.161 467.102L623.591 348.826C637.299 341.033 638.785 329.209 626.918 322.45L282.276 125.956C270.409 119.196 249.71 120.044 236.001 127.837L28.5711 246.134C14.8833 253.886 13.3973 265.751 25.2642 272.489Z" fill="#91B3FA"/>
<path d="M390.041 476.59C382.513 476.775 375.063 475.053 368.4 471.588L23.7575 275.073C17.6252 271.58 14.2556 266.598 14.2556 261.038C14.2556 254.589 18.9229 248.201 27.0853 243.571L234.516 125.294C249.166 116.861 270.891 116.034 283.762 123.392L628.426 319.907C634.558 323.401 637.928 328.382 637.928 333.943C637.928 340.392 633.26 346.779 625.098 351.409L417.668 469.686C409.207 474.281 399.696 476.658 390.041 476.59ZM26.7922 269.947L371.456 466.462C382.465 472.663 401.887 471.877 414.717 464.56L622.147 346.283C628.426 342.728 631.963 338.222 631.963 333.881C631.963 329.54 628.426 326.667 625.454 324.972L280.769 128.519C269.76 122.318 250.359 123.103 237.508 130.42L30.0782 248.697C23.7994 252.253 20.2623 256.759 20.2623 261.1C20.2623 265.441 23.7994 268.314 26.7504 270.009L26.7922 269.947Z" fill="#414142"/>
<path d="M391.862 500.465C400.368 500.282 408.707 498.092 416.182 494.078L623.612 375.842C634.307 369.641 635.626 358.045 632.737 353.993C634.137 352.073 634.891 349.766 634.891 347.399C634.891 345.033 634.137 342.726 632.737 340.805C636.923 334.315 635.06 327.246 626.877 322.574L554.943 281.543H391.862V500.465Z" fill="#414142"/>
<path d="M25.2642 259.26L369.907 455.775C381.774 462.555 402.473 461.687 416.161 453.894L623.591 335.617C637.299 327.804 638.785 316.001 626.918 309.221L282.276 112.706C270.409 105.947 249.71 106.794 236.001 114.607L28.5711 232.884C14.8833 240.698 13.3973 252.501 25.2642 259.26Z" fill="#91B3FA"/>
<path d="M271.665 135.071L63.837 253.596C52.6608 259.984 49.6051 269.037 55.2979 275.838L336.399 436.117C348.454 441.926 367.793 440.892 380.937 433.43L588.367 315.153C600.318 308.353 603.018 298.493 595.567 291.589L316.37 132.426C304.294 126.555 284.829 127.589 271.665 135.071Z" fill="#FDFDFD"/>
<path d="M390.041 463.361C382.511 463.546 375.059 461.816 368.4 458.338L23.7575 261.823C17.6252 258.33 14.2556 253.348 14.2556 247.809C14.2556 241.339 18.9229 234.972 27.0853 230.321L234.516 112.044C249.166 103.632 270.891 102.805 283.762 110.143L628.426 306.658C634.558 310.151 637.928 315.133 637.928 320.693C637.928 327.142 633.26 333.529 625.098 338.18L417.668 456.457C409.207 461.052 399.696 463.429 390.041 463.361ZM26.7922 256.697L371.456 453.212C382.465 459.413 401.887 458.648 414.717 451.331L622.147 333.054C628.426 329.478 631.963 324.972 631.963 320.652C631.963 316.332 628.426 313.458 625.454 311.743L280.769 115.269C269.76 109.068 250.359 109.833 237.508 117.171L30.0782 235.448C23.7994 239.003 20.2623 243.509 20.2623 247.85C20.2623 252.191 23.7994 255.043 26.7504 256.738L26.7922 256.697Z" fill="#414142"/>
<path d="M562.218 297.06L351.418 416.712L354.411 421.855L565.21 302.204L562.218 297.06Z" fill="#414142"/>
<path d="M360.545 154.991L102.349 301.545L105.342 306.688L363.538 160.134L360.545 154.991Z" fill="#414142"/>
<path d="M305.081 150.88L95.3074 270.64L98.303 275.759L308.076 155.999L305.081 150.88Z" fill="#414142"/>
<path d="M395.86 475.577L395.399 471.03C402.276 470.431 408.953 468.432 415.01 465.159L622.44 346.903C625.774 345.138 628.641 342.624 630.812 339.565L634.705 342.004C632.162 345.702 628.751 348.737 624.764 350.851L417.312 469.128C410.7 472.744 403.39 474.941 395.86 475.577Z" fill="#91B3FA"/>
<path d="M395.86 488.993L395.399 484.466C402.28 483.87 408.959 481.864 415.01 478.575L622.44 360.298C625.78 358.531 628.648 356.01 630.812 352.939L634.705 355.399C632.15 359.086 628.742 362.119 624.764 364.246L417.312 482.523C410.706 486.155 403.394 488.36 395.86 488.993Z" fill="#91B3FA"/>
<path d="M251.949 151.587C248.449 151.641 244.993 150.816 241.903 149.189C240.416 148.577 239.145 147.544 238.251 146.22C237.357 144.896 236.88 143.34 236.88 141.748C236.88 140.157 237.357 138.601 238.251 137.276C239.145 135.952 240.416 134.919 241.903 134.307C245.011 132.727 248.455 131.903 251.949 131.903C255.444 131.903 258.888 132.727 261.995 134.307C263.491 134.911 264.77 135.942 265.671 137.267C266.571 138.592 267.052 140.152 267.052 141.748C267.052 143.344 266.571 144.904 265.671 146.229C264.77 147.554 263.491 148.585 261.995 149.189C258.907 150.818 255.45 151.643 251.949 151.587ZM251.949 137.8C249.504 137.756 247.087 138.317 244.917 139.433C243.661 140.156 242.824 141.045 242.824 141.748C242.824 142.451 243.599 143.34 244.917 144.042C247.105 145.118 249.516 145.678 251.96 145.678C254.404 145.678 256.815 145.118 259.003 144.042C260.258 143.34 261.096 142.451 261.096 141.748C261.096 141.045 260.321 140.156 259.003 139.454C256.833 138.317 254.405 137.748 251.949 137.8Z" fill="#414142"/>
<path d="M216.788 171.638C213.291 171.668 209.845 170.806 206.784 169.136C205.295 168.528 204.022 167.498 203.126 166.175C202.231 164.852 201.753 163.297 201.753 161.705C201.753 160.114 202.231 158.558 203.126 157.236C204.022 155.913 205.295 154.882 206.784 154.274C209.888 152.695 213.329 151.871 216.82 151.871C220.311 151.871 223.752 152.695 226.855 154.274C228.344 154.882 229.617 155.913 230.513 157.236C231.409 158.558 231.887 160.114 231.887 161.705C231.887 163.297 231.409 164.852 230.513 166.175C229.617 167.498 228.344 168.528 226.855 169.136C223.775 170.816 220.307 171.678 216.788 171.638ZM216.788 157.85C214.335 157.792 211.907 158.354 209.735 159.483C208.479 160.207 207.642 161.075 207.642 161.778C207.642 162.48 208.417 163.369 209.735 164.093C211.925 165.164 214.335 165.721 216.778 165.721C219.221 165.721 221.631 165.164 223.821 164.093C225.076 163.39 225.914 162.501 225.914 161.798C225.914 161.096 225.139 160.207 223.821 159.483C221.662 158.36 219.249 157.798 216.809 157.85H216.788Z" fill="#414142"/>
<path d="M181.669 191.688C178.165 191.747 174.706 190.914 171.623 189.27C170.134 188.662 168.861 187.631 167.965 186.308C167.069 184.985 166.591 183.43 166.591 181.838C166.591 180.247 167.069 178.692 167.965 177.369C168.861 176.046 170.134 175.015 171.623 174.407C174.727 172.818 178.172 171.989 181.669 171.989C185.165 171.989 188.611 172.818 191.715 174.407C193.204 175.015 194.477 176.046 195.373 177.369C196.268 178.692 196.746 180.247 196.746 181.838C196.746 183.43 196.268 184.985 195.373 186.308C194.477 187.631 193.204 188.662 191.715 189.27C188.634 190.92 185.173 191.754 181.669 191.688ZM181.669 177.901C179.222 177.842 176.801 178.405 174.637 179.534C173.381 180.237 172.544 181.125 172.544 181.828C172.544 182.531 173.318 183.42 174.637 184.143C176.826 185.214 179.236 185.772 181.679 185.772C184.123 185.772 186.533 185.214 188.722 184.143C189.978 183.42 190.815 182.531 190.815 181.828C190.815 181.125 190.02 180.237 188.722 179.534C186.551 178.404 184.122 177.842 181.669 177.901Z" fill="#414142"/>
<path d="M146.487 211.718C142.993 211.774 139.543 210.949 136.462 209.32C134.974 208.708 133.704 207.675 132.81 206.35C131.916 205.026 131.439 203.47 131.439 201.879C131.439 200.287 131.916 198.731 132.81 197.407C133.704 196.083 134.974 195.049 136.462 194.437C139.566 192.858 143.006 192.034 146.498 192.034C149.989 192.034 153.43 192.858 156.533 194.437C158.029 195.042 159.308 196.072 160.209 197.398C161.109 198.723 161.59 200.283 161.59 201.879C161.59 203.475 161.109 205.034 160.209 206.36C159.308 207.685 158.029 208.715 156.533 209.32C153.445 210.949 149.988 211.774 146.487 211.718ZM139.455 199.564C138.199 200.287 137.362 201.176 137.362 201.879C137.362 202.581 138.157 203.47 139.455 204.194C141.644 205.265 144.054 205.822 146.498 205.822C148.941 205.822 151.351 205.265 153.54 204.194C154.796 203.47 155.633 202.581 155.633 201.879C155.633 201.176 154.859 200.287 153.54 199.564C151.355 198.493 148.948 197.935 146.508 197.935C144.068 197.935 141.661 198.493 139.476 199.564H139.455Z" fill="#414142"/>
<path d="M111.326 231.768C107.832 231.825 104.381 230.999 101.301 229.37C99.8051 228.766 98.5256 227.735 97.6251 226.41C96.7245 225.085 96.2437 223.525 96.2437 221.929C96.2437 220.333 96.7245 218.773 97.6251 217.448C98.5256 216.123 99.8051 215.092 101.301 214.488C104.404 212.908 107.845 212.085 111.336 212.085C114.827 212.085 118.268 212.908 121.372 214.488C122.867 215.092 124.147 216.123 125.047 217.448C125.948 218.773 126.429 220.333 126.429 221.929C126.429 223.525 125.948 225.085 125.047 226.41C124.147 227.735 122.867 228.766 121.372 229.37C118.284 231.001 114.826 231.826 111.326 231.768ZM111.326 218.002C108.882 217.951 106.465 218.506 104.293 219.614C103.038 220.317 102.201 221.206 102.201 221.908C102.201 222.611 102.975 223.5 104.293 224.223C106.481 225.299 108.892 225.859 111.336 225.859C113.78 225.859 116.191 225.299 118.379 224.223C119.635 223.521 120.472 222.632 120.472 221.929C120.472 221.226 119.697 220.337 118.379 219.614C116.201 218.502 113.776 217.948 111.326 218.002Z" fill="#414142"/>
<path d="M76.1855 251.819C72.6818 251.88 69.2213 251.047 66.1394 249.4C64.6503 248.792 63.3773 247.762 62.4817 246.439C61.586 245.116 61.1079 243.56 61.1079 241.969C61.1079 240.378 61.586 238.822 62.4817 237.499C63.3773 236.176 64.6503 235.146 66.1394 234.538C69.243 232.959 72.6837 232.135 76.175 232.135C79.6663 232.135 83.107 232.959 86.2106 234.538C87.6997 235.146 88.9727 236.176 89.8683 237.499C90.764 238.822 91.2421 240.378 91.2421 241.969C91.2421 243.56 90.764 245.116 89.8683 246.439C88.9727 247.762 87.6997 248.792 86.2106 249.4C83.1353 251.045 79.6822 251.878 76.1855 251.819ZM76.1855 238.031C73.7331 237.984 71.3079 238.545 69.1323 239.664C67.8765 240.388 67.0394 241.277 67.0394 241.979C67.0394 242.682 67.8138 243.571 69.1323 244.274C71.3202 245.35 73.7309 245.91 76.175 245.91C78.6191 245.91 81.0298 245.35 83.2177 244.274C84.4734 243.571 85.3106 242.682 85.3106 241.979C85.3106 241.277 84.5362 240.388 83.2177 239.664C81.0484 238.549 78.6308 237.987 76.1855 238.031Z" fill="#414142"/>
<path d="M114.988 227.014L107.203 226.084C107.203 225.898 109.296 206.612 99.2915 194.024C96.6885 190.912 93.4726 188.354 89.839 186.507C86.2054 184.659 82.2297 183.56 78.1529 183.275C73.306 182.624 68.3712 183.171 63.7909 184.867C59.2105 186.562 55.1275 189.353 51.9076 192.99C48.2181 197.31 45.6205 202.434 44.3288 207.939C43.037 213.445 43.0881 219.175 44.4777 224.657L36.8594 226.476C35.1331 219.786 35.0648 212.784 36.6606 206.063C38.2563 199.341 41.4691 193.099 46.0265 187.864C50.0822 183.288 55.2248 179.778 60.9928 177.65C66.7608 175.521 72.9736 174.84 79.0738 175.668C90.3756 176.929 99.2705 181.539 105.507 189.331C117.584 204.483 115.093 226.187 114.988 227.014Z" fill="#414142"/>
<path d="M150.128 207.356L142.343 206.426C142.343 206.24 144.54 186.954 134.452 174.366C131.849 171.254 128.634 168.697 125 166.849C121.366 165.002 117.391 163.902 113.314 163.617C108.462 162.952 103.52 163.486 98.9284 165.171C94.3371 166.855 90.2406 169.638 87.0056 173.271C83.32 177.588 80.7263 182.709 79.4381 188.212C78.15 193.714 78.2043 199.44 79.5967 204.917L71.9784 206.757C70.2604 200.062 70.2023 193.057 71.8091 186.335C73.4158 179.613 76.64 173.373 81.2082 168.144C85.2651 163.563 90.4103 160.048 96.1821 157.916C101.954 155.784 108.171 155.101 114.277 155.928C125.578 157.209 134.473 161.798 140.71 169.591C152.745 184.743 150.275 206.447 150.128 207.356Z" fill="#414142"/>
<path d="M185.29 186.913L177.504 185.983C177.504 185.797 179.702 166.491 169.593 153.902C166.994 150.788 163.778 148.23 160.144 146.385C156.509 144.541 152.531 143.448 148.454 143.174C143.608 142.503 138.668 143.032 134.079 144.713C129.491 146.394 125.397 149.176 122.167 152.807C118.47 157.123 115.865 162.245 114.566 167.751C113.267 173.257 113.311 178.988 114.695 184.474L107.056 186.293C105.335 179.603 105.27 172.602 106.865 165.881C108.461 159.161 111.67 152.918 116.223 147.68C120.28 143.099 125.425 139.585 131.197 137.452C136.969 135.32 143.186 134.637 149.291 135.464C160.593 136.746 169.488 141.335 175.725 149.148C187.948 164.3 185.394 185.983 185.29 186.913Z" fill="#414142"/>
<path d="M220.535 167.483L212.749 166.573C212.749 166.367 214.842 147.081 204.838 134.493C202.241 131.391 199.034 128.841 195.412 126.997C191.79 125.153 187.827 124.054 183.762 123.765C178.915 123.095 173.976 123.625 169.388 125.306C164.8 126.987 160.706 129.767 157.475 133.397C153.789 137.707 151.188 142.818 149.886 148.311C148.584 153.804 148.616 159.524 149.982 165.002L142.364 166.821C140.637 160.131 140.569 153.129 142.165 146.408C143.761 139.686 146.973 133.443 151.531 128.209C155.586 123.631 160.727 120.118 166.495 117.986C172.263 115.854 178.476 115.169 184.578 115.992C195.88 117.274 204.775 121.863 211.012 129.676C223.13 144.89 220.639 166.573 220.535 167.483Z" fill="#414142"/>
<path d="M255.612 146.75L247.806 145.82C247.806 145.634 249.899 126.348 239.915 113.76C237.312 110.648 234.096 108.091 230.463 106.243C226.829 104.395 222.853 103.296 218.777 103.011C213.928 102.344 208.988 102.877 204.4 104.562C199.811 106.247 195.719 109.031 192.49 112.664C188.796 116.982 186.195 122.105 184.903 127.612C183.611 133.119 183.665 138.85 185.06 144.332L177.441 146.171C175.708 139.482 175.636 132.478 177.232 125.755C178.828 119.032 182.045 112.79 186.608 107.559C190.66 102.976 195.801 99.4606 201.57 97.3281C207.338 95.1956 213.554 94.5132 219.656 95.3424C230.958 96.6033 239.852 101.213 246.089 109.006C258.207 124.137 255.717 145.82 255.612 146.75Z" fill="#414142"/>
<path d="M14.2346 268.355C0.274777 253.886 -3.24136 233.649 5.25593 216.679C8.68892 209.579 14.3064 203.733 21.3055 199.976C28.3046 196.219 36.327 194.744 44.2263 195.76C55.5281 197.021 64.4231 201.63 70.66 209.423C82.7781 224.575 80.2875 246.279 80.1829 247.188L72.3972 246.258C72.3972 246.072 74.4901 226.787 64.4859 214.198C61.8829 211.086 58.6671 208.529 55.0335 206.681C51.3998 204.834 47.4241 203.734 43.3473 203.449C37.0116 202.552 30.552 203.7 24.9295 206.72C19.3069 209.74 14.8219 214.473 12.1417 220.213C5.13038 234.187 8.10237 250.992 19.76 263.022L14.2346 268.355Z" fill="#414142"/>
<path d="M380.979 325.075L312.435 364.163L298.036 355.895L297.764 327.68C297.803 321.992 297.383 316.31 296.508 310.688C296.003 308.049 294.917 305.551 293.327 303.371C291.661 301.235 289.566 299.462 287.174 298.162C283.548 296 279.374 294.903 275.139 294.999C271.064 295.144 267.089 296.28 263.565 298.307C260.144 300.161 257.262 302.851 255.194 306.12C253.279 309.397 252.008 313.002 251.447 316.745L226.834 315.567C227.26 311.473 228.371 307.478 230.12 303.743C231.82 300.697 234.004 297.941 236.588 295.578C240.014 292.504 243.784 289.827 247.827 287.599C253.909 284.132 260.516 281.655 267.395 280.261C274.076 278.877 280.941 278.583 287.718 279.393C293.946 280.082 299.969 282.008 305.424 285.057C309.424 287.195 312.936 290.122 315.742 293.656C318.177 296.961 319.816 300.772 320.535 304.797C321.413 311.491 321.469 318.265 320.702 324.972L319.97 338.924L320.912 339.462L363.628 315.091L380.979 325.075Z" fill="#91B3FA"/>
<path d="M312.436 367.574L295.043 357.652L294.688 327.742C294.727 322.257 294.343 316.777 293.536 311.35C293.091 309.121 292.178 307.009 290.857 305.149C289.427 303.344 287.64 301.846 285.604 300.746C282.448 298.871 278.822 297.912 275.14 297.976C271.559 298.111 268.066 299.111 264.968 300.891C261.975 302.495 259.441 304.82 257.601 307.65C255.88 310.61 254.737 313.864 254.231 317.241L253.813 319.845L223.256 318.378L223.695 315.174C224.158 310.739 225.375 306.414 227.295 302.379C229.145 299.047 231.527 296.032 234.348 293.449C237.948 290.218 241.908 287.403 246.153 285.057C252.522 281.431 259.44 278.842 266.642 277.388C273.638 275.929 280.83 275.621 287.927 276.479C294.552 277.209 300.96 279.255 306.764 282.494C311.121 284.837 314.946 288.038 318.003 291.899C320.715 295.577 322.541 299.819 323.34 304.301C324.278 311.253 324.348 318.292 323.549 325.261L323.047 334.79L363.545 311.763L386.965 325.116L312.436 367.574ZM300.966 354.221L312.394 360.732L374.93 325.075L363.503 318.564L320.786 342.914L316.789 340.702L317.626 324.93C318.361 318.464 318.319 311.935 317.5 305.479C316.883 301.896 315.452 298.496 313.315 295.537C310.738 292.334 307.535 289.677 303.896 287.723C298.782 284.892 293.146 283.1 287.32 282.452C280.871 281.688 274.338 281.974 267.982 283.3C261.413 284.626 255.103 286.985 249.292 290.286C245.465 292.406 241.892 294.944 238.639 297.852C236.285 299.987 234.299 302.486 232.758 305.252C231.574 307.665 230.749 310.234 230.309 312.879L248.978 313.789C249.706 310.599 250.928 307.538 252.599 304.715C254.957 301.012 258.235 297.966 262.122 295.868C266.067 293.602 270.516 292.331 275.077 292.168C279.874 292.058 284.604 293.291 288.723 295.723C291.468 297.226 293.875 299.266 295.797 301.717C297.627 304.245 298.897 307.126 299.522 310.172C300.433 315.984 300.867 321.86 300.82 327.742L300.966 354.221Z" fill="#414142"/>
<path d="M383.406 236.295C389.532 239.781 392.887 243.805 393.473 248.367C394.039 252.935 391.799 257.586 386.692 262.319L387.09 262.547C394.948 258.815 403.494 256.705 412.205 256.345C419.753 256.114 427.217 257.961 433.762 261.678C443.194 267.053 447.122 273.185 445.545 280.075C443.969 286.965 436.846 294.083 424.177 301.428C413.705 307.429 402.382 311.846 390.585 314.533L372.942 304.487C378.788 303.385 384.55 301.886 390.188 300.002C395.514 298.287 400.653 296.051 405.529 293.325C412.38 289.411 416.272 285.87 417.207 282.7C418.149 279.496 416.035 276.499 410.928 273.523C406.259 270.879 400.766 270.033 395.504 271.146C388.1 272.868 381.03 275.772 374.574 279.744L367.144 283.982L351.259 274.928L358.835 270.608C366.433 266.267 370.995 262.547 372.502 259.405C374.009 256.263 372.377 253.328 367.542 250.578C360.133 246.334 351.761 246.871 342.427 252.191C339.342 253.9 336.563 256.1 334.202 258.702C331.786 261.51 329.913 264.733 328.676 268.21L304.817 265.523C307.301 256.759 314.737 248.842 327.128 241.773C336.392 236.266 346.737 232.771 357.475 231.52C366.413 230.341 375.499 232.014 383.406 236.295Z" fill="#91B3FA"/>
<path d="M390.104 317.613L364.466 302.999L372.398 301.511C378.073 300.434 383.667 298.977 389.141 297.149C394.286 295.493 399.25 293.333 403.959 290.7C411.975 286.132 413.838 283.155 414.236 281.791C414.863 279.724 411.912 277.491 409.317 276.024C405.277 273.709 400.506 272.971 395.943 273.957C388.901 275.636 382.18 278.428 376.04 282.225L367.103 287.331L345.211 274.928L357.287 268.045C366.496 262.795 369.049 259.57 369.844 258.123C370.137 257.524 370.933 255.891 366.077 253.142C359.61 249.441 352.389 249.958 344.018 254.733C341.223 256.305 338.701 258.308 336.546 260.666C334.365 263.19 332.676 266.091 331.565 269.223L330.769 271.394L300.966 268.004L301.929 264.655C304.629 255.167 312.624 246.589 325.642 239.148C335.229 233.466 345.931 229.865 357.036 228.585C366.619 227.334 376.356 229.137 384.83 233.732C391.778 237.68 395.65 242.496 396.362 247.995C396.699 250.88 396.19 253.799 394.897 256.407C400.473 254.612 406.28 253.616 412.143 253.452C420.205 253.218 428.176 255.2 435.165 259.177C445.818 265.275 450.255 272.551 448.35 280.819C446.55 288.633 439.079 296.198 425.516 303.929C414.779 310.07 403.175 314.598 391.088 317.365L390.104 317.613ZM381.125 305.665L391.046 311.329C402.139 308.668 412.789 304.449 422.67 298.803C434.558 292.023 441.276 285.532 442.678 279.496C443.139 277.429 444.562 271.228 432.339 264.324C426.259 260.887 419.334 259.177 412.331 259.384C404.01 259.722 395.844 261.719 388.325 265.254L386.923 265.875L381.711 262.898L384.683 260.087C389.016 256.056 390.962 252.211 390.544 248.656C390.125 245.101 387.195 241.752 381.942 238.775C374.562 234.81 366.093 233.275 357.768 234.393C347.507 235.602 337.622 238.941 328.76 244.191C318.777 249.896 312.163 256.159 309.066 262.795L326.877 264.862C328.16 261.851 329.919 259.06 332.088 256.593C334.667 253.757 337.692 251.35 341.046 249.462C351.301 243.633 360.74 243.096 369.133 247.85C377.526 252.604 376.584 257.854 375.286 260.542C373.465 264.304 368.735 268.272 360.405 272.944L357.329 274.701L367.228 280.344L373.172 276.954C379.901 272.82 387.267 269.797 394.981 268.004C400.938 266.749 407.155 267.714 412.436 270.711C420.514 275.321 421.079 280.096 420.117 283.3C418.945 287.269 414.675 291.32 407.078 295.702C402.022 298.527 396.693 300.846 391.171 302.627C387.823 303.826 384.474 304.839 381.125 305.665Z" fill="#414142"/>
</svg>
