<svg width="439" height="32" viewBox="0 0 439 32" fill="none" xmlns="http://www.w3.org/2000/svg">
<path d="M191.611 18.4056C190.911 22.4871 186.078 24.4275 185.22 24.762C186.078 25.0743 190.911 26.9923 191.611 31.0961C192.311 27.0146 197.166 25.0743 198.024 24.762C197.166 24.4275 192.311 22.5317 191.611 18.4056C191.679 18.361 191.611 18.361 191.611 18.4056Z" fill="white"/>
<path d="M210.129 18.4056C209.429 22.4871 204.596 24.4275 203.738 24.762C204.596 25.0743 209.429 26.9923 210.129 31.0961C210.829 27.0146 215.684 25.0743 216.565 24.762C215.684 24.4275 210.829 22.5317 210.129 18.4056C210.219 18.361 210.129 18.361 210.129 18.4056Z" fill="white"/>
<path d="M228.646 18.4056C227.945 22.4871 223.135 24.4275 222.277 24.762C223.135 25.0743 227.945 26.9923 228.646 31.0961C229.346 27.0146 234.201 25.0743 235.081 24.762C234.201 24.4275 229.346 22.5317 228.646 18.4056C228.736 18.361 228.646 18.361 228.646 18.4056Z" fill="white"/>
<path d="M247.186 18.4056C246.486 22.4871 241.676 24.4275 240.817 24.762C241.676 25.0743 246.486 26.9923 247.186 31.0961C247.908 27.0146 252.763 25.0743 253.622 24.762C252.763 24.4275 247.908 22.5317 247.186 18.4056C247.186 18.361 247.186 18.361 247.186 18.4056Z" fill="white"/>
<path d="M265.681 18.4055C264.981 22.487 260.171 24.4273 259.313 24.7619C260.171 25.0741 264.981 26.9922 265.681 31.0959H265.794C266.494 27.0145 271.349 25.0741 272.207 24.7619C271.349 24.4273 266.494 22.5316 265.794 18.4055H265.681Z" fill="white"/>
<path d="M284.221 18.4056C283.498 22.4871 278.688 24.4275 277.83 24.762C278.688 25.0743 283.498 26.9923 284.221 31.0961C284.921 27.0146 289.776 25.0743 290.634 24.762C289.776 24.4275 284.921 22.5317 284.221 18.4056C284.288 18.361 284.221 18.361 284.221 18.4056Z" fill="white"/>
<path d="M302.738 18.4056C302.038 22.4871 297.205 24.4275 296.347 24.762C297.205 25.0743 302.038 26.9923 302.738 31.0961C303.438 27.0146 308.293 25.0743 309.174 24.762C308.293 24.4275 303.438 22.5317 302.738 18.4056C302.828 18.361 302.738 18.361 302.738 18.4056Z" fill="white"/>
<path d="M321.255 18.4056C320.555 22.4871 315.745 24.4275 314.887 24.762C315.745 25.0743 320.555 26.9923 321.255 31.0961C321.955 27.0146 326.811 25.0743 327.691 24.762C326.811 24.4275 321.955 22.5317 321.255 18.4056C321.346 18.361 321.255 18.361 321.255 18.4056Z" fill="white"/>
<path d="M339.773 18.4056C339.072 22.4871 334.262 24.4275 333.404 24.762C334.262 25.0743 339.072 26.9923 339.773 31.0961C340.473 27.0146 345.35 25.0743 346.208 24.762C345.35 24.4275 340.473 22.5317 339.773 18.4056C339.773 18.361 339.773 18.361 339.773 18.4056Z" fill="white"/>
<path d="M358.29 18.4055C357.59 22.487 352.78 24.4273 351.922 24.7619C352.78 25.0741 357.59 26.9922 358.29 31.0959H358.403C359.103 27.0145 363.958 25.0741 364.817 24.7619C363.958 24.4273 359.103 22.5316 358.403 18.4055H358.29Z" fill="white"/>
<path d="M6.391 18.4056C5.69095 22.4871 0.858368 24.4275 0.000244141 24.762C0.858368 25.0743 5.69095 26.9923 6.391 31.0961C7.09105 27.0146 11.9462 25.0743 12.8269 24.762C11.9462 24.4275 7.09105 22.5317 6.391 18.4056C6.391 18.361 6.48133 18.361 6.391 18.4056Z" fill="white"/>
<path d="M24.9092 18.4056C24.2092 22.4871 19.3991 24.4275 18.541 24.762C19.3991 25.0743 24.2092 26.9923 24.9092 31.0961C25.6093 27.0146 30.4644 25.0743 31.3451 24.762C30.4644 24.4275 25.6093 22.5317 24.9092 18.4056C24.9995 18.361 24.9092 18.361 24.9092 18.4056Z" fill="white"/>
<path d="M43.4263 18.4056C42.7262 22.4871 37.9162 24.4275 37.0581 24.762C37.9162 25.0743 42.7262 26.9923 43.4263 31.0961C44.1489 27.0146 49.0041 25.0743 49.8622 24.762C49.0041 24.4275 44.1489 22.5317 43.4263 18.4056C43.5166 18.361 43.4489 18.361 43.4263 18.4056Z" fill="white"/>
<path d="M62.0115 18.4055C61.3114 22.487 56.5014 24.4273 55.6433 24.7619C56.5014 25.0741 61.3114 26.9922 62.0115 31.0959C62.7115 27.0145 67.5667 25.0741 68.4248 24.7619C67.5667 24.4273 62.7115 22.5316 62.0115 18.4055Z" fill="white"/>
<path d="M80.484 18.4056C79.7614 22.4871 74.9514 24.4275 74.0933 24.762C74.9514 25.0743 79.7614 26.9923 80.484 31.0961C81.1841 27.0146 86.0392 25.0743 86.8973 24.762C86.0392 24.4275 81.1841 22.5317 80.484 18.4056C80.5518 18.361 80.484 18.361 80.484 18.4056Z" fill="white"/>
<path d="M99.0014 18.4056C98.3013 22.4871 93.4687 24.4275 92.6106 24.762C93.4687 25.0743 98.3013 26.9923 99.0014 31.0961C99.7014 27.0146 104.557 25.0743 105.437 24.762C104.557 24.4275 99.7014 22.5317 99.0014 18.4056C99.0691 18.361 99.0014 18.361 99.0014 18.4056Z" fill="white"/>
<path d="M117.519 18.4056C116.819 22.4871 112.009 24.4275 111.151 24.762C112.009 25.0743 116.819 26.9923 117.519 31.0961C118.219 27.0146 123.074 25.0743 123.955 24.762C123.074 24.4275 118.219 22.5317 117.519 18.4056C117.609 18.361 117.519 18.361 117.519 18.4056Z" fill="white"/>
<path d="M136.036 18.4056C135.336 22.4871 130.526 24.4275 129.668 24.762C130.526 25.0743 135.336 26.9923 136.036 31.0961C136.736 27.0146 141.614 25.0743 142.472 24.762C141.614 24.4275 136.736 22.5317 136.036 18.4056C136.126 18.361 136.036 18.361 136.036 18.4056Z" fill="white"/>
<path d="M154.599 18.4056C153.899 22.4871 149.089 24.4275 148.23 24.762C149.089 25.0743 153.899 26.9923 154.599 31.0961C155.321 27.0146 160.176 25.0743 161.035 24.762C160.176 24.4275 155.321 22.5317 154.599 18.4056C154.599 18.361 154.599 18.361 154.599 18.4056Z" fill="white"/>
<path d="M173.071 18.4055C172.371 22.487 167.561 24.4273 166.703 24.7619C167.561 25.0741 172.371 26.9922 173.071 31.0959C173.771 27.0145 178.626 25.0741 179.484 24.7619C178.626 24.4273 173.771 22.5316 173.071 18.4055Z" fill="white"/>
<path d="M191.611 0.0501818C190.911 4.10933 186.078 6.072 185.22 6.38424C186.078 6.69648 190.911 8.61454 191.611 12.7183C192.311 8.65915 197.166 6.69648 198.024 6.38424C197.166 6.072 192.311 4.15394 191.611 0.0501818C191.679 -0.0167273 191.611 -0.0167273 191.611 0.0501818Z" fill="white"/>
<path d="M210.129 0.0501709C209.429 4.10932 204.596 6.07199 203.738 6.38423C204.596 6.69647 209.429 8.61453 210.129 12.7183C210.829 8.65914 215.684 6.69647 216.565 6.38423C215.684 6.07199 210.829 4.15393 210.129 0.0501709Z" fill="white"/>
<path d="M228.646 0.0501709C227.945 4.10932 223.135 6.07199 222.277 6.38423C223.135 6.69647 227.945 8.61453 228.646 12.7183C229.346 8.65914 234.201 6.69647 235.081 6.38423C234.201 6.07199 229.346 4.15393 228.646 0.0501709Z" fill="white"/>
<path d="M247.186 0.0501818C246.486 4.10933 241.676 6.072 240.817 6.38424C241.676 6.69648 246.486 8.61454 247.186 12.7183C247.908 8.65915 252.763 6.69648 253.622 6.38424C252.763 6.072 247.908 4.15394 247.186 0.0501818C247.186 -0.0167273 247.186 -0.0167273 247.186 0.0501818Z" fill="white"/>
<path d="M265.681 0.0501818C264.981 4.10933 260.171 6.072 259.313 6.38424C260.171 6.69648 264.981 8.61454 265.681 12.7183C265.681 12.7183 265.681 12.7183 265.794 12.7183C266.494 8.65915 271.349 6.69648 272.207 6.38424C271.349 6.072 266.494 4.15394 265.794 0.0501818C265.771 -0.0167273 265.704 -0.0167273 265.681 0.0501818Z" fill="white"/>
<path d="M284.221 0.0501818C283.498 4.10933 278.688 6.072 277.83 6.38424C278.688 6.69648 283.498 8.61454 284.221 12.7183C284.921 8.65915 289.776 6.69648 290.634 6.38424C289.776 6.072 284.921 4.15394 284.221 0.0501818C284.288 -0.0167273 284.221 -0.0167273 284.221 0.0501818Z" fill="white"/>
<path d="M302.738 0.0501709C302.038 4.10932 297.205 6.07199 296.347 6.38423C297.205 6.69647 302.038 8.61453 302.738 12.7183C303.438 8.65914 308.293 6.69647 309.174 6.38423C308.293 6.07199 303.438 4.15393 302.738 0.0501709Z" fill="white"/>
<path d="M321.255 0.0501709C320.555 4.10932 315.745 6.07199 314.887 6.38423C315.745 6.69647 320.555 8.61453 321.255 12.7183C321.955 8.65914 326.811 6.69647 327.691 6.38423C326.811 6.07199 321.955 4.15393 321.255 0.0501709Z" fill="white"/>
<path d="M339.773 0.0501818C339.072 4.10933 334.262 6.072 333.404 6.38424C334.262 6.69648 339.072 8.61454 339.773 12.7183C340.473 8.65915 345.35 6.69648 346.208 6.38424C345.35 6.072 340.473 4.15394 339.773 0.0501818C339.773 -0.0167273 339.773 -0.0167273 339.773 0.0501818Z" fill="white"/>
<path d="M358.29 0.0501818C357.59 4.10933 352.78 6.072 351.922 6.38424C352.78 6.69648 357.59 8.61454 358.29 12.7183C358.29 12.7183 358.29 12.7183 358.403 12.7183C359.103 8.65915 363.958 6.69648 364.817 6.38424C363.958 6.072 359.103 4.15394 358.403 0.0501818C358.381 -0.0167273 358.313 -0.0167273 358.29 0.0501818Z" fill="white"/>
<path d="M376.808 18.4055C376.108 22.487 371.298 24.4273 370.439 24.7619C371.298 25.0741 376.108 26.9922 376.808 31.0959C377.508 27.0145 382.363 25.0741 383.221 24.7619C382.363 24.4273 377.508 22.5316 376.808 18.4055Z" fill="white"/>
<path d="M395.348 18.4056C394.648 22.4871 389.815 24.4275 388.957 24.762C389.815 25.0743 394.648 26.9923 395.348 31.0961C396.048 27.0146 400.903 25.0743 401.761 24.762C400.903 24.4275 396.048 22.5317 395.348 18.4056C395.416 18.361 395.348 18.361 395.348 18.4056Z" fill="white"/>
<path d="M376.808 0.0501818C376.108 4.10933 371.298 6.072 370.439 6.38424C371.298 6.69648 376.108 8.61454 376.808 12.7183C377.508 8.65915 382.363 6.69648 383.221 6.38424C382.363 6.072 377.508 4.15394 376.808 0.0501818C376.898 -0.0167273 376.83 -0.0167273 376.808 0.0501818Z" fill="white"/>
<path d="M395.348 0.0501818C394.648 4.10933 389.815 6.072 388.957 6.38424C389.815 6.69648 394.648 8.61454 395.348 12.7183C396.048 8.65915 400.903 6.69648 401.761 6.38424C400.903 6.072 396.048 4.15394 395.348 0.0501818C395.416 -0.0167273 395.348 -0.0167273 395.348 0.0501818Z" fill="white"/>
<path d="M413.865 0.0501709C413.165 4.10932 408.332 6.04969 407.519 6.38423C408.377 6.69647 413.21 8.61453 413.91 12.7183C414.61 8.65914 419.465 6.69647 420.346 6.38423C419.465 6.07199 414.61 4.15393 413.91 0.0501709H413.865Z" fill="white"/>
<path d="M432.36 0.0501709C431.66 4.10932 426.85 6.07199 425.992 6.38423C426.85 6.69647 431.66 8.61453 432.36 12.7183C433.06 8.65914 437.938 6.69647 438.796 6.38423C437.938 6.07199 433.06 4.15393 432.36 0.0501709Z" fill="white"/>
<path d="M6.39076 0.0498047C5.69071 4.10896 0.858124 6.07162 0 6.38386C0.858124 6.69611 5.69071 8.61417 6.39076 12.7179C7.09081 8.65877 11.946 6.69611 12.8267 6.38386C11.946 6.07162 7.09081 4.15356 6.39076 0.0498047Z" fill="white"/>
<path d="M24.9092 0.0501709C24.2092 4.10932 19.3991 6.07199 18.541 6.38423C19.3991 6.69647 24.2092 8.61453 24.9092 12.7183C25.6093 8.65914 30.4644 6.69647 31.3451 6.38423C30.4644 6.07199 25.6093 4.15393 24.9092 0.0501709Z" fill="white"/>
<path d="M43.4264 0.0501818C42.7264 4.10933 37.9164 6.0497 37.1711 6.38424C38.0293 6.69648 42.8393 8.61454 43.5393 12.7183C44.262 8.65915 49.1171 6.69648 49.9752 6.38424C49.1171 6.072 44.262 4.15394 43.5393 0.0501818C43.5167 -0.0167273 43.449 -0.0167273 43.4264 0.0501818Z" fill="white"/>
<path d="M62.0115 0.0501818C61.3114 4.10933 56.5014 6.072 55.6433 6.38424C56.5014 6.69648 61.3114 8.61454 62.0115 12.7183C62.7115 8.65915 67.5667 6.69648 68.4248 6.38424C67.5667 6.072 62.7115 4.15394 62.0115 0.0501818C62.0115 -0.0167273 62.0115 -0.0167273 62.0115 0.0501818Z" fill="white"/>
<path d="M80.484 0.0501818C79.7614 4.10933 74.9514 6.072 74.0933 6.38424C74.9514 6.69648 79.7614 8.61454 80.484 12.7183C81.1841 8.65915 86.0392 6.69648 86.8973 6.38424C86.0392 6.072 81.1841 4.15394 80.484 0.0501818C80.5518 -0.0167273 80.484 -0.0167273 80.484 0.0501818Z" fill="white"/>
<path d="M99.0014 0.0501818C98.3013 4.10933 93.4687 6.072 92.6106 6.38424C93.4687 6.69648 98.3013 8.61454 99.0014 12.7183C99.7014 8.65915 104.557 6.69648 105.437 6.38424C104.557 6.072 99.7014 4.15394 99.0014 0.0501818C99.0691 -0.0167273 99.0014 -0.0167273 99.0014 0.0501818Z" fill="white"/>
<path d="M117.519 0.0501709C116.819 4.10932 112.009 6.07199 111.151 6.38423C112.009 6.69647 116.819 8.61453 117.519 12.7183C118.219 8.65914 123.074 6.69647 123.955 6.38423C123.074 6.07199 118.219 4.15393 117.519 0.0501709Z" fill="white"/>
<path d="M136.036 0.0501709C135.336 4.10932 130.526 6.07199 129.668 6.38423C130.526 6.69647 135.336 8.61453 136.036 12.7183C136.736 8.65914 141.614 6.69647 142.472 6.38423C141.614 6.07199 136.736 4.15393 136.036 0.0501709Z" fill="white"/>
<path d="M154.599 0.0501818C153.899 4.10933 149.089 6.072 148.23 6.38424C149.089 6.69648 153.899 8.61454 154.599 12.7183C155.321 8.65915 160.176 6.69648 161.035 6.38424C160.176 6.072 155.321 4.15394 154.599 0.0501818C154.599 -0.0167273 154.599 -0.0167273 154.599 0.0501818Z" fill="white"/>
<path d="M173.071 0.0501818C172.371 4.10933 167.561 6.072 166.703 6.38424C167.561 6.69648 172.371 8.61454 173.071 12.7183C173.771 8.65915 178.626 6.69648 179.484 6.38424C178.626 6.072 173.771 4.15394 173.071 0.0501818C173.161 -0.0167273 173.094 -0.0167273 173.071 0.0501818Z" fill="white"/>
</svg>
