<svg width="69" height="50" viewBox="0 0 69 50" fill="none" xmlns="http://www.w3.org/2000/svg">
<path d="M43.3805 0.0334547C42.6804 4.11493 37.8703 6.07762 37.0122 6.38986C37.8703 6.7021 42.6804 8.62016 43.3805 12.7239C44.0805 8.66477 48.9357 6.7021 49.8164 6.38986C48.9357 6.07762 44.0805 4.15953 43.3805 0.0334547C43.4708 -0.0111516 43.3805 -0.0111516 43.3805 0.0334547Z" fill="white"/>
<path d="M61.8982 0.0334547C61.1981 4.11493 56.3881 6.07762 55.53 6.38986C56.3881 6.7021 61.1981 8.62016 61.8982 12.7239C62.6208 8.66477 67.4759 6.7021 68.334 6.38986C67.4759 6.07762 62.6208 4.15953 61.8982 0.0334547C61.9885 -0.0111516 61.9208 -0.0111516 61.8982 0.0334547Z" fill="white"/>
<path d="M6.39086 18.4111C5.6908 22.4702 0.858131 24.4329 0 24.7452C0.858131 25.0574 5.6908 26.9755 6.39086 31.0792C7.09091 26.9978 11.9462 25.0574 12.8043 24.7452C11.9462 24.4329 7.09091 22.5149 6.39086 18.4111C6.39086 18.3442 6.39086 18.3442 6.39086 18.4111Z" fill="white"/>
<path d="M24.8633 18.4113C24.1632 22.4704 19.3305 24.4331 18.4724 24.7453C19.3305 25.0575 24.1632 26.9756 24.8633 31.0793C25.5633 26.9979 30.4186 25.0575 31.2993 24.7453C30.4186 24.4331 25.5633 22.515 24.8633 18.4113Z" fill="white"/>
<path d="M43.3805 18.4113C42.6804 22.4704 37.8703 24.4331 37.0122 24.7453C37.8703 25.0575 42.6804 26.9756 43.3805 31.0793C44.0805 26.9979 48.9357 25.0575 49.8164 24.7453C48.9357 24.4331 44.0805 22.515 43.3805 18.4113Z" fill="white"/>
<path d="M61.8982 18.4111C61.1981 22.4702 56.3881 24.4329 55.53 24.7452C56.3881 25.0574 61.1981 26.9755 61.8982 31.0792C62.6208 26.9978 67.4759 25.0574 68.334 24.7452C67.4759 24.4329 62.6208 22.5149 61.8982 18.4111C61.9885 18.3442 61.9208 18.3442 61.8982 18.4111Z" fill="white"/>
<path d="M6.39086 36.7665C5.6908 40.848 0.858131 42.8107 0 43.1229C0.858131 43.4351 5.6908 45.3532 6.39086 49.4569C7.09091 45.3978 11.9462 43.4351 12.8043 43.1229C11.9462 42.8107 7.09091 40.8926 6.39086 36.7665C6.39086 36.7219 6.39086 36.7219 6.39086 36.7665Z" fill="white"/>
<path d="M24.8633 36.7665C24.1632 40.848 19.3305 42.8107 18.4724 43.1229C19.3305 43.4351 24.1632 45.3532 24.8633 49.4569C25.5633 45.3978 30.4186 43.4351 31.2993 43.1229C30.4186 42.8107 25.5633 40.8926 24.8633 36.7665C24.9536 36.7219 24.8633 36.7219 24.8633 36.7665Z" fill="white"/>
<path d="M43.3805 36.7665C42.6804 40.848 37.8703 42.8107 37.0122 43.1229C37.8703 43.4351 42.6804 45.3532 43.3805 49.4569C44.0805 45.3978 48.9357 43.4351 49.8164 43.1229C48.9357 42.8107 44.0805 40.8926 43.3805 36.7665C43.4708 36.7219 43.3805 36.7219 43.3805 36.7665Z" fill="white"/>
<path d="M61.8982 36.7665C61.1981 40.848 56.3881 42.8107 55.53 43.1229C56.3881 43.4351 61.1981 45.3532 61.8982 49.4569C62.6208 45.3978 67.4759 43.4351 68.334 43.1229C67.4759 42.8107 62.6208 40.8926 61.8982 36.7665C61.9885 36.7219 61.9208 36.7219 61.8982 36.7665Z" fill="white"/>
</svg>
