<svg width="81" height="80" viewBox="0 0 81 80" fill="none" xmlns="http://www.w3.org/2000/svg">
<rect width="81" height="80" rx="5" fill="white"/>
<path d="M41 58L48 48.4C46.0556 46.9 43.625 46 41 46C38.375 46 35.9444 46.9 34 48.4L41 58ZM41 22C33.125 22 25.8528 24.68 20 29.2L23.5 34C28.3611 30.24 34.4278 28 41 28C47.5722 28 53.6389 30.24 58.5 34L62 29.2C56.1472 24.68 48.875 22 41 22ZM41 34C35.75 34 30.9083 35.78 27 38.8L30.5 43.6C33.4167 41.34 37.0528 40 41 40C44.9472 40 48.5833 41.34 51.5 43.6L55 38.8C51.0917 35.78 46.25 34 41 34Z" fill="#3A3A3A"/>
</svg>
