<svg width="81" height="80" viewBox="0 0 81 80" fill="none" xmlns="http://www.w3.org/2000/svg">
<rect width="81" height="80" rx="5" fill="#3A3A3A"/>
<path d="M40.5 22C42.9533 22 45.306 22.9482 47.0407 24.636C48.7754 26.3239 49.75 28.6131 49.75 31C49.75 33.3869 48.7754 35.6761 47.0407 37.364C45.306 39.0518 42.9533 40 40.5 40C38.0467 40 35.694 39.0518 33.9593 37.364C32.2246 35.6761 31.25 33.3869 31.25 31C31.25 28.6131 32.2246 26.3239 33.9593 24.636C35.694 22.9482 38.0467 22 40.5 22ZM40.5 44.5C50.7213 44.5 59 48.5275 59 53.5V58H22V53.5C22 48.5275 30.2787 44.5 40.5 44.5Z" fill="white"/>
</svg>
